<svg width="24" height="24" viewBox="0 0 24 24" fill="none" xmlns="http://www.w3.org/2000/svg">
<path d="M7.82496 13.0008L12.725 17.9008C12.925 18.1008 13.021 18.3341 13.013 18.6008C13.005 18.8674 12.9006 19.1008 12.7 19.3008C12.5 19.4841 12.2666 19.5801 12 19.5888C11.7333 19.5974 11.5 19.5014 11.3 19.3008L4.69996 12.7008C4.59996 12.6008 4.52896 12.4924 4.48696 12.3758C4.44496 12.2591 4.42463 12.1341 4.42596 12.0008C4.4273 11.8674 4.4483 11.7424 4.48896 11.6258C4.52963 11.5091 4.6003 11.4008 4.70096 11.3008L11.301 4.70078C11.4843 4.51745 11.7136 4.42578 11.989 4.42578C12.2643 4.42578 12.5016 4.51745 12.701 4.70078C12.901 4.90078 13.001 5.13845 13.001 5.41378C13.001 5.68911 12.901 5.92645 12.701 6.12578L7.82496 11.0008H19C19.2833 11.0008 19.521 11.0968 19.713 11.2888C19.905 11.4808 20.0006 11.7181 20 12.0008C19.9993 12.2834 19.9033 12.5211 19.712 12.7138C19.5206 12.9064 19.2833 13.0021 19 13.0008H7.82496Z" fill="#4924DF"/>
</svg>
