<svg width="112" height="29" viewBox="0 0 112 29" fill="none" xmlns="http://www.w3.org/2000/svg">
<path d="M5.0265 20.16C4.39717 20.16 3.8425 20.0747 3.3625 19.904C2.8825 19.7227 2.47717 19.4293 2.1465 19.024C1.81583 18.6187 1.55983 18.0747 1.3785 17.392C1.20783 16.7093 1.1225 15.8667 1.1225 14.864C1.1225 13.7973 1.20783 12.9067 1.3785 12.192C1.54917 11.4667 1.79983 10.8907 2.1305 10.464C2.47183 10.0373 2.8825 9.73333 3.3625 9.552C3.8425 9.36 4.39183 9.264 5.0105 9.264C5.66117 9.264 6.2265 9.36 6.7065 9.552C7.19717 9.73333 7.6025 10.0373 7.9225 10.464C8.25317 10.8907 8.4985 11.4613 8.6585 12.176C8.82917 12.8907 8.9145 13.7867 8.9145 14.864C8.9145 16.1973 8.76517 17.2533 8.4665 18.032C8.16783 18.8 7.7305 19.3493 7.1545 19.68C6.5785 20 5.86917 20.16 5.0265 20.16ZM5.0265 18.832C5.4105 18.832 5.7465 18.7733 6.0345 18.656C6.3225 18.528 6.5625 18.32 6.7545 18.032C6.95717 17.7333 7.1065 17.328 7.2025 16.816C7.2985 16.2933 7.3465 15.6427 7.3465 14.864C7.3465 14.0107 7.2985 13.312 7.2025 12.768C7.11717 12.2133 6.9785 11.7813 6.7865 11.472C6.5945 11.152 6.3545 10.928 6.0665 10.8C5.7785 10.6613 5.43183 10.592 5.0265 10.592C4.6425 10.592 4.30117 10.6613 4.0025 10.8C3.70383 10.928 3.4585 11.1467 3.2665 11.456C3.08517 11.7653 2.9465 12.1973 2.8505 12.752C2.7545 13.3067 2.7065 14.016 2.7065 14.88C2.7065 15.6587 2.7545 16.3093 2.8505 16.832C2.95717 17.344 3.1065 17.744 3.2985 18.032C3.50117 18.32 3.7465 18.528 4.0345 18.656C4.3225 18.7733 4.65317 18.832 5.0265 18.832ZM14.012 20.144C13.6173 20.144 13.196 20.1173 12.748 20.064C12.3 20.0107 11.868 19.952 11.452 19.888C11.0467 19.8133 10.7053 19.7387 10.428 19.664L10.588 18.48C10.8547 18.5227 11.1747 18.576 11.548 18.64C11.932 18.6933 12.3267 18.7413 12.732 18.784C13.1373 18.816 13.5107 18.832 13.852 18.832C14.5347 18.832 15.068 18.6453 15.452 18.272C15.8467 17.888 16.044 17.3333 16.044 16.608C16.044 16.1173 15.9587 15.7333 15.788 15.456C15.628 15.1787 15.3933 14.9813 15.084 14.864C14.7747 14.7467 14.4173 14.688 14.012 14.688C13.7027 14.688 13.3987 14.72 13.1 14.784C12.8013 14.8373 12.524 14.912 12.268 15.008C12.012 15.0933 11.804 15.1787 11.644 15.264L10.62 15.072L10.892 9.44H17.18V10.816H12.14L11.868 13.904C12.0387 13.8293 12.252 13.7493 12.508 13.664C12.764 13.568 13.0413 13.488 13.34 13.424C13.6387 13.36 13.9267 13.328 14.204 13.328C14.908 13.328 15.5107 13.4293 16.012 13.632C16.524 13.8347 16.9187 14.1653 17.196 14.624C17.4733 15.0827 17.612 15.696 17.612 16.464C17.612 17.2853 17.468 17.968 17.18 18.512C16.892 19.056 16.476 19.4667 15.932 19.744C15.3987 20.0107 14.7587 20.144 14.012 20.144ZM22.3415 20.16L20.8855 19.76L24.6935 11.248V10.832H19.6215V9.44H26.2615V11.296L22.3415 20.16ZM31.775 20.16C31.3697 20.16 30.9483 20.1333 30.511 20.08C30.0843 20.0373 29.6737 19.984 29.279 19.92C28.895 19.856 28.575 19.792 28.319 19.728L28.431 18.512C28.6763 18.5547 28.9803 18.6027 29.343 18.656C29.7057 18.6987 30.0843 18.7413 30.479 18.784C30.8843 18.816 31.2577 18.832 31.599 18.832C32.3243 18.832 32.863 18.6773 33.215 18.368C33.567 18.0587 33.743 17.5947 33.743 16.976C33.743 16.5387 33.6523 16.192 33.471 15.936C33.3003 15.68 33.0603 15.4933 32.751 15.376C32.4523 15.2587 32.111 15.1947 31.727 15.184H29.599V13.888H31.711C31.9777 13.888 32.2497 13.824 32.527 13.696C32.8043 13.5573 33.0337 13.36 33.215 13.104C33.407 12.8373 33.503 12.5227 33.503 12.16C33.503 11.6053 33.343 11.2107 33.023 10.976C32.7137 10.7307 32.1963 10.608 31.471 10.608C31.1297 10.608 30.7777 10.624 30.415 10.656C30.0523 10.688 29.711 10.7307 29.391 10.784C29.071 10.8267 28.799 10.8693 28.575 10.912L28.479 9.712C28.6923 9.648 28.9697 9.584 29.311 9.52C29.6523 9.44533 30.015 9.38667 30.399 9.344C30.7937 9.29067 31.1777 9.264 31.551 9.264C32.4043 9.264 33.087 9.36533 33.599 9.568C34.1217 9.76 34.495 10.0587 34.719 10.464C34.9537 10.8693 35.071 11.3973 35.071 12.048C35.071 12.4427 35.0123 12.7787 34.895 13.056C34.7777 13.3227 34.6337 13.552 34.463 13.744C34.2923 13.9253 34.1217 14.0747 33.951 14.192C33.791 14.2987 33.663 14.3787 33.567 14.432C33.919 14.5707 34.223 14.7307 34.479 14.912C34.735 15.0827 34.9377 15.328 35.087 15.648C35.2363 15.968 35.311 16.4 35.311 16.944C35.311 17.68 35.183 18.288 34.927 18.768C34.6817 19.2373 34.2977 19.5893 33.775 19.824C33.2523 20.048 32.5857 20.16 31.775 20.16ZM40.8245 20.144C40.4298 20.144 40.0085 20.1173 39.5605 20.064C39.1125 20.0107 38.6805 19.952 38.2645 19.888C37.8592 19.8133 37.5178 19.7387 37.2405 19.664L37.4005 18.48C37.6672 18.5227 37.9872 18.576 38.3605 18.64C38.7445 18.6933 39.1392 18.7413 39.5445 18.784C39.9498 18.816 40.3232 18.832 40.6645 18.832C41.3472 18.832 41.8805 18.6453 42.2645 18.272C42.6592 17.888 42.8565 17.3333 42.8565 16.608C42.8565 16.1173 42.7712 15.7333 42.6005 15.456C42.4405 15.1787 42.2058 14.9813 41.8965 14.864C41.5872 14.7467 41.2298 14.688 40.8245 14.688C40.5152 14.688 40.2112 14.72 39.9125 14.784C39.6138 14.8373 39.3365 14.912 39.0805 15.008C38.8245 15.0933 38.6165 15.1787 38.4565 15.264L37.4325 15.072L37.7045 9.44H43.9925V10.816H38.9525L38.6805 13.904C38.8512 13.8293 39.0645 13.7493 39.3205 13.664C39.5765 13.568 39.8538 13.488 40.1525 13.424C40.4512 13.36 40.7392 13.328 41.0165 13.328C41.7205 13.328 42.3232 13.4293 42.8245 13.632C43.3365 13.8347 43.7312 14.1653 44.0085 14.624C44.2858 15.0827 44.4245 15.696 44.4245 16.464C44.4245 17.2853 44.2805 17.968 43.9925 18.512C43.7045 19.056 43.2885 19.4667 42.7445 19.744C42.2112 20.0107 41.5712 20.144 40.8245 20.144ZM49.218 20.16C48.898 20.16 48.5513 20.144 48.178 20.112C47.8047 20.08 47.4473 20.0427 47.106 20C46.7647 19.9467 46.4767 19.8987 46.242 19.856L46.37 18.64C46.594 18.6613 46.8607 18.688 47.17 18.72C47.49 18.752 47.826 18.784 48.178 18.816C48.5407 18.8373 48.882 18.848 49.202 18.848C50.098 18.848 50.7647 18.5707 51.202 18.016C51.65 17.4613 51.8793 16.6187 51.89 15.488C51.634 15.584 51.3513 15.68 51.042 15.776C50.7433 15.8613 50.4447 15.9307 50.146 15.984C49.858 16.0373 49.586 16.064 49.33 16.064C48.21 16.064 47.3513 15.8027 46.754 15.28C46.1567 14.7467 45.858 13.9147 45.858 12.784C45.858 12.048 46.0073 11.4187 46.306 10.896C46.6153 10.3733 47.0473 9.97333 47.602 9.696C48.1567 9.41867 48.8127 9.28 49.57 9.28C50.4767 9.28 51.2127 9.49867 51.778 9.936C52.3433 10.3733 52.7593 11.0027 53.026 11.824C53.3033 12.6453 53.442 13.616 53.442 14.736C53.442 15.7707 53.3407 16.64 53.138 17.344C52.946 18.0373 52.6687 18.592 52.306 19.008C51.9433 19.424 51.5007 19.7227 50.978 19.904C50.466 20.0747 49.8793 20.16 49.218 20.16ZM49.474 14.752C49.73 14.752 50.0073 14.7253 50.306 14.672C50.6047 14.608 50.898 14.5333 51.186 14.448C51.474 14.3627 51.714 14.2827 51.906 14.208C51.8953 13.504 51.81 12.88 51.65 12.336C51.5007 11.792 51.2553 11.3653 50.914 11.056C50.5833 10.7467 50.1353 10.592 49.57 10.592C48.8873 10.592 48.3487 10.7893 47.954 11.184C47.57 11.5787 47.378 12.1173 47.378 12.8C47.378 13.472 47.554 13.968 47.906 14.288C48.2687 14.5973 48.7913 14.752 49.474 14.752ZM58.7635 20.16C57.8782 20.16 57.1475 19.9467 56.5715 19.52C56.0062 19.0827 55.5902 18.4533 55.3235 17.632C55.0568 16.8107 54.9235 15.8293 54.9235 14.688C54.9235 13.7173 55.0195 12.8907 55.2115 12.208C55.4035 11.5147 55.6808 10.9547 56.0435 10.528C56.4168 10.0907 56.8595 9.776 57.3715 9.584C57.8942 9.38133 58.4702 9.28 59.0995 9.28C59.4302 9.28 59.7768 9.296 60.1395 9.328C60.5128 9.36 60.8702 9.40267 61.2115 9.456C61.5528 9.49867 61.8408 9.54133 62.0755 9.584L61.9315 10.784C61.7288 10.7627 61.4675 10.7413 61.1475 10.72C60.8275 10.688 60.4915 10.6613 60.1395 10.64C59.7875 10.6187 59.4462 10.608 59.1155 10.608C58.2622 10.608 57.6115 10.896 57.1635 11.472C56.7155 12.0373 56.4808 12.8533 56.4595 13.92C56.5662 13.8987 56.7048 13.856 56.8755 13.792C57.0568 13.728 57.2648 13.664 57.4995 13.6C57.7448 13.5253 57.9902 13.4667 58.2355 13.424C58.4808 13.3707 58.7208 13.344 58.9555 13.344C60.1182 13.344 60.9982 13.616 61.5955 14.16C62.1928 14.6933 62.4915 15.5307 62.4915 16.672C62.4915 17.4187 62.3422 18.0587 62.0435 18.592C61.7555 19.1147 61.3342 19.5093 60.7795 19.776C60.2248 20.032 59.5528 20.16 58.7635 20.16ZM58.7635 18.848C59.4782 18.848 60.0222 18.6613 60.3955 18.288C60.7795 17.904 60.9715 17.36 60.9715 16.656C60.9715 15.984 60.7795 15.4827 60.3955 15.152C60.0222 14.8213 59.4995 14.656 58.8275 14.656C58.5502 14.656 58.2622 14.688 57.9635 14.752C57.6648 14.816 57.3822 14.8907 57.1155 14.976C56.8488 15.0507 56.6248 15.1307 56.4435 15.216C56.4542 15.8987 56.5342 16.5173 56.6835 17.072C56.8328 17.6267 57.0728 18.064 57.4035 18.384C57.7448 18.6933 58.1982 18.848 58.7635 18.848ZM67.093 20.16C66.773 20.16 66.4263 20.144 66.053 20.112C65.6797 20.08 65.3223 20.0427 64.981 20C64.6397 19.9467 64.3517 19.8987 64.117 19.856L64.245 18.64C64.469 18.6613 64.7357 18.688 65.045 18.72C65.365 18.752 65.701 18.784 66.053 18.816C66.4157 18.8373 66.757 18.848 67.077 18.848C67.973 18.848 68.6397 18.5707 69.077 18.016C69.525 17.4613 69.7543 16.6187 69.765 15.488C69.509 15.584 69.2263 15.68 68.917 15.776C68.6183 15.8613 68.3197 15.9307 68.021 15.984C67.733 16.0373 67.461 16.064 67.205 16.064C66.085 16.064 65.2263 15.8027 64.629 15.28C64.0317 14.7467 63.733 13.9147 63.733 12.784C63.733 12.048 63.8823 11.4187 64.181 10.896C64.4903 10.3733 64.9223 9.97333 65.477 9.696C66.0317 9.41867 66.6877 9.28 67.445 9.28C68.3517 9.28 69.0877 9.49867 69.653 9.936C70.2183 10.3733 70.6343 11.0027 70.901 11.824C71.1783 12.6453 71.317 13.616 71.317 14.736C71.317 15.7707 71.2157 16.64 71.013 17.344C70.821 18.0373 70.5437 18.592 70.181 19.008C69.8183 19.424 69.3757 19.7227 68.853 19.904C68.341 20.0747 67.7543 20.16 67.093 20.16ZM67.349 14.752C67.605 14.752 67.8823 14.7253 68.181 14.672C68.4797 14.608 68.773 14.5333 69.061 14.448C69.349 14.3627 69.589 14.2827 69.781 14.208C69.7703 13.504 69.685 12.88 69.525 12.336C69.3757 11.792 69.1303 11.3653 68.789 11.056C68.4583 10.7467 68.0103 10.592 67.445 10.592C66.7623 10.592 66.2237 10.7893 65.829 11.184C65.445 11.5787 65.253 12.1173 65.253 12.8C65.253 13.472 65.429 13.968 65.781 14.288C66.1437 14.5973 66.6663 14.752 67.349 14.752ZM75.9665 20.16L74.5105 19.76L78.3185 11.248V10.832H73.2465V9.44H79.8865V11.296L75.9665 20.16Z" fill="#61605D"/>
<path d="M94.54 7.5C94.6 8.39 94.75 9.26 94.99 10.09L93.79 11.29C93.38 10.09 93.12 8.82 93.03 7.5H94.54ZM104.4 19.52C105.25 19.76 106.12 19.91 107 19.97V21.46C105.68 21.37 104.41 21.11 103.2 20.71L104.4 19.52ZM95.5 5.5H92C91.45 5.5 91 5.95 91 6.5C91 15.89 98.61 23.5 108 23.5C108.55 23.5 109 23.05 109 22.5V19.01C109 18.46 108.55 18.01 108 18.01C106.76 18.01 105.55 17.81 104.43 17.44C104.331 17.403 104.226 17.386 104.12 17.39C103.86 17.39 103.61 17.49 103.41 17.68L101.21 19.88C98.3755 18.4303 96.0697 16.1245 94.62 13.29L96.82 11.09C97.1 10.81 97.18 10.42 97.07 10.07C96.6913 8.91789 96.4989 7.71274 96.5 6.5C96.5 5.95 96.05 5.5 95.5 5.5Z" fill="#61605D"/>
</svg>
