<svg width="166" height="29" viewBox="0 0 166 29" fill="none" xmlns="http://www.w3.org/2000/svg">
<path d="M4.42225 20.16C3.60092 20.16 2.95025 20.0107 2.47025 19.712C2.00092 19.4027 1.65958 18.944 1.44625 18.336C1.23292 17.728 1.12625 16.9653 1.12625 16.048C1.12625 15.0453 1.26492 14.2347 1.54225 13.616C1.83025 12.9973 2.23025 12.544 2.74225 12.256C3.25425 11.968 3.86758 11.824 4.58225 11.824C5.68092 11.824 6.50758 12.1227 7.06225 12.72C7.62758 13.3067 7.91025 14.256 7.91025 15.568L7.83025 16.576H2.64625C2.65692 17.344 2.80092 17.9253 3.07825 18.32C3.35558 18.704 3.85692 18.896 4.58225 18.896C4.89158 18.896 5.22758 18.8907 5.59025 18.88C5.96358 18.8587 6.33158 18.8373 6.69425 18.816C7.05692 18.7947 7.36625 18.7733 7.62225 18.752L7.65425 19.872C7.38758 19.9147 7.06758 19.9573 6.69425 20C6.32092 20.0533 5.93158 20.0907 5.52625 20.112C5.13158 20.144 4.76358 20.16 4.42225 20.16ZM2.64625 15.472H6.42225C6.42225 14.5653 6.27292 13.9307 5.97425 13.568C5.68625 13.2053 5.22225 13.024 4.58225 13.024C4.16625 13.024 3.81425 13.104 3.52625 13.264C3.23825 13.424 3.01958 13.6853 2.87025 14.048C2.72092 14.4 2.64625 14.8747 2.64625 15.472ZM9.6345 20V11.984H11.1225V12.544C11.2932 12.4373 11.5012 12.3307 11.7465 12.224C12.0025 12.1173 12.2745 12.0267 12.5625 11.952C12.8505 11.8667 13.1278 11.824 13.3945 11.824C13.9172 11.824 14.3385 11.888 14.6585 12.016C14.9785 12.144 15.2398 12.352 15.4425 12.64C15.6452 12.5227 15.8958 12.4 16.1945 12.272C16.5038 12.144 16.8345 12.0373 17.1865 11.952C17.5385 11.8667 17.8852 11.824 18.2265 11.824C18.7812 11.824 19.2345 11.8987 19.5865 12.048C19.9492 12.1867 20.2318 12.416 20.4345 12.736C20.6372 13.0453 20.7758 13.4507 20.8505 13.952C20.9358 14.4427 20.9785 15.0507 20.9785 15.776V20H19.5065V15.872C19.5065 15.2107 19.4692 14.6827 19.3945 14.288C19.3198 13.8933 19.1705 13.6053 18.9465 13.424C18.7332 13.2427 18.4025 13.152 17.9545 13.152C17.6985 13.152 17.4372 13.1787 17.1705 13.232C16.9145 13.2853 16.6745 13.3547 16.4505 13.44C16.2265 13.5253 16.0452 13.6053 15.9065 13.68C15.9812 13.936 16.0292 14.2667 16.0505 14.672C16.0825 15.0667 16.0985 15.472 16.0985 15.888V20H14.6105V15.92C14.6105 15.2373 14.5732 14.6987 14.4985 14.304C14.4345 13.8987 14.2905 13.6053 14.0665 13.424C13.8425 13.2427 13.5118 13.152 13.0745 13.152C12.8292 13.152 12.5785 13.1787 12.3225 13.232C12.0772 13.2853 11.8478 13.3547 11.6345 13.44C11.4318 13.5253 11.2612 13.6053 11.1225 13.68V20H9.6345ZM24.8964 20.16C24.139 20.16 23.563 19.952 23.1684 19.536C22.7737 19.12 22.5764 18.5067 22.5764 17.696C22.5764 17.152 22.6724 16.7147 22.8644 16.384C23.0564 16.0427 23.339 15.7867 23.7124 15.616C24.0964 15.4453 24.571 15.344 25.1364 15.312L27.4564 15.088V14.464C27.4564 13.9627 27.3444 13.6107 27.1204 13.408C26.8964 13.1947 26.5604 13.088 26.1124 13.088C25.835 13.088 25.5097 13.0987 25.1364 13.12C24.763 13.1413 24.395 13.168 24.0324 13.2C23.6697 13.232 23.3444 13.264 23.0564 13.296L22.9924 12.208C23.259 12.144 23.5737 12.0853 23.9364 12.032C24.3097 11.9787 24.699 11.9307 25.1044 11.888C25.5097 11.8453 25.883 11.824 26.2244 11.824C26.8537 11.824 27.371 11.9147 27.7764 12.096C28.1817 12.2773 28.4804 12.56 28.6724 12.944C28.8644 13.328 28.9604 13.824 28.9604 14.432V18.368C28.9817 18.5813 29.067 18.7413 29.2164 18.848C29.3764 18.944 29.5737 19.008 29.8084 19.04L29.7604 20.144C29.611 20.144 29.4617 20.1387 29.3124 20.128C29.163 20.128 29.0244 20.1173 28.8964 20.096C28.7684 20.0747 28.6457 20.048 28.5284 20.016C28.3577 19.9733 28.203 19.9147 28.0644 19.84C27.9364 19.7547 27.8137 19.6587 27.6964 19.552C27.5044 19.6373 27.2537 19.728 26.9444 19.824C26.635 19.92 26.3044 20 25.9524 20.064C25.6004 20.128 25.2484 20.16 24.8964 20.16ZM25.2004 18.976C25.467 18.976 25.739 18.9493 26.0164 18.896C26.3044 18.8427 26.5764 18.784 26.8324 18.72C27.0884 18.6453 27.2964 18.5813 27.4564 18.528V16.128L25.3284 16.336C24.8804 16.368 24.5604 16.496 24.3684 16.72C24.1764 16.9333 24.0804 17.2427 24.0804 17.648C24.0804 18.064 24.171 18.3893 24.3524 18.624C24.5444 18.8587 24.827 18.976 25.2004 18.976ZM31.1814 20V11.984H32.6694V20H31.1814ZM31.1814 10.368V8.816H32.6694V10.368H31.1814ZM34.9024 20V8.576H36.3744V20H34.9024ZM38.6029 20V18.736L41.4669 15.744C41.9149 15.2853 42.2989 14.8747 42.6189 14.512C42.9495 14.1387 43.2002 13.7813 43.3709 13.44C43.5415 13.088 43.6269 12.72 43.6269 12.336C43.6269 11.6853 43.4455 11.2373 43.0829 10.992C42.7309 10.7467 42.1922 10.624 41.4669 10.624C41.1895 10.624 40.8802 10.6453 40.5389 10.688C40.2082 10.72 39.8882 10.7627 39.5789 10.816C39.2695 10.8587 39.0029 10.9067 38.7789 10.96L38.6829 9.728C38.9069 9.65333 39.1842 9.584 39.5149 9.52C39.8562 9.456 40.2242 9.40267 40.6189 9.36C41.0135 9.30667 41.4029 9.28 41.7869 9.28C42.9175 9.28 43.7655 9.50933 44.3309 9.968C44.9069 10.416 45.1949 11.1413 45.1949 12.144C45.1949 12.6773 45.1149 13.152 44.9549 13.568C44.7949 13.984 44.5495 14.3947 44.2189 14.8C43.8989 15.1947 43.4829 15.632 42.9709 16.112L40.3789 18.688H45.4189V20H38.6029ZM54.5644 23.28C53.3484 23.28 52.2817 23.1573 51.3644 22.912C50.447 22.6773 49.6844 22.272 49.0764 21.696C48.4684 21.1307 48.0097 20.368 47.7004 19.408C47.4017 18.448 47.2524 17.2533 47.2524 15.824C47.2524 14.5013 47.4124 13.3707 47.7324 12.432C48.063 11.4827 48.543 10.7147 49.1724 10.128C49.8017 9.54133 50.5697 9.10933 51.4764 8.832C52.383 8.55467 53.4177 8.416 54.5804 8.416C56.2017 8.416 57.5244 8.66133 58.5484 9.152C59.5724 9.632 60.3244 10.368 60.8044 11.36C61.295 12.352 61.5404 13.6 61.5404 15.104V15.312C61.5404 16.1227 61.4977 16.8107 61.4124 17.376C61.327 17.9307 61.2044 18.384 61.0444 18.736C60.8844 19.088 60.687 19.3653 60.4524 19.568C60.2177 19.76 59.9457 19.8933 59.6364 19.968C59.327 20.0427 58.991 20.08 58.6284 20.08C58.2337 20.08 57.8977 20.032 57.6204 19.936C57.3537 19.8293 57.1404 19.7067 56.9804 19.568C56.8204 19.4187 56.7084 19.2747 56.6444 19.136C56.431 19.264 56.1644 19.4027 55.8444 19.552C55.535 19.7013 55.2097 19.824 54.8684 19.92C54.5377 20.016 54.223 20.064 53.9244 20.064C53.6257 20.064 53.3324 20.0373 53.0444 19.984C52.7564 19.92 52.4897 19.808 52.2444 19.648C52.0097 19.4773 51.8017 19.2427 51.6204 18.944C51.439 18.6453 51.295 18.2613 51.1884 17.792C51.0924 17.3227 51.0444 16.7467 51.0444 16.064C51.0444 15.1573 51.1404 14.4 51.3324 13.792C51.5244 13.1733 51.855 12.7093 52.3244 12.4C52.7937 12.08 53.4337 11.92 54.2444 11.92C54.5324 11.92 54.8524 11.968 55.2044 12.064C55.567 12.16 55.855 12.256 56.0684 12.352V12.08H57.5724V15.136C57.5724 15.9787 57.583 16.6507 57.6044 17.152C57.6257 17.6427 57.6684 18.0107 57.7324 18.256C57.807 18.5013 57.9244 18.6667 58.0844 18.752C58.2444 18.8267 58.4524 18.864 58.7084 18.864C58.9324 18.864 59.1297 18.8267 59.3004 18.752C59.4817 18.6773 59.631 18.528 59.7484 18.304C59.8764 18.0693 59.9724 17.712 60.0364 17.232C60.1004 16.752 60.1324 16.112 60.1324 15.312V15.088C60.1324 14.128 60.0257 13.3067 59.8124 12.624C59.6097 11.9413 59.2844 11.3813 58.8364 10.944C58.399 10.5067 57.8284 10.1867 57.1244 9.984C56.431 9.77067 55.583 9.664 54.5804 9.664C53.5884 9.664 52.719 9.78133 51.9724 10.016C51.2364 10.24 50.6177 10.6027 50.1164 11.104C49.615 11.5947 49.2417 12.2293 48.9964 13.008C48.751 13.776 48.6284 14.7147 48.6284 15.824C48.6284 16.9973 48.7404 17.9787 48.9644 18.768C49.199 19.5573 49.5564 20.192 50.0364 20.672C50.5164 21.1627 51.1297 21.5093 51.8764 21.712C52.6337 21.9253 53.5297 22.032 54.5644 22.032C54.735 22.032 54.9537 22.0213 55.2204 22C55.4977 21.9893 55.7804 21.9733 56.0684 21.952C56.367 21.9307 56.6284 21.9093 56.8524 21.888L56.9004 23.136C56.687 23.1573 56.4364 23.1787 56.1484 23.2C55.8604 23.2213 55.5724 23.2373 55.2844 23.248C55.007 23.2693 54.767 23.28 54.5644 23.28ZM54.0684 18.784C54.271 18.784 54.5004 18.752 54.7564 18.688C55.023 18.6133 55.2844 18.528 55.5404 18.432C55.7964 18.3253 56.0204 18.224 56.2124 18.128C56.191 17.904 56.1644 17.6533 56.1324 17.376C56.111 17.088 56.095 16.7893 56.0844 16.48C56.0737 16.16 56.0684 15.8507 56.0684 15.552V13.504C55.887 13.44 55.647 13.376 55.3484 13.312C55.0604 13.248 54.8044 13.216 54.5804 13.216C54.0257 13.216 53.599 13.3227 53.3004 13.536C53.0124 13.7387 52.8097 14.0533 52.6924 14.48C52.5857 14.9067 52.5324 15.4347 52.5324 16.064C52.5324 16.64 52.575 17.104 52.6604 17.456C52.7564 17.808 52.8737 18.0853 53.0124 18.288C53.1617 18.48 53.327 18.6133 53.5084 18.688C53.6897 18.752 53.8764 18.784 54.0684 18.784ZM66.4755 23.728C65.6328 23.728 64.9502 23.6587 64.4275 23.52C63.9048 23.3813 63.5208 23.136 63.2755 22.784C63.0302 22.4427 62.9075 21.968 62.9075 21.36C62.9075 21.0507 62.9502 20.784 63.0355 20.56C63.1315 20.3467 63.2702 20.1493 63.4515 19.968C63.6435 19.776 63.8782 19.5787 64.1555 19.376C64.0062 19.2693 63.8888 19.1147 63.8035 18.912C63.7288 18.7093 63.6915 18.4853 63.6915 18.24C63.6915 18.1653 63.7235 18.0533 63.7875 17.904C63.8515 17.7547 63.9262 17.6 64.0115 17.44C64.1075 17.28 64.1928 17.1307 64.2675 16.992C64.0435 16.8853 63.8355 16.7413 63.6435 16.56C63.4622 16.368 63.3128 16.112 63.1955 15.792C63.0782 15.472 63.0195 15.0667 63.0195 14.576C63.0195 13.9147 63.1422 13.3813 63.3875 12.976C63.6435 12.5707 64.0062 12.2773 64.4755 12.096C64.9448 11.9147 65.4888 11.824 66.1075 11.824C66.3955 11.824 66.6995 11.8453 67.0195 11.888C67.3395 11.9307 67.5902 11.9787 67.7715 12.032L70.2195 11.968V13.136L68.7955 13.104C68.9342 13.2427 69.0462 13.4293 69.1315 13.664C69.2275 13.8987 69.2755 14.2027 69.2755 14.576C69.2755 15.28 69.1582 15.8347 68.9235 16.24C68.6888 16.6347 68.3315 16.912 67.8515 17.072C67.3822 17.2213 66.7902 17.296 66.0755 17.296C66.0008 17.296 65.8782 17.2907 65.7075 17.28C65.5475 17.2587 65.4248 17.2427 65.3395 17.232C65.2755 17.3707 65.2115 17.5307 65.1475 17.712C65.0942 17.8827 65.0675 18.0053 65.0675 18.08C65.0675 18.2187 65.0888 18.3307 65.1315 18.416C65.1742 18.5013 65.2542 18.5707 65.3715 18.624C65.4995 18.6667 65.6915 18.6987 65.9475 18.72C66.2035 18.7307 66.5555 18.736 67.0035 18.736C67.7715 18.736 68.3848 18.8053 68.8435 18.944C69.3022 19.072 69.6275 19.3067 69.8195 19.648C70.0115 19.9787 70.1075 20.464 70.1075 21.104C70.1075 22.032 69.7875 22.6987 69.1475 23.104C68.5075 23.52 67.6168 23.728 66.4755 23.728ZM66.4595 22.528C67.2062 22.528 67.7555 22.4267 68.1075 22.224C68.4595 22.0213 68.6355 21.6853 68.6355 21.216C68.6355 20.8533 68.5768 20.5867 68.4595 20.416C68.3528 20.2453 68.1608 20.1333 67.8835 20.08C67.6062 20.0267 67.2382 20 66.7795 20C66.6835 20 66.5502 20 66.3795 20C66.2195 19.9893 66.0488 19.984 65.8675 19.984C65.6968 19.9733 65.5422 19.9627 65.4035 19.952C65.2648 19.9413 65.1688 19.936 65.1155 19.936C64.9235 20.0853 64.7635 20.2187 64.6355 20.336C64.5182 20.464 64.4328 20.592 64.3795 20.72C64.3368 20.8587 64.3155 21.0187 64.3155 21.2C64.3155 21.52 64.3795 21.776 64.5075 21.968C64.6355 22.1707 64.8542 22.3147 65.1635 22.4C65.4728 22.4853 65.9048 22.528 66.4595 22.528ZM66.1075 16.176C66.7262 16.176 67.1635 16.0533 67.4195 15.808C67.6862 15.5627 67.8195 15.152 67.8195 14.576C67.8195 14 67.6862 13.5893 67.4195 13.344C67.1635 13.0987 66.7262 12.976 66.1075 12.976C65.5315 12.976 65.1155 13.0987 64.8595 13.344C64.6142 13.5893 64.4915 14 64.4915 14.576C64.4915 15.152 64.6142 15.5627 64.8595 15.808C65.1155 16.0533 65.5315 16.176 66.1075 16.176ZM71.572 20V11.984H73.06V12.544C73.2307 12.4373 73.4387 12.3307 73.684 12.224C73.94 12.1173 74.212 12.0267 74.5 11.952C74.788 11.8667 75.0653 11.824 75.332 11.824C75.8547 11.824 76.276 11.888 76.596 12.016C76.916 12.144 77.1773 12.352 77.38 12.64C77.5827 12.5227 77.8333 12.4 78.132 12.272C78.4413 12.144 78.772 12.0373 79.124 11.952C79.476 11.8667 79.8227 11.824 80.164 11.824C80.7187 11.824 81.172 11.8987 81.524 12.048C81.8867 12.1867 82.1693 12.416 82.372 12.736C82.5747 13.0453 82.7133 13.4507 82.788 13.952C82.8733 14.4427 82.916 15.0507 82.916 15.776V20H81.444V15.872C81.444 15.2107 81.4067 14.6827 81.332 14.288C81.2573 13.8933 81.108 13.6053 80.884 13.424C80.6707 13.2427 80.34 13.152 79.892 13.152C79.636 13.152 79.3747 13.1787 79.108 13.232C78.852 13.2853 78.612 13.3547 78.388 13.44C78.164 13.5253 77.9827 13.6053 77.844 13.68C77.9187 13.936 77.9667 14.2667 77.988 14.672C78.02 15.0667 78.036 15.472 78.036 15.888V20H76.548V15.92C76.548 15.2373 76.5107 14.6987 76.436 14.304C76.372 13.8987 76.228 13.6053 76.004 13.424C75.78 13.2427 75.4493 13.152 75.012 13.152C74.7667 13.152 74.516 13.1787 74.26 13.232C74.0147 13.2853 73.7853 13.3547 73.572 13.44C73.3693 13.5253 73.1987 13.6053 73.06 13.68V20H71.572ZM86.8339 20.16C86.0765 20.16 85.5005 19.952 85.1059 19.536C84.7112 19.12 84.5139 18.5067 84.5139 17.696C84.5139 17.152 84.6099 16.7147 84.8019 16.384C84.9939 16.0427 85.2765 15.7867 85.6499 15.616C86.0339 15.4453 86.5085 15.344 87.0739 15.312L89.3939 15.088V14.464C89.3939 13.9627 89.2819 13.6107 89.0579 13.408C88.8339 13.1947 88.4979 13.088 88.0499 13.088C87.7725 13.088 87.4472 13.0987 87.0739 13.12C86.7005 13.1413 86.3325 13.168 85.9699 13.2C85.6072 13.232 85.2819 13.264 84.9939 13.296L84.9299 12.208C85.1965 12.144 85.5112 12.0853 85.8739 12.032C86.2472 11.9787 86.6365 11.9307 87.0419 11.888C87.4472 11.8453 87.8205 11.824 88.1619 11.824C88.7912 11.824 89.3085 11.9147 89.7139 12.096C90.1192 12.2773 90.4179 12.56 90.6099 12.944C90.8019 13.328 90.8979 13.824 90.8979 14.432V18.368C90.9192 18.5813 91.0045 18.7413 91.1539 18.848C91.3139 18.944 91.5112 19.008 91.7459 19.04L91.6979 20.144C91.5485 20.144 91.3992 20.1387 91.2499 20.128C91.1005 20.128 90.9619 20.1173 90.8339 20.096C90.7059 20.0747 90.5832 20.048 90.4659 20.016C90.2952 19.9733 90.1405 19.9147 90.0019 19.84C89.8739 19.7547 89.7512 19.6587 89.6339 19.552C89.4419 19.6373 89.1912 19.728 88.8819 19.824C88.5725 19.92 88.2419 20 87.8899 20.064C87.5379 20.128 87.1859 20.16 86.8339 20.16ZM87.1379 18.976C87.4045 18.976 87.6765 18.9493 87.9539 18.896C88.2419 18.8427 88.5139 18.784 88.7699 18.72C89.0259 18.6453 89.2339 18.5813 89.3939 18.528V16.128L87.2659 16.336C86.8179 16.368 86.4979 16.496 86.3059 16.72C86.1139 16.9333 86.0179 17.2427 86.0179 17.648C86.0179 18.064 86.1085 18.3893 86.2899 18.624C86.4819 18.8587 86.7645 18.976 87.1379 18.976ZM93.1189 20V11.984H94.6069V20H93.1189ZM93.1189 10.368V8.816H94.6069V10.368H93.1189ZM96.8399 20V8.576H98.3119V20H96.8399ZM100.492 20V17.984H102.092V20H100.492ZM107.206 20.16C106.342 20.16 105.665 20.0213 105.174 19.744C104.683 19.456 104.337 18.9973 104.134 18.368C103.931 17.7387 103.83 16.912 103.83 15.888C103.83 14.896 103.942 14.1067 104.166 13.52C104.39 12.9227 104.753 12.4907 105.254 12.224C105.755 11.9573 106.411 11.824 107.222 11.824C107.414 11.824 107.643 11.84 107.91 11.872C108.187 11.8933 108.465 11.9253 108.742 11.968C109.03 12.0107 109.275 12.048 109.478 12.08L109.43 13.296C109.249 13.2747 109.035 13.2533 108.79 13.232C108.545 13.2107 108.31 13.1947 108.086 13.184C107.862 13.1627 107.675 13.152 107.526 13.152C106.95 13.152 106.502 13.2427 106.182 13.424C105.873 13.6053 105.654 13.8933 105.526 14.288C105.409 14.6827 105.35 15.216 105.35 15.888C105.35 16.6133 105.403 17.1947 105.51 17.632C105.627 18.0587 105.841 18.368 106.15 18.56C106.459 18.7413 106.918 18.832 107.526 18.832C107.675 18.832 107.862 18.8267 108.086 18.816C108.321 18.7947 108.561 18.7733 108.806 18.752C109.062 18.7307 109.281 18.7147 109.462 18.704L109.51 19.92C109.297 19.952 109.046 19.984 108.758 20.016C108.481 20.0587 108.203 20.0907 107.926 20.112C107.649 20.144 107.409 20.16 107.206 20.16ZM114.303 20.16C113.407 20.16 112.703 20.0107 112.191 19.712C111.679 19.4027 111.316 18.9333 111.103 18.304C110.89 17.6747 110.783 16.8747 110.783 15.904C110.783 14.976 110.895 14.2133 111.119 13.616C111.354 13.0187 111.727 12.5707 112.239 12.272C112.762 11.9733 113.45 11.824 114.303 11.824C115.167 11.824 115.855 11.9733 116.367 12.272C116.879 12.5707 117.247 13.0187 117.471 13.616C117.706 14.2133 117.823 14.976 117.823 15.904C117.823 16.8747 117.716 17.6747 117.503 18.304C117.3 18.9333 116.943 19.4027 116.431 19.712C115.919 20.0107 115.21 20.16 114.303 20.16ZM114.303 18.896C114.868 18.896 115.295 18.7947 115.583 18.592C115.871 18.3893 116.063 18.0693 116.159 17.632C116.255 17.184 116.303 16.608 116.303 15.904C116.303 15.2107 116.244 14.6613 116.127 14.256C116.01 13.84 115.807 13.5413 115.519 13.36C115.231 13.1787 114.826 13.088 114.303 13.088C113.791 13.088 113.386 13.1787 113.087 13.36C112.799 13.5413 112.596 13.84 112.479 14.256C112.362 14.6613 112.303 15.2107 112.303 15.904C112.303 16.608 112.351 17.184 112.447 17.632C112.543 18.0693 112.73 18.3893 113.007 18.592C113.295 18.7947 113.727 18.896 114.303 18.896ZM119.65 20V11.984H121.138V12.544C121.309 12.4373 121.517 12.3307 121.762 12.224C122.018 12.1173 122.29 12.0267 122.578 11.952C122.866 11.8667 123.143 11.824 123.41 11.824C123.933 11.824 124.354 11.888 124.674 12.016C124.994 12.144 125.255 12.352 125.458 12.64C125.661 12.5227 125.911 12.4 126.21 12.272C126.519 12.144 126.85 12.0373 127.202 11.952C127.554 11.8667 127.901 11.824 128.242 11.824C128.797 11.824 129.25 11.8987 129.602 12.048C129.965 12.1867 130.247 12.416 130.45 12.736C130.653 13.0453 130.791 13.4507 130.866 13.952C130.951 14.4427 130.994 15.0507 130.994 15.776V20H129.522V15.872C129.522 15.2107 129.485 14.6827 129.41 14.288C129.335 13.8933 129.186 13.6053 128.962 13.424C128.749 13.2427 128.418 13.152 127.97 13.152C127.714 13.152 127.453 13.1787 127.186 13.232C126.93 13.2853 126.69 13.3547 126.466 13.44C126.242 13.5253 126.061 13.6053 125.922 13.68C125.997 13.936 126.045 14.2667 126.066 14.672C126.098 15.0667 126.114 15.472 126.114 15.888V20H124.626V15.92C124.626 15.2373 124.589 14.6987 124.514 14.304C124.45 13.8987 124.306 13.6053 124.082 13.424C123.858 13.2427 123.527 13.152 123.09 13.152C122.845 13.152 122.594 13.1787 122.338 13.232C122.093 13.2853 121.863 13.3547 121.65 13.44C121.447 13.5253 121.277 13.6053 121.138 13.68V20H119.65Z" fill="#61605D"/>
<path d="M164 8.5C164 7.4 163.1 6.5 162 6.5H146C144.9 6.5 144 7.4 144 8.5V20.5C144 21.6 144.9 22.5 146 22.5H162C163.1 22.5 164 21.6 164 20.5V8.5ZM162 8.5L154 13.5L146 8.5H162ZM162 20.5H146V10.5L154 15.5L162 10.5V20.5Z" fill="#61605D"/>
</svg>
