<svg width="96" height="29" viewBox="0 0 96 29" fill="none" xmlns="http://www.w3.org/2000/svg">
<path d="M4.445 20C3.517 20 2.78633 19.8613 2.253 19.584C1.71967 19.296 1.33567 18.8587 1.101 18.272C0.877 17.6747 0.765 16.9227 0.765 16.016C0.765 15.0987 0.877 14.3413 1.101 13.744C1.33567 13.1467 1.71967 12.704 2.253 12.416C2.78633 12.128 3.517 11.984 4.445 11.984H7.837V19.264H6.349V12.8L6.957 13.328H4.445C3.87967 13.328 3.437 13.3973 3.117 13.536C2.797 13.664 2.573 13.9253 2.445 14.32C2.317 14.704 2.253 15.2693 2.253 16.016C2.253 16.752 2.317 17.312 2.445 17.696C2.573 18.0693 2.79167 18.3253 3.101 18.464C3.421 18.6027 3.869 18.672 4.445 18.672H9.549V20H4.445ZM9.549 20V18.672C9.613 18.672 9.66633 18.688 9.709 18.72C9.75167 18.752 9.78367 18.7947 9.805 18.848C9.82633 18.9013 9.84233 18.9707 9.853 19.056C9.86367 19.1307 9.869 19.2213 9.869 19.328C9.869 19.424 9.86367 19.5147 9.853 19.6C9.84233 19.6853 9.82633 19.76 9.805 19.824C9.78367 19.8773 9.75167 19.92 9.709 19.952C9.66633 19.984 9.613 20 9.549 20ZM2.653 10.544V8.992H4.125V10.544H2.653ZM5.037 10.544V8.992H6.509V10.544H5.037ZM9.54688 20V18.672H12.2669L11.4989 19.28V11.984H12.9869V20H9.54688ZM9.54688 20C9.48287 20 9.42954 19.984 9.38687 19.952C9.34421 19.92 9.31221 19.8773 9.29087 19.824C9.26954 19.76 9.25354 19.6853 9.24287 19.6C9.23221 19.5147 9.22687 19.424 9.22687 19.328C9.22687 19.1893 9.23754 19.072 9.25887 18.976C9.26954 18.88 9.30154 18.8053 9.35487 18.752C9.39754 18.6987 9.46154 18.672 9.54688 18.672V20ZM10.1709 23.024V21.472H11.6429V23.024H10.1709ZM12.5549 23.024V21.472H14.0269V23.024H12.5549ZM14.89 20V18.672H20.81L19.674 19.68V16.4C19.674 15.6213 19.5833 15.008 19.402 14.56C19.2313 14.112 18.9487 13.7973 18.554 13.616C18.1593 13.424 17.626 13.328 16.954 13.328H15.658V11.984H16.954C17.8393 11.984 18.5967 12.128 19.226 12.416C19.8553 12.6933 20.3353 13.1573 20.666 13.808C20.9967 14.448 21.162 15.312 21.162 16.4V20H14.89ZM29.7589 20V18.672H31.4709V20H29.7589ZM25.8229 23.664C25.4389 23.664 25.0335 23.632 24.6069 23.568C24.1909 23.5147 23.7322 23.4347 23.2309 23.328L23.4549 22.128C24.0202 22.192 24.4895 22.24 24.8629 22.272C25.2362 22.304 25.5562 22.32 25.8229 22.32C26.6762 22.32 27.2949 22.16 27.6789 21.84C28.0735 21.52 28.2709 21.056 28.2709 20.448V12.928L28.8789 13.328H26.3669C25.8015 13.328 25.3589 13.3973 25.0389 13.536C24.7189 13.664 24.4949 13.9253 24.3669 14.32C24.2389 14.704 24.1749 15.2693 24.1749 16.016C24.1749 16.752 24.2389 17.312 24.3669 17.696C24.4949 18.0693 24.7135 18.3253 25.0229 18.464C25.3429 18.6027 25.7909 18.672 26.3669 18.672H28.2709V20H26.3669C25.4389 20 24.7082 19.8613 24.1749 19.584C23.6415 19.296 23.2575 18.8587 23.0229 18.272C22.7989 17.6747 22.6869 16.9227 22.6869 16.016C22.6869 15.0987 22.7989 14.3413 23.0229 13.744C23.2575 13.1467 23.6415 12.704 24.1749 12.416C24.7082 12.128 25.4389 11.984 26.3669 11.984H29.7589V20.432C29.7589 21.1147 29.5989 21.696 29.2789 22.176C28.9589 22.6667 28.5055 23.0347 27.9189 23.28C27.3322 23.536 26.6335 23.664 25.8229 23.664ZM31.4709 20V18.672C31.5349 18.672 31.5882 18.688 31.6309 18.72C31.6735 18.752 31.7055 18.7947 31.7269 18.848C31.7482 18.9013 31.7642 18.9707 31.7749 19.056C31.7855 19.1307 31.7909 19.2213 31.7909 19.328C31.7909 19.424 31.7855 19.5147 31.7749 19.6C31.7642 19.6853 31.7482 19.76 31.7269 19.824C31.7055 19.8773 31.6735 19.92 31.6309 19.952C31.5882 19.984 31.5349 20 31.4709 20ZM31.4688 20V18.672H33.9648C34.5514 18.672 35.1114 18.5707 35.6448 18.368C36.1888 18.1653 36.6901 17.8987 37.1488 17.568C37.6074 17.2373 38.0021 16.8693 38.3328 16.464C38.6741 16.0587 38.9408 15.648 39.1328 15.232C39.3248 14.816 39.4208 14.4213 39.4208 14.048V13.072L40.1888 14.272C39.5808 13.952 38.9781 13.7173 38.3808 13.568C37.7941 13.408 37.2234 13.328 36.6688 13.328C36.1248 13.328 35.5541 13.408 34.9568 13.568C34.3701 13.7173 33.7781 13.952 33.1808 14.272L33.9488 13.072V14.048C33.9488 14.4213 34.0448 14.816 34.2368 15.232C34.4288 15.648 34.6901 16.0587 35.0208 16.464C35.3514 16.8693 35.7461 17.2373 36.2048 17.568C36.6634 17.8987 37.1594 18.1653 37.6928 18.368C38.2368 18.5707 38.8021 18.672 39.3888 18.672H41.7888V20H39.5808C38.7488 20 37.9701 19.8667 37.2448 19.6C36.5194 19.3333 35.8634 18.9813 35.2768 18.544C34.6901 18.096 34.1834 17.6107 33.7568 17.088C33.3408 16.5547 33.0208 16.0267 32.7968 15.504C32.5728 14.9707 32.4608 14.4853 32.4608 14.048V13.104C32.9194 12.8587 33.3888 12.656 33.8688 12.496C34.3488 12.3253 34.8288 12.1973 35.3088 12.112C35.7888 12.0267 36.2421 11.984 36.6688 11.984C37.1168 11.984 37.5754 12.0267 38.0448 12.112C38.5141 12.1973 38.9888 12.3253 39.4688 12.496C39.9594 12.656 40.4341 12.8587 40.8928 13.104V14.048C40.8928 14.4853 40.7808 14.9707 40.5568 15.504C40.3328 16.0267 40.0074 16.5547 39.5808 17.088C39.1648 17.6107 38.6634 18.096 38.0768 18.544C37.4901 18.9813 36.8341 19.3333 36.1088 19.6C35.3834 19.8667 34.6048 20 33.7728 20H31.4688ZM31.4688 20C31.4047 20 31.3514 19.984 31.3087 19.952C31.2661 19.92 31.2341 19.8773 31.2127 19.824C31.1914 19.76 31.1754 19.6853 31.1647 19.6C31.1541 19.5147 31.1487 19.424 31.1487 19.328C31.1487 19.1893 31.1594 19.072 31.1807 18.976C31.1914 18.88 31.2234 18.8053 31.2767 18.752C31.3194 18.6987 31.3834 18.672 31.4688 18.672V20ZM41.7888 20V18.672C41.8528 18.672 41.9061 18.688 41.9488 18.72C41.9914 18.752 42.0234 18.7947 42.0448 18.848C42.0661 18.9013 42.0821 18.9707 42.0928 19.056C42.1034 19.1307 42.1088 19.2213 42.1088 19.328C42.1088 19.424 42.1034 19.5147 42.0928 19.6C42.0821 19.6853 42.0661 19.76 42.0448 19.824C42.0234 19.8773 41.9914 19.92 41.9488 19.952C41.9061 19.984 41.8528 20 41.7888 20ZM54.1973 20V18.672H55.9093V20H54.1973ZM41.7812 20C41.7172 20 41.6639 19.984 41.6212 19.952C41.5786 19.92 41.5466 19.8773 41.5252 19.824C41.5039 19.76 41.4879 19.6853 41.4772 19.6C41.4666 19.5147 41.4612 19.424 41.4612 19.328C41.4612 19.1893 41.4719 19.072 41.4932 18.976C41.5039 18.88 41.5359 18.8053 41.5892 18.752C41.6319 18.6987 41.6959 18.672 41.7812 18.672V20ZM50.4693 20C50.0853 20 49.7066 19.9307 49.3333 19.792C48.9706 19.6427 48.6239 19.4133 48.2933 19.104L49.2373 18.112C49.4719 18.304 49.6853 18.448 49.8773 18.544C50.0693 18.6293 50.2666 18.672 50.4693 18.672H53.3653L52.7093 19.312V15.568C52.7093 15.376 52.6879 15.1093 52.6453 14.768C52.6133 14.416 52.5599 14.0213 52.4853 13.584C52.4213 13.136 52.3413 12.6827 52.2453 12.224L53.7013 11.984C53.7759 12.368 53.8506 12.7893 53.9253 13.248C53.9999 13.7067 54.0639 14.144 54.1173 14.56C54.1706 14.976 54.1973 15.312 54.1973 15.568V20H50.4693ZM41.7812 20V18.672H44.1173L43.7493 19.04V13.6H45.2373V20H41.7812ZM45.2373 20V18.672H46.9013C47.2639 18.672 47.5359 18.6187 47.7173 18.512C47.8986 18.4053 48.0266 18.192 48.1013 17.872C48.1759 17.552 48.2133 17.0827 48.2133 16.464V12.8H49.7173V16.464C49.7173 17.328 49.6159 18.0213 49.4133 18.544C49.2213 19.0667 48.9226 19.44 48.5173 19.664C48.1119 19.888 47.5733 20 46.9013 20H45.2373ZM55.9093 20V18.672C55.9733 18.672 56.0266 18.688 56.0693 18.72C56.1119 18.752 56.1439 18.7947 56.1653 18.848C56.1866 18.9013 56.2026 18.9707 56.2133 19.056C56.2239 19.1307 56.2293 19.2213 56.2293 19.328C56.2293 19.424 56.2239 19.5147 56.2133 19.6C56.2026 19.6853 56.1866 19.76 56.1653 19.824C56.1439 19.8773 56.1119 19.92 56.0693 19.952C56.0266 19.984 55.9733 20 55.9093 20ZM57.8103 20V8.576H59.2983V20H57.8103ZM55.9062 20V18.672H57.8103V20H55.9062ZM55.9062 20C55.8422 20 55.7889 19.984 55.7462 19.952C55.7036 19.92 55.6716 19.8773 55.6502 19.824C55.6289 19.76 55.6129 19.6853 55.6022 19.6C55.5916 19.5147 55.5862 19.424 55.5862 19.328C55.5862 19.1893 55.5969 19.072 55.6182 18.976C55.6289 18.88 55.6609 18.8053 55.7142 18.752C55.7569 18.6987 55.8209 18.672 55.9062 18.672V20ZM62.004 20V8.576H63.492V20H62.004Z" fill="#61605D"/>
<path d="M84 16.5C86.206 16.5 88 14.706 88 12.5C88 10.294 86.206 8.5 84 8.5C81.794 8.5 80 10.294 80 12.5C80 14.706 81.794 16.5 84 16.5ZM84 10.5C85.103 10.5 86 11.397 86 12.5C86 13.603 85.103 14.5 84 14.5C82.897 14.5 82 13.603 82 12.5C82 11.397 82.897 10.5 84 10.5Z" fill="#61605D"/>
<path d="M83.42 24.314C83.5894 24.4346 83.7921 24.4994 84 24.4994C84.2079 24.4994 84.4106 24.4346 84.58 24.314C84.884 24.099 92.029 18.94 92 12.5C92 8.089 88.411 4.5 84 4.5C79.589 4.5 76 8.089 76 12.495C75.971 18.94 83.116 24.099 83.42 24.314ZM84 6.5C87.309 6.5 90 9.191 90 12.505C90.021 16.943 85.612 20.928 84 22.235C82.389 20.927 77.979 16.941 78 12.5C78 9.191 80.691 6.5 84 6.5Z" fill="#61605D"/>
</svg>
