<svg width="531" height="473" viewBox="0 0 531 473" fill="none" xmlns="http://www.w3.org/2000/svg">
<path d="M132.914 433.4C142.581 438.374 150.516 444.142 157.955 452.124C157.81 454.775 157.714 457.438 157.468 460.081C160.649 459.883 176.614 459.189 178.442 460.615C178.52 460.675 178.578 460.758 178.646 460.83C178.771 460.884 178.895 460.94 179.021 460.993C179.463 461.181 179.892 461.282 180.356 461.4C182.542 461.955 185.254 463.38 186.463 465.357C187.451 466.972 187.922 468.878 188.349 470.702C190.995 470.674 193.731 470.499 196.364 470.775C196.575 466.881 197.384 463.031 197.673 459.134C203.669 458.483 213.537 458.802 219.806 459.117C224.164 459.633 229.57 459.701 232.465 463.525C234.065 465.638 234.571 468.233 234.998 470.786L297.191 470.735C300.359 470.502 303.654 470.672 306.836 470.687C306.958 467.77 307.135 465.407 309.064 463.018C312.477 458.791 319.163 457.627 324.243 457.131C331.661 457.179 339.078 457.181 346.496 457.135L346.524 460.529C347.953 459.894 349.382 459.248 350.894 458.836C352.32 458.448 357.044 457.834 357.918 457.126C358.837 457.519 377.131 457.534 378.726 457.177C379.24 457.061 379.162 456.968 379.42 456.547C378.752 461.153 378.877 466.05 378.873 470.704C383.652 470.717 388.498 470.555 393.268 470.765C421.218 471.088 449.207 470.804 477.161 470.689C479.149 470.666 486.098 470.248 487.56 471.345L487.287 471.765C483.683 472.264 479.876 472.103 476.237 472.148C469.837 472.245 463.437 472.283 457.036 472.261L398.725 472.26L187.651 472.353L92.8921 472.325L60.3707 472.3C55.0436 472.284 49.5729 472.526 44.264 472.19C43.7362 472.156 43.2094 472.091 42.7833 471.747C42.7158 471.693 42.6639 471.622 42.6036 471.559C43.1608 470.962 44.2938 470.993 45.0831 470.961C51.1006 470.723 57.1998 470.939 63.2288 470.913L65.338 470.649C66.3025 469.693 66.1439 460.21 66.2666 458.186L91.7181 458.205C91.8712 459.502 91.9535 460.69 93.0595 461.569C96.0652 463.959 100.374 462.09 103.188 465.608C104.534 467.291 105.182 469.365 106.298 471.176L107.048 470.757C107.257 466.511 107.446 462.277 107.471 458.026C115.928 458.426 124.473 458.115 132.948 458.246C132.928 454.097 132.759 449.936 132.947 445.79C132.882 441.66 132.871 437.53 132.914 433.4Z" fill="#153970"/>
<path d="M157.468 460.082C160.649 459.884 176.614 459.19 178.441 460.615C178.519 460.676 178.577 460.759 178.645 460.83C178.771 460.885 178.895 460.941 179.021 460.994C179.463 461.181 179.892 461.283 180.356 461.401C182.542 461.956 185.254 463.381 186.463 465.358C187.451 466.973 187.922 468.879 188.349 470.703C190.995 470.675 193.731 470.5 196.364 470.776C191.675 471.384 186.542 470.862 181.804 470.865L150.671 470.937C150.91 469.528 151.177 468.009 151.678 466.668C152.771 463.747 154.575 461.386 157.468 460.082Z" fill="#94C1A8"/>
<path d="M197.673 459.135C203.668 458.484 213.537 458.803 219.806 459.118C224.164 459.634 229.57 459.702 232.464 463.525C234.065 465.639 234.571 468.234 234.998 470.787L196.364 470.776C196.574 466.881 197.384 463.032 197.673 459.135Z" fill="#94C1A8"/>
<path d="M66.2664 458.186L91.7179 458.204C91.871 459.502 91.9534 460.69 93.0593 461.569C96.065 463.959 100.373 462.09 103.187 465.607C104.534 467.291 105.182 469.364 106.297 471.176C102.967 470.249 96.5514 470.837 92.9112 470.849C83.0275 470.882 73.1085 471.105 63.2286 470.913L65.3378 470.648C66.3023 469.693 66.1437 460.21 66.2664 458.186Z" fill="#94C1A8"/>
<path d="M132.947 445.787C133.217 450.139 133.309 454.737 133.109 459.092C133.215 459.14 133.32 459.19 133.426 459.237C138.477 461.485 144.709 460.074 147.197 466.408C147.759 467.837 147.952 469.412 148.148 470.927C134.458 470.561 120.741 471.068 107.047 470.755C107.257 466.509 107.446 462.275 107.47 458.023C115.928 458.423 124.473 458.112 132.948 458.244C132.927 454.094 132.759 449.934 132.947 445.787Z" fill="#94C1A8"/>
<path d="M132.914 433.4C142.581 438.374 150.515 444.142 157.955 452.124C157.81 454.775 157.714 457.438 157.467 460.081C154.575 461.385 152.771 463.746 151.678 466.667C151.177 468.008 150.91 469.527 150.671 470.936L148.148 470.93C147.952 469.414 147.759 467.84 147.197 466.411C144.709 460.077 138.477 461.487 133.426 459.24C133.32 459.192 133.215 459.143 133.109 459.094C133.309 454.739 133.217 450.141 132.947 445.79C132.882 441.66 132.87 437.53 132.914 433.4Z" fill="#FEFEFE"/>
<path d="M357.918 457.126C358.837 457.519 377.131 457.534 378.726 457.177C379.24 457.061 379.162 456.969 379.42 456.547C378.752 461.153 378.877 466.05 378.873 470.705C362.478 470.878 346.082 470.949 329.686 470.919C318.893 470.942 307.969 471.28 297.191 470.735C300.359 470.502 303.654 470.672 306.835 470.688C306.957 467.77 307.134 465.407 309.063 463.019C312.476 458.791 319.163 457.627 324.243 457.131C331.66 457.179 339.078 457.181 346.496 457.136L346.524 460.53C347.953 459.895 349.381 459.248 350.894 458.837C352.32 458.449 357.044 457.834 357.918 457.126Z" fill="#F16F6E"/>
<path d="M72.281 325.943L72.5729 326.53C74.7235 327.105 84.1014 326.655 87.1906 326.658L131.822 326.695C131.789 330.686 131.632 334.716 131.737 338.704C131.64 339.442 131.559 339.986 131.791 340.716C131.144 343.803 131.677 347.934 131.716 351.146C131.782 358.811 131.889 366.476 132.037 374.139C132.126 387.52 132.288 400.9 132.525 414.28C132.622 420.041 132.318 426.121 132.854 431.835C132.711 432.48 132.69 432.774 132.914 433.399C132.87 437.529 132.882 441.659 132.947 445.788C132.759 449.935 132.927 454.096 132.948 458.245C124.473 458.113 115.928 458.425 107.47 458.024C107.446 462.276 107.257 466.51 107.047 470.756L106.297 471.175C105.182 469.363 104.534 467.29 103.187 465.607C100.373 462.089 96.065 463.958 93.0593 461.568C91.9533 460.689 91.871 459.501 91.7179 458.204L66.2664 458.185C66.5068 445.766 67.3165 433.317 67.7753 420.9C67.9488 416.199 68.5408 411.187 68.2622 406.512C68.4529 406.027 68.4645 405.621 68.5076 405.106C68.6917 389.462 69.8192 373.688 70.4913 358.045C70.7483 352.061 71.5957 345.827 71.2823 339.859C71.4249 339.355 71.3436 338.953 71.2972 338.438C71.945 334.341 71.4978 330.044 72.281 325.943Z" fill="#737373"/>
<path d="M96.6935 417.412C97.6862 406.659 99.2614 395.982 100.529 385.263C101.023 381.081 101.211 374.238 102.216 370.557L102.334 370.566L104.092 401.607C104.464 407.761 105.408 414.489 104.982 420.618C102.192 419.602 99.4305 418.564 96.6935 417.412Z" fill="#FEFEFE"/>
<path d="M96.6933 417.412C99.4304 418.564 102.192 419.603 104.982 420.618C105.022 421.092 105.063 421.525 105.029 422.001C106.119 433.91 107.069 446.069 107.47 458.024C107.446 462.276 107.257 466.51 107.047 470.756L106.297 471.174C105.181 469.363 104.534 467.29 103.187 465.606C100.373 462.089 96.0649 463.958 93.0592 461.568C91.9532 460.689 91.8709 459.501 91.7178 458.203C92.5529 450.336 93.5616 442.467 94.5051 434.611C95.1308 429.402 95.5359 423.95 96.653 418.831L96.6933 417.412Z" fill="#FEFEFE"/>
<path d="M96.6935 417.412C99.4306 418.564 102.193 419.603 104.982 420.618C105.022 421.092 105.063 421.525 105.029 422.001C102.176 421.055 99.4267 419.984 96.6532 418.831L96.6935 417.412Z" fill="#153970"/>
<path d="M131.791 340.715C139.272 336.424 145.89 330.606 151.89 324.443C155.766 330.235 157.303 339.1 163.827 342.653C169.401 344.898 178.326 343.06 184.348 343.064C188.212 343.067 192.075 343.441 195.939 343.315L217.631 343.283C237.054 342.811 256.593 342.938 276.021 343.184C280.973 343.821 305.324 344.216 309.516 343.367L309.752 343.111C314.59 343.782 320.371 342.781 325.52 343.265C324.124 347.198 323.259 350.933 323.591 355.137C324.28 357.948 325.061 360.588 326.279 363.217L322.572 380C321.497 384.813 320.259 389.608 319.836 394.536C319.445 399.083 319.96 403.66 320.304 408.195L321.569 424.563L323.264 445.255C323.574 449.207 323.705 453.202 324.242 457.129C319.162 457.626 312.476 458.79 309.063 463.017C307.134 465.405 306.957 467.768 306.835 470.686C303.654 470.67 300.359 470.5 297.191 470.733L234.997 470.785C234.571 468.232 234.065 465.637 232.464 463.523C229.57 459.7 224.164 459.632 219.806 459.116C213.537 458.801 203.668 458.482 197.672 459.133C197.383 463.029 196.574 466.879 196.364 470.774C193.731 470.498 190.995 470.672 188.349 470.701C187.922 468.877 187.451 466.97 186.463 465.355C185.253 463.378 182.542 461.954 180.356 461.398C179.892 461.281 179.463 461.179 179.02 460.992C178.895 460.939 178.771 460.882 178.645 460.828C178.577 460.756 178.519 460.674 178.441 460.613C176.614 459.188 160.649 459.881 157.467 460.08C157.714 457.437 157.81 454.773 157.955 452.122C150.515 444.141 142.58 438.373 132.913 433.399C132.69 432.774 132.711 432.48 132.854 431.835C132.318 426.121 132.622 420.041 132.525 414.279C132.288 400.9 132.125 387.52 132.037 374.139C131.889 366.475 131.782 358.811 131.716 351.146C131.677 347.934 131.144 343.803 131.791 340.715Z" fill="#FEFEFE"/>
<path d="M249.703 391.994C254.298 391.7 258.839 392.484 262.734 395.068C266.672 397.682 269.365 402.167 270.247 406.773C271.159 411.529 270.258 416.572 267.443 420.555C264.44 424.805 259.942 427.111 254.926 428.057C250.112 428.466 245.885 427.795 241.865 424.974C241.619 424.801 241.377 424.622 241.139 424.438C240.902 424.253 240.669 424.062 240.441 423.865C240.213 423.669 239.99 423.467 239.771 423.259C239.553 423.052 239.341 422.839 239.133 422.621C238.926 422.403 238.724 422.18 238.527 421.952C238.33 421.724 238.14 421.491 237.954 421.253C237.769 421.016 237.59 420.774 237.417 420.528C237.244 420.282 237.077 420.031 236.916 419.776C236.756 419.522 236.601 419.264 236.453 419.002C236.305 418.74 236.164 418.474 236.029 418.205C235.894 417.936 235.766 417.663 235.644 417.388C235.523 417.112 235.409 416.834 235.301 416.552C235.193 416.271 235.092 415.988 234.999 415.702C234.905 415.416 234.819 415.127 234.74 414.837C234.66 414.546 234.588 414.254 234.523 413.96C234.458 413.666 234.4 413.371 234.35 413.074C233.539 408.362 234.786 403.203 237.575 399.328C240.592 395.136 244.644 392.798 249.703 391.994Z" fill="#F16F6E"/>
<path d="M163.827 342.652C169.401 344.898 178.326 343.06 184.348 343.064C188.212 343.066 192.075 343.441 195.94 343.314L217.631 343.282C237.054 342.811 256.594 342.938 276.021 343.184C280.973 343.82 305.324 344.216 309.517 343.367L309.753 343.111C314.591 343.782 320.372 342.781 325.521 343.265C324.125 347.197 323.26 350.933 323.591 355.137L219.412 354.976C207.29 354.444 194.947 354.946 182.809 354.968L169.552 354.937C166.99 354.929 164.243 354.75 161.706 355.065C153.704 355.448 145.532 355.147 137.511 355.163C137.379 351.107 137.298 347.051 137.267 342.994C141.118 343.03 161.75 343.507 163.827 342.652Z" fill="#F16F6E"/>
<path d="M131.791 340.715C139.272 336.424 145.89 330.606 151.89 324.443C155.766 330.235 157.303 339.1 163.827 342.653C161.75 343.508 141.118 343.03 137.267 342.995C137.298 347.052 137.379 351.108 137.51 355.163C145.531 355.147 153.704 355.448 161.706 355.066C164.242 354.75 166.99 354.929 169.551 354.937L182.808 354.968C194.946 354.946 207.29 354.444 219.412 354.976C219.354 361.705 220.935 368.858 221.634 375.578C222.769 386.471 223.39 397.33 224.002 408.257L218.866 408.384C219.471 425.262 218.828 442.261 219.806 459.116C213.537 458.801 203.668 458.482 197.672 459.133C197.383 463.029 196.574 466.879 196.364 470.774C193.731 470.498 190.995 470.672 188.349 470.701C187.922 468.877 187.451 466.97 186.463 465.355C185.253 463.378 182.542 461.954 180.356 461.398C179.892 461.281 179.463 461.179 179.02 460.992C178.895 460.939 178.771 460.882 178.645 460.828C178.577 460.756 178.519 460.674 178.441 460.613C176.614 459.188 160.649 459.881 157.467 460.08C157.714 457.437 157.81 454.773 157.955 452.122C150.515 444.141 142.58 438.373 132.913 433.399C132.69 432.774 132.711 432.48 132.854 431.835C132.318 426.121 132.622 420.041 132.525 414.279C132.288 400.9 132.125 387.52 132.037 374.139C131.889 366.475 131.782 358.811 131.716 351.146C131.677 347.934 131.144 343.803 131.791 340.715Z" fill="#737373"/>
<path d="M178.645 460.828C181.638 449.063 184.136 437.313 186.721 425.458C187.886 420.112 188.63 414.217 190.395 409.058C190.539 408.639 190.652 408.493 191.107 408.356C191.722 408.171 192.489 408.185 192.976 408.565C193.803 414.408 194.102 420.385 194.701 426.261C195.393 433.046 195.917 439.841 196.537 446.632C196.918 450.8 197.448 454.953 197.673 459.133C197.384 463.03 196.574 466.879 196.364 470.774C193.731 470.498 190.995 470.673 188.349 470.701C187.922 468.877 187.451 466.97 186.463 465.355C185.254 463.378 182.542 461.954 180.356 461.399C179.892 461.281 179.463 461.179 179.021 460.992C178.895 460.939 178.771 460.882 178.645 460.828Z" fill="#FEFEFE"/>
<path d="M131.791 340.715C139.272 336.424 145.89 330.606 151.89 324.443C155.766 330.235 157.303 339.1 163.827 342.653C161.75 343.508 141.118 343.03 137.267 342.995C137.298 347.052 137.379 351.108 137.51 355.163C145.531 355.147 153.704 355.448 161.706 355.066C160.472 364.193 159.578 373.334 158.468 382.473C157.432 390.995 156.176 399.495 155.384 408.044C157.639 408.047 159.907 408.001 162.155 408.194L159.478 439.762C159.218 442.631 159.284 447.87 158.257 450.433C158.312 451.158 158.342 451.493 157.955 452.122C150.515 444.141 142.58 438.373 132.913 433.399C132.69 432.774 132.711 432.48 132.854 431.835C132.318 426.121 132.622 420.041 132.525 414.279C132.288 400.9 132.125 387.52 132.037 374.139C131.889 366.475 131.782 358.811 131.716 351.146C131.677 347.934 131.144 343.803 131.791 340.715Z" fill="#FEFEFE"/>
<path d="M132.854 431.836C142.534 436.715 150.884 442.44 158.257 450.434C158.313 451.16 158.342 451.494 157.955 452.123C150.515 444.142 142.581 438.374 132.914 433.4C132.69 432.775 132.711 432.481 132.854 431.836Z" fill="#153970"/>
<path d="M68.2621 406.512C38.7404 388.411 12.0993 360.987 3.824 326.444C-5.01013 289.568 1.67216 234.798 21.6943 202.387C22.4753 201.114 23.2945 199.867 24.1521 198.645C25.0097 197.422 25.904 196.228 26.8349 195.06C27.7659 193.893 28.7318 192.755 29.7327 191.647C30.7335 190.539 31.7674 189.463 32.8344 188.418C33.9014 187.374 34.9994 186.363 36.1284 185.386C37.2573 184.409 38.4152 183.467 39.6021 182.562C40.789 181.656 42.0025 180.787 43.2428 179.956C44.4831 179.124 45.7478 178.331 47.0367 177.578C68.5656 165.187 93.7109 163.944 108.201 140.762C128.707 107.955 95.6327 59.465 120.489 22.2522C127.531 11.7108 139.063 5.11885 151.245 2.27098C175.721 -3.45136 206.885 2.09532 228.949 13.8094C240.941 20.1767 252.778 28.2613 266.562 29.9549C280.258 31.6379 298.489 30.5728 311.633 26.3954C318.763 24.1298 325.565 20.8676 332.694 18.5495C364.762 8.12132 391.267 15.8302 418.987 33.1883C430.833 40.6068 441.686 49.3829 451.901 58.8935C487.492 92.03 514.066 135.253 524.856 182.877C537.653 239.369 529.676 282.414 508.196 335.187C500.925 353.053 492.549 371.334 482.243 387.668C479.47 392.062 476.445 396.335 473.848 400.834C474.031 413.093 474.864 425.366 475.469 437.614C475.751 443.324 475.599 451.485 476.732 456.88C477.383 461.507 476.942 466.053 477.161 470.688C449.206 470.802 421.218 471.086 393.268 470.763C388.498 470.553 383.651 470.715 378.873 470.703C378.877 466.048 378.752 461.151 379.42 456.545C379.162 456.966 379.24 457.059 378.726 457.175C377.131 457.532 358.837 457.517 357.918 457.124C357.044 457.832 352.32 458.447 350.894 458.835C349.381 459.246 347.953 459.892 346.524 460.528L346.496 457.133C339.078 457.179 331.66 457.177 324.243 457.129C323.705 453.201 323.574 449.207 323.264 445.254L321.569 424.562L320.304 408.195C319.96 403.66 319.445 399.083 319.836 394.536C320.259 389.608 321.497 384.812 322.572 379.999L326.279 363.217C325.061 360.587 324.28 357.948 323.591 355.137C323.259 350.933 324.124 347.197 325.52 343.265C320.371 342.781 314.59 343.782 309.753 343.111L309.517 343.367C305.324 344.216 280.973 343.82 276.021 343.184C256.593 342.938 237.054 342.811 217.631 343.282L195.939 343.314C192.075 343.441 188.212 343.066 184.348 343.064C178.326 343.06 169.401 344.898 163.827 342.652C157.303 339.1 155.766 330.234 151.89 324.443C145.89 330.606 139.272 336.424 131.791 340.715C131.559 339.985 131.639 339.441 131.737 338.703C131.632 334.715 131.789 330.685 131.822 326.694L87.1905 326.657C84.1013 326.654 74.7234 327.104 72.5728 326.529L72.2809 325.943C71.4977 330.043 71.9449 334.341 71.2971 338.437C71.3435 338.952 71.4248 339.354 71.2822 339.858C71.5956 345.827 70.7483 352.06 70.4912 358.044C69.8191 373.687 68.6916 389.461 68.5075 405.105C68.4644 405.62 68.4528 406.026 68.2621 406.512Z" fill="#FEFEFE"/>
<path d="M258.648 236.558C265.68 236.541 272.802 236.299 279.825 236.622C279.283 239.485 278.438 241.979 276.589 244.305C273.994 247.57 269.973 249.646 265.831 250.025C261.774 250.397 257.551 248.957 254.497 246.278C251.648 243.779 250.02 240.346 249.721 236.594C252.313 236.609 254.946 236.523 257.532 236.662L258.648 236.558Z" fill="#153970"/>
<path d="M449.026 251.596C455.737 245.982 460.099 241.63 469.512 242.495C469.854 242.527 470.195 242.568 470.536 242.617C470.876 242.666 471.214 242.723 471.552 242.789C471.889 242.855 472.225 242.929 472.558 243.011C472.892 243.093 473.223 243.183 473.552 243.282C473.882 243.38 474.208 243.487 474.532 243.601C474.856 243.716 475.177 243.838 475.496 243.969C475.814 244.099 476.128 244.237 476.439 244.383C476.751 244.528 477.058 244.681 477.362 244.843C477.665 245.003 477.965 245.171 478.26 245.347C478.556 245.523 478.847 245.705 479.133 245.895C479.42 246.085 479.702 246.282 479.978 246.485C480.255 246.689 480.527 246.899 480.793 247.116C481.059 247.333 481.32 247.557 481.576 247.787C481.832 248.017 482.081 248.253 482.325 248.495C482.569 248.737 482.807 248.985 483.039 249.238C483.27 249.492 483.496 249.752 483.715 250.017C487.217 254.241 488.716 260.106 488.16 265.533C487.716 269.865 485.828 271.501 484.685 275.14C471.045 259.845 469.962 255.54 449.026 251.596Z" fill="#153970"/>
<path d="M52.6611 188.072C57.9026 187.714 63.4701 189.057 67.8045 192.056C68.1254 192.278 68.4407 192.508 68.7502 192.745C69.0597 192.983 69.3631 193.228 69.6605 193.48C69.9579 193.733 70.2488 193.992 70.5332 194.259C70.8177 194.526 71.0954 194.8 71.3662 195.08C71.6374 195.361 71.9012 195.648 72.1577 195.942C72.4145 196.236 72.6638 196.536 72.9055 196.842C73.1472 197.148 73.3814 197.46 73.608 197.778C73.8343 198.095 74.0526 198.418 74.263 198.746C74.4734 199.075 74.6755 199.409 74.8693 199.747C75.0631 200.086 75.2485 200.429 75.4253 200.777C75.6022 201.124 75.7702 201.476 75.9294 201.832C76.089 202.188 76.2395 202.548 76.381 202.912C76.5225 203.275 76.6549 203.642 76.7784 204.012C76.9018 204.382 77.0159 204.755 77.1205 205.131C77.2255 205.506 77.3212 205.884 77.4074 206.265C77.4936 206.645 77.5702 207.028 77.6373 207.412C77.6985 207.796 77.7503 208.181 77.7926 208.567C77.8346 208.953 77.8672 209.34 77.8905 209.728C77.9137 210.116 77.9271 210.504 77.9308 210.892C77.9349 211.281 77.9293 211.67 77.9142 212.058C77.8991 212.446 77.8744 212.834 77.8402 213.22C77.8059 213.608 77.762 213.994 77.7086 214.378C77.6555 214.763 77.5929 215.147 77.5207 215.529C77.4485 215.91 77.3669 216.29 77.2758 216.668C77.1852 217.045 77.0851 217.421 76.9757 217.794C76.8663 218.167 76.7476 218.536 76.6198 218.903C76.4923 219.27 76.3557 219.634 76.2102 219.994C76.0646 220.354 75.9103 220.711 75.747 221.063C75.5838 221.416 75.4121 221.765 75.2319 222.109C75.0517 222.453 74.863 222.792 74.6659 223.127C74.4688 223.462 74.2635 223.792 74.0502 224.117C73.8372 224.441 73.6161 224.761 73.3869 225.075C69.3786 230.592 63.5591 233.343 56.9629 234.356C50.8996 234.951 45.0817 233.514 40.2758 229.667C35.1799 225.586 31.6828 219.448 31.0382 212.919C30.4634 207.096 32.4485 200.973 36.1757 196.488C40.3488 191.467 46.2352 188.686 52.6611 188.072Z" fill="#153970"/>
<path d="M51.5287 189.404C56.9365 188.835 62.1304 189.771 66.7036 192.79C67.0113 192.994 67.314 193.205 67.6117 193.423C67.9091 193.642 68.2009 193.867 68.4872 194.1C68.7735 194.333 69.0537 194.572 69.3279 194.819C69.6024 195.066 69.8706 195.319 70.1326 195.579C70.3946 195.839 70.65 196.105 70.8987 196.378C71.1474 196.651 71.3891 196.929 71.6239 197.214C71.859 197.498 72.0869 197.788 72.3076 198.084C72.5283 198.38 72.7415 198.681 72.9471 198.987C73.1527 199.294 73.3507 199.605 73.5412 199.921C73.7314 200.237 73.9138 200.558 74.0884 200.883C74.2631 201.208 74.4295 201.537 74.5875 201.871C74.7456 202.204 74.8956 202.541 75.0375 202.882C75.1789 203.223 75.312 203.567 75.4365 203.914C75.5611 204.261 75.6769 204.612 75.7842 204.965C75.8914 205.318 75.99 205.673 76.0799 206.031C76.1694 206.389 76.2501 206.749 76.322 207.111C77.4705 212.884 76.1114 218.781 72.7951 223.619C69.0797 229.038 63.8317 231.787 57.5108 232.987C52.1633 233.358 47.5005 232.904 42.9036 229.91C42.5782 229.699 42.2582 229.481 41.9435 229.254C41.6288 229.027 41.3201 228.792 41.0172 228.55C40.7143 228.308 40.4176 228.058 40.1273 227.802C39.8366 227.545 39.5526 227.281 39.2756 227.01C38.9981 226.739 38.7276 226.461 38.4642 226.176C38.2003 225.892 37.9439 225.601 37.6948 225.304C37.4458 225.007 37.2044 224.703 36.9704 224.394C36.7364 224.085 36.5103 223.77 36.2919 223.449C36.0736 223.129 35.8633 222.803 35.6612 222.472C35.4591 222.141 35.2653 221.805 35.0799 221.465C34.8945 221.124 34.7177 220.779 34.5494 220.43C34.3812 220.08 34.2217 219.727 34.071 219.369C33.9203 219.012 33.7786 218.651 33.6459 218.287C33.5132 217.922 33.3896 217.555 33.2752 217.185C33.1607 216.814 33.0556 216.441 32.9597 216.065C32.8638 215.689 32.7773 215.311 32.7003 214.931C32.6359 214.594 32.5797 214.256 32.5318 213.917C32.4839 213.577 32.4442 213.237 32.4128 212.896C32.3814 212.555 32.3584 212.213 32.3436 211.87C32.3288 211.528 32.3224 211.185 32.3243 210.843C32.3262 210.5 32.3364 210.157 32.355 209.815C32.3735 209.473 32.4004 209.131 32.4355 208.79C32.4707 208.45 32.5141 208.11 32.5658 207.771C32.6175 207.432 32.6774 207.094 32.7455 206.759C32.8136 206.423 32.8898 206.089 32.9741 205.757C33.0585 205.424 33.1508 205.094 33.2512 204.767C33.3516 204.439 33.4599 204.113 33.5761 203.791C33.6923 203.469 33.8163 203.149 33.948 202.833C34.0797 202.517 34.219 202.203 34.366 201.894C34.5129 201.584 34.6673 201.278 34.8292 200.976C34.991 200.674 35.1601 200.376 35.3364 200.082C35.5127 199.788 35.6961 199.498 35.8865 199.213C39.563 193.779 45.1985 190.655 51.5287 189.404Z" fill="#FEFEFE"/>
<path d="M249.721 236.593C249.651 232.96 249.58 229.607 247.953 226.268C245.61 221.46 241.068 218.184 238.009 213.864C229.436 201.754 231.859 185.766 241.907 175.347C247.983 169.045 255.877 165.828 264.596 165.712C265.114 165.703 265.632 165.707 266.15 165.724C266.669 165.741 267.186 165.77 267.703 165.813C268.22 165.855 268.735 165.91 269.249 165.978C269.763 166.046 270.275 166.127 270.785 166.22C271.296 166.313 271.803 166.419 272.308 166.537C272.813 166.656 273.314 166.786 273.813 166.929C274.311 167.072 274.806 167.228 275.297 167.395C275.787 167.563 276.273 167.742 276.755 167.934C277.237 168.126 277.714 168.329 278.186 168.544C278.657 168.759 279.124 168.986 279.584 169.224C280.045 169.462 280.499 169.712 280.948 169.972C281.396 170.233 281.837 170.505 282.272 170.787C282.707 171.07 283.134 171.363 283.555 171.667C283.975 171.97 284.388 172.284 284.792 172.608C285.197 172.932 285.594 173.266 285.982 173.609C286.371 173.953 286.75 174.306 287.121 174.668C293.075 180.549 296.723 188.426 296.736 196.844C296.742 200.064 296.197 203.179 295.187 206.232C291.851 216.316 283.87 219.343 280.812 228.303C279.843 231.142 280.253 233.77 279.825 236.621C272.802 236.297 265.68 236.54 258.648 236.557L257.532 236.661C254.946 236.521 252.313 236.607 249.721 236.593Z" fill="#F16F6E"/>
<path d="M253.482 205.206C252.421 205.174 249.784 205.372 248.994 204.817C249.049 204.126 249.064 204.275 249.536 203.852C254.183 203.185 259.409 203.621 264.117 203.617C268.582 203.613 273.3 203.294 277.739 203.646C278.631 203.716 279.476 203.828 280.226 204.345L280.178 204.744C278.903 205.476 277.595 205.271 276.18 205.204C275.461 209.314 274.631 213.414 274.021 217.54C273.408 221.68 272.849 233.451 271.212 236.452L270.855 236.305C270.498 233.719 270.916 230.958 271.162 228.375C271.914 220.497 273.303 212.985 274.563 205.203L254.889 205.135C256.419 215.614 258.671 225.894 258.648 236.557L257.532 236.661C256.926 232.712 256.807 228.655 256.395 224.678C255.722 218.179 254.731 211.618 253.482 205.206Z" fill="#FEFEFE"/>
<path d="M364.108 45.1893C374.695 44.1402 385.299 46.6706 393.579 53.511C401.228 59.8297 406.595 69.5984 407.534 79.497C408.546 90.1561 405.876 100.619 398.982 108.914C392.858 116.283 383.314 122.116 373.65 122.981C373.005 123.062 372.358 123.126 371.711 123.175C371.063 123.224 370.414 123.256 369.765 123.272C369.115 123.289 368.465 123.289 367.816 123.274C367.166 123.258 366.518 123.226 365.87 123.179C365.222 123.131 364.575 123.067 363.931 122.988C363.286 122.908 362.643 122.812 362.003 122.701C361.363 122.589 360.726 122.462 360.092 122.319C359.458 122.176 358.828 122.018 358.202 121.843C357.576 121.669 356.955 121.48 356.339 121.275C355.722 121.07 355.111 120.85 354.505 120.615C353.899 120.38 353.3 120.13 352.707 119.865C352.113 119.6 351.527 119.321 350.947 119.027C350.368 118.734 349.796 118.426 349.232 118.104C348.667 117.782 348.111 117.446 347.564 117.096C347.016 116.746 346.477 116.383 345.947 116.007C345.418 115.631 344.897 115.242 344.387 114.84C343.882 114.445 343.387 114.037 342.901 113.618C342.416 113.199 341.942 112.768 341.477 112.326C341.013 111.883 340.559 111.43 340.117 110.966C339.675 110.501 339.244 110.026 338.825 109.541C338.405 109.056 337.998 108.561 337.603 108.056C337.208 107.551 336.825 107.036 336.455 106.513C336.084 105.989 335.727 105.457 335.382 104.916C335.038 104.375 334.706 103.826 334.388 103.269C334.071 102.712 333.767 102.148 333.476 101.576C333.186 101.004 332.909 100.425 332.647 99.8403C332.384 99.2551 332.136 98.6639 331.903 98.0666C331.669 97.4693 331.45 96.8668 331.246 96.2592C331.042 95.6512 330.852 95.0386 330.678 94.4214C330.503 93.8046 330.343 93.1837 330.198 92.5588C330.054 91.9339 329.925 91.3058 329.811 90.6746C329.697 90.0437 329.598 89.4103 329.515 88.7743C328.298 78.7928 331.437 67.8114 337.665 59.9242C338.062 59.412 338.472 58.9101 338.895 58.4186C339.317 57.9274 339.752 57.4469 340.199 56.9771C340.646 56.5076 341.104 56.0496 341.574 55.603C342.044 55.1564 342.524 54.722 343.016 54.2997C343.507 53.8774 344.009 53.4679 344.522 53.071C345.034 52.6738 345.556 52.2899 346.088 51.9192C346.62 51.5481 347.16 51.1909 347.71 50.8474C348.259 50.504 348.817 50.1744 349.383 49.8586C349.949 49.5432 350.523 49.2422 351.104 48.9555C351.686 48.6692 352.274 48.3974 352.869 48.1402C353.464 47.8834 354.065 47.6415 354.673 47.4145C355.28 47.1879 355.892 46.9766 356.51 46.7806C357.128 46.5845 357.75 46.4043 358.377 46.24C359.004 46.0753 359.634 45.9264 360.269 45.7934C360.903 45.6608 361.541 45.5439 362.181 45.443C362.821 45.3424 363.464 45.2578 364.108 45.1893Z" fill="#153970"/>
<path d="M364.176 46.2893C364.771 46.2186 365.367 46.1616 365.965 46.1185C366.563 46.0754 367.162 46.0465 367.761 46.0318C368.36 46.0166 368.959 46.0155 369.558 46.0284C370.157 46.0413 370.756 46.0682 371.354 46.1091C371.952 46.15 372.549 46.2048 373.144 46.2733C373.74 46.3422 374.333 46.4247 374.925 46.5209C375.516 46.6174 376.105 46.7276 376.692 46.8514C377.278 46.9756 377.861 47.1132 378.441 47.2643C379.021 47.4154 379.597 47.5799 380.169 47.7579C380.742 47.9362 381.309 48.1277 381.873 48.3322C382.436 48.5367 382.995 48.7543 383.548 48.9849C384.101 49.2156 384.649 49.459 385.19 49.7151C385.732 49.9712 386.268 50.24 386.797 50.5215C387.326 50.8026 387.849 51.0959 388.364 51.4014C388.88 51.7069 389.388 52.0243 389.889 52.3537C390.39 52.6832 390.882 53.024 391.367 53.3763C399.229 59.1455 404.746 68.5544 406.138 78.1971C407.598 88.3207 405.294 98.5708 399.144 106.79C392.764 115.316 383.384 120.422 372.943 121.894C363.355 122.347 354.824 120.755 346.849 115.105C338.627 109.28 332.607 100.325 330.945 90.3171C329.36 80.7695 331.978 69.7488 337.663 61.9279C344.149 53.0037 353.371 47.9773 364.176 46.2893Z" fill="#FEFEFE"/>
<path d="M440.667 119.473C443.554 118.071 453.968 118.346 457.025 119.313C458.676 119.836 459.692 121.426 460.598 122.81C460.686 125.523 460.185 137.578 461.245 138.922C462.951 139.408 464.362 140.115 465.902 140.98C465.998 140.928 466.095 140.877 466.19 140.824C470.564 138.4 474.773 130.987 480.348 132.659C481.48 132.998 482.462 133.636 483.358 134.395C484.462 135.331 491.651 143.053 491.997 143.749C492.155 144.066 492.29 144.391 492.421 144.72C493.014 146.828 493.121 148.245 492.002 150.189C490.124 153.452 486.561 155.913 484.019 158.677C484.938 160.587 485.711 162.477 486.344 164.502C489.644 164.481 498.616 163.63 500.92 165.791C502.591 167.36 503.222 169.791 503.258 172.015C503.323 176.011 503.767 184.825 500.881 187.762C499.333 189.338 496.18 189.192 494.115 189.131C491.737 189.062 489.356 188.893 486.981 188.752C485.849 191.535 484.751 194.339 483.562 197.098C486.56 200.118 492.197 204.658 492.036 209.308C491.901 213.206 485.229 218.684 482.338 221.249C481.916 221.616 481.479 221.964 481.027 222.293C478.22 222.701 476.196 222.874 473.762 221.107C470.861 219 468.983 214.933 465.618 213.531C463.245 214.438 460.92 215.431 458.59 216.445C457.955 219.402 457.498 221.856 455.549 224.27L454.546 223.246C454.501 223.22 454.456 223.195 454.412 223.167C451.16 221.112 443.919 218.627 440.054 218.684C439.094 218.812 438.144 218.951 437.176 218.989C435.767 217.031 434.177 215.232 432.407 213.592C428.109 216.076 423.805 222.611 418.659 222.683C414.889 222.736 412.065 220.141 409.61 217.604C407.267 215.181 404.612 212.072 404.777 208.486C404.941 204.914 407.952 202.325 410.329 200.025C411.779 198.6 413.063 197.201 414.213 195.519C413.321 193.354 412.635 191.128 411.479 189.079C407.651 187.668 403.438 186.812 399.482 185.791L399.467 189.585C399.35 186.541 399.406 183.512 399.469 180.468C399.512 176.718 399.729 172.833 399.402 169.099L399.544 168.097C403.624 167.451 407.553 166.769 411.447 165.351C412.36 163.248 413.405 161.238 414.483 159.216C413.81 157.158 409.202 153.472 407.558 151.662C406.042 149.994 404.461 148.056 404.667 145.66C405.051 141.186 411.737 136.087 415.011 133.287C416.54 132.245 418.259 131.804 420.1 132.191C424.205 133.053 428.615 138.427 432.215 140.931C433.219 140.199 434.28 139.331 435.524 139.077C436.177 138.677 436.527 138.577 436.777 137.809C437.915 134.322 435.648 127.803 436.986 123.446C437.585 121.499 438.894 120.37 440.667 119.473Z" fill="#FEFEFE"/>
<path d="M399.469 180.473L399.457 184.806C403.797 185.265 408.647 186.413 412.757 187.912C413.641 190.601 414.428 193.146 415.884 195.588L410.927 200.884C408.908 203.437 405.938 205.522 406.296 209.131C406.678 212.984 410.92 217.291 413.878 219.572C415.343 220.701 417.176 221.584 419.07 221.263C423.831 220.456 427.479 214.316 431.854 212.156C435.12 213.929 435.818 215.289 437.943 218.18C438.21 218.543 438.15 218.429 438.643 218.696L440.054 218.688C439.094 218.817 438.144 218.956 437.176 218.994C435.767 217.035 434.177 215.236 432.407 213.596C428.109 216.081 423.805 222.616 418.659 222.688C414.889 222.74 412.065 220.146 409.61 217.609C407.267 215.185 404.612 212.076 404.777 208.49C404.941 204.919 407.952 202.329 410.329 200.029C411.779 198.604 413.063 197.206 414.213 195.523C413.321 193.359 412.635 191.133 411.479 189.084C407.651 187.672 403.438 186.817 399.482 185.795L399.467 189.59C399.35 186.546 399.406 183.516 399.469 180.473Z" fill="#D1E1DC"/>
<path d="M440.667 119.473C443.554 118.071 453.968 118.346 457.025 119.313C458.676 119.836 459.692 121.426 460.598 122.81C460.686 125.523 460.185 137.578 461.245 138.922C462.951 139.408 464.362 140.115 465.902 140.98C465.998 140.928 466.095 140.877 466.19 140.824C470.564 138.4 474.773 130.987 480.348 132.659C481.48 132.998 482.462 133.636 483.358 134.395C484.462 135.331 491.651 143.053 491.997 143.749C492.155 144.066 492.29 144.391 492.421 144.72C493.014 146.828 493.121 148.245 492.002 150.189C490.123 153.452 486.561 155.913 484.019 158.677C484.938 160.587 485.711 162.477 486.344 164.502C489.644 164.481 498.616 163.63 500.92 165.791C502.591 167.36 503.222 169.791 503.258 172.015C503.323 176.011 503.767 184.825 500.88 187.762C499.333 189.338 496.18 189.192 494.115 189.131C491.737 189.062 489.356 188.893 486.981 188.752C485.849 191.535 484.751 194.339 483.562 197.098C486.56 200.118 492.197 204.658 492.036 209.308C491.901 213.206 485.229 218.684 482.338 221.249C481.916 221.616 481.479 221.964 481.027 222.293C478.22 222.701 476.196 222.874 473.762 221.107C470.861 219 468.983 214.933 465.618 213.531C463.245 214.438 460.92 215.431 458.59 216.445C457.955 219.402 457.498 221.856 455.549 224.27L454.546 223.246C454.624 223.208 454.705 223.177 454.778 223.131C456.562 222.005 457.098 216.991 457.524 214.973C459.447 214.483 465.731 211.966 466.471 211.888C468.979 214.304 474.366 221.315 477.751 221.519C479.541 221.627 481.386 220.356 482.684 219.273C485.452 216.965 490.528 212.763 490.677 208.966C490.821 205.32 484.333 199.676 481.977 197.24C483.484 194.043 484.52 190.627 485.883 187.363C490.2 187.702 494.584 188.015 498.907 187.619C500.036 186.651 500.933 185.743 501.742 184.488C502.272 180.627 502.18 176.503 502.11 172.61C502.077 170.706 501.989 168.539 500.46 167.175C497.647 164.664 488.998 165.902 485.234 166.016C484.653 163.31 483.593 160.823 482.503 158.29C484.405 156.203 486.472 154.277 488.441 152.255C490.399 150.246 491.855 148.767 491.813 145.829C491.779 145.749 491.747 145.668 491.713 145.588C490.615 143.058 482.507 135.076 479.898 134.099C474.632 132.124 471.404 139.993 467.008 141.787C465.045 142.589 462.794 140.941 461.016 140.151C456.988 137.72 461.95 125.842 458.344 121.898C455.653 118.955 446.88 120.102 443.043 119.872C441.392 120.231 440.064 120.562 439.063 122.026C436.797 125.336 437.579 134.951 437.978 139.024L435.307 140.366C434.275 141.184 433.052 141.814 431.92 142.485C426.759 139.08 424.105 133.945 417.674 133.257C416.529 133.757 415.561 134.395 414.538 135.097C412.519 137.261 405.965 143.132 405.957 145.769C405.946 148.975 412.771 155.152 415.052 157.503C415.541 158.237 415.835 158.407 415.593 159.346C414.952 161.836 413.359 164.188 412.635 166.758C408.292 167.808 403.808 168.362 399.402 169.099L399.544 168.097C403.624 167.451 407.553 166.769 411.447 165.351C412.36 163.248 413.405 161.238 414.483 159.216C413.81 157.158 409.202 153.472 407.557 151.662C406.042 149.994 404.461 148.056 404.667 145.66C405.051 141.186 411.737 136.087 415.011 133.287C416.54 132.245 418.259 131.804 420.1 132.191C424.205 133.053 428.615 138.427 432.215 140.931C433.219 140.199 434.28 139.331 435.524 139.077C436.177 138.677 436.527 138.577 436.777 137.809C437.915 134.322 435.648 127.803 436.986 123.446C437.585 121.499 438.894 120.37 440.667 119.473Z" fill="#D1E1DC"/>
<path d="M447.227 159.324C451.416 158.795 455.803 160.165 459.223 162.548C463.418 165.471 466.218 169.713 467.078 174.766C467.966 179.987 467.04 185.291 463.907 189.616C460.666 194.091 456.113 196.476 450.738 197.357C446.003 197.603 442.013 196.907 438.166 193.987C437.909 193.795 437.657 193.597 437.409 193.393C437.162 193.188 436.92 192.978 436.684 192.761C436.447 192.545 436.215 192.323 435.989 192.095C435.763 191.868 435.543 191.635 435.329 191.396C435.115 191.157 434.907 190.914 434.704 190.665C434.502 190.416 434.306 190.162 434.117 189.903C433.927 189.645 433.744 189.381 433.567 189.114C433.39 188.846 433.22 188.574 433.057 188.298C432.894 188.022 432.738 187.742 432.588 187.458C432.439 187.174 432.297 186.887 432.162 186.596C432.027 186.305 431.899 186.011 431.778 185.714C431.658 185.416 431.545 185.116 431.439 184.814C431.334 184.511 431.235 184.206 431.145 183.898C431.054 183.59 430.971 183.281 430.896 182.969C430.821 182.657 430.753 182.344 430.694 182.028C430.634 181.713 430.582 181.397 430.538 181.079C429.864 176.08 431.072 170.202 434.207 166.179C437.441 162.031 442.093 159.893 447.227 159.324Z" fill="#D1E1DC"/>
<path d="M447.525 160.699C451.273 160.564 454.582 161.123 457.827 163.147C458.077 163.3 458.324 163.46 458.566 163.626C458.809 163.792 459.047 163.964 459.28 164.142C459.514 164.32 459.743 164.504 459.967 164.694C460.191 164.883 460.41 165.079 460.625 165.28C460.839 165.48 461.048 165.686 461.252 165.898C461.456 166.109 461.654 166.326 461.847 166.548C462.039 166.77 462.226 166.996 462.407 167.227C462.588 167.459 462.764 167.694 462.933 167.935C463.102 168.175 463.265 168.419 463.421 168.668C463.578 168.916 463.728 169.168 463.872 169.424C464.015 169.68 464.153 169.94 464.284 170.203C464.414 170.466 464.538 170.733 464.654 171.002C464.771 171.272 464.881 171.544 464.984 171.819C465.088 172.094 465.184 172.372 465.272 172.652C465.361 172.931 465.443 173.213 465.517 173.498C465.592 173.782 465.659 174.068 465.719 174.355C466.741 179.097 466.187 184.229 463.416 188.303C460.425 192.701 455.692 194.991 450.607 195.958C446.438 196.169 442.656 195.327 439.209 192.915C435.346 190.21 432.399 185.879 431.68 181.185C430.95 176.414 432.497 170.713 435.439 166.895C438.408 163.042 442.865 161.335 447.525 160.699Z" fill="#FEFEFE"/>
<path d="M183.884 220.365C184.754 218.117 185.925 216.248 187.842 214.739C189.933 213.093 192.724 212.181 195.385 212.507C197.722 212.792 205.381 217.323 206.721 219.195C207.537 220.337 208.005 221.62 207.705 223.025C207.319 224.836 205.465 226.307 203.971 227.17C204.005 227.247 204.04 227.324 204.074 227.401C205.959 231.773 207.301 236.544 205.36 241.177C203.928 244.598 201.267 246.539 197.927 247.869C198.158 249.856 198.1 251.904 198.125 253.904C201.645 254.05 205.253 255.251 208.183 257.203C219.432 264.699 224.143 284.125 226.754 296.785C235.569 294.465 244.687 292.961 253.415 290.402C254.415 286.434 255.071 284.673 258.608 282.411C260.937 280.921 265.427 278.135 268.26 278.764C268.58 279.06 268.818 279.147 268.882 279.608C269.182 281.739 266.894 284.12 265.668 285.653C269.514 284.996 276.57 283.053 280.049 283.178C280.792 283.205 280.839 283.25 281.301 283.779C281.421 284.69 281.33 285.39 281.086 286.279C279.688 291.368 275.787 298.007 271.085 300.72C265.282 304.069 258.326 306.398 252.144 309.011C246.667 311.327 236.804 316.162 231.295 317.315C228.522 317.896 225.304 317.762 222.572 317.014C217.422 315.602 214.324 312.131 211.83 307.658C210.721 309.898 216.258 338.979 217.499 342.889C217.54 343.021 217.587 343.15 217.631 343.281L195.939 343.313C192.075 343.439 188.212 343.065 184.348 343.062C178.326 343.058 169.401 344.896 163.827 342.651C157.303 339.098 155.766 330.233 151.89 324.441C145.89 330.604 139.272 336.422 131.791 340.713C131.559 339.983 131.639 339.439 131.737 338.702C131.632 334.714 131.789 330.684 131.822 326.693L87.1905 326.656C84.1013 326.652 74.7234 327.102 72.5728 326.527L72.2809 325.941C71.4977 330.042 71.9449 334.339 71.2971 338.435C71.3435 338.951 71.4248 339.353 71.2822 339.856C66.0634 337.371 61.1995 333.688 56.7319 330.032C49.6903 324.27 44.3527 316.833 43.4827 307.555C42.7542 299.789 45.4808 291.942 50.4818 286.017C54.4696 281.294 58.8073 276.818 62.9356 272.214C72.5385 261.504 79.4342 252.956 94.7898 251.617L94.6842 245.887C91.0523 242.325 86.688 236.721 86.3962 231.427C86.2973 229.627 86.7759 228.176 88.0212 226.858C92.2832 222.349 100.281 221.906 106.076 221.828C108.544 221.795 110.999 221.856 112.866 223.667C113.325 226.062 112.743 228.652 112.696 231.073C112.646 233.657 113.311 243.729 112.087 245.4C110.637 247.381 107.64 247.722 106.438 250.005C106.449 250.48 106.427 251.065 106.902 251.367C107.668 251.855 113.426 252.598 114.825 252.983C117.809 253.806 120.447 254.885 123.166 256.382C135.146 262.977 144.115 274.269 151.935 285.22C152.293 282.821 153.011 280.528 153.897 278.274C157.48 269.15 164.628 258.281 174.41 254.963C177.179 254.024 180.402 254.416 183.074 253.257C184.159 251.947 183.743 246.831 183.766 245.037C182.198 245.156 180.569 245.307 178.998 245.219C176.047 245.054 173.289 243.936 171.364 241.641C169.765 239.733 169.061 237.371 169.286 234.9C169.916 227.982 172.996 229.793 174.789 227.59C176.224 225.827 175.236 222.94 177.276 221.346C179.072 219.943 181.76 220.103 183.884 220.365Z" fill="#5378B3"/>
<path d="M183.127 233.896C183.957 232.773 184.728 231.968 186.158 231.725C187.015 231.579 187.687 231.809 188.374 232.32C189.208 232.943 189.56 233.933 189.605 234.934C189.63 235.49 189.605 236.043 189.566 236.597C188.97 237.439 188.329 238.208 187.251 238.405C186.359 238.568 185.522 238.202 184.853 237.643C183.661 236.644 183.245 235.395 183.127 233.896Z" fill="#FEFEFE"/>
<path d="M71.0358 298.221L72.6636 298.277C73.5783 299.848 73.0157 305.449 72.8305 307.357L72.5276 307.564L70.8534 307.073C70.2471 306.707 69.6596 306.199 69.2075 305.653C69.1072 305.534 69.0136 305.41 68.9267 305.281C68.8397 305.152 68.7598 305.018 68.6868 304.881C68.6138 304.744 68.5482 304.603 68.49 304.459C68.4318 304.314 68.3813 304.167 68.3386 304.018C68.2962 303.868 68.2616 303.717 68.2347 303.563C68.2081 303.41 68.1897 303.256 68.1794 303.101C68.1691 302.946 68.1669 302.79 68.1728 302.635C68.1787 302.479 68.1929 302.324 68.2153 302.17C68.4784 300.342 69.6198 299.273 71.0358 298.221Z" fill="#FEFEFE"/>
<path d="M129.22 296.908C130.127 297.123 130.669 297.351 131.425 297.918C132.891 299.016 133.86 300.275 134.038 302.145C134.208 303.942 133.459 305.145 132.356 306.477C131.356 307.262 130.217 307.754 129.077 308.3C128.984 304.559 128.756 300.622 129.22 296.908Z" fill="#FEFEFE"/>
<path d="M131.823 326.693L132.059 323.541C136.269 325.246 139.389 328.158 143.285 330.365C139.955 333.481 136.024 336.973 131.737 338.702C131.632 334.714 131.789 330.684 131.823 326.693Z" fill="#FEFEFE"/>
<path d="M60.1721 330.609C63.7604 328.466 67.122 324.757 71.1137 323.493C71.7361 323.295 71.7963 323.2 72.4043 323.502L72.281 325.942C71.4978 330.042 71.945 334.34 71.2972 338.436C67.3304 336.01 63.6034 333.795 60.1721 330.609Z" fill="#FEFEFE"/>
<path d="M110.971 230.783C111.016 230.849 111.071 230.909 111.108 230.981C111.892 232.53 111.31 243.224 110.383 244.881C109.42 246.602 106.891 247.112 105.13 247.487C105.045 248.827 105.048 250.186 105.01 251.529C102.143 251.433 99.2659 251.52 96.3979 251.558L96.3774 246.325C98.6187 246.742 100.754 247 102.835 245.798C107.015 243.382 106.936 237.704 108.109 233.626L108.213 233.275L110.971 230.783Z" fill="#FEFEFE"/>
<path d="M189.566 236.595C191.844 232.934 193.795 228.183 198.507 227.256C199.682 227.025 200.909 227.025 202.101 227.054C204.238 230.651 205.514 234.602 204.519 238.812C203.951 241.212 202.586 243.766 200.394 245.043C198.513 246.139 196.955 246.214 194.863 245.825C194.263 245.769 194.302 245.676 193.761 246.029L194.302 246.661L194.154 246.696C194.905 247.251 195.542 247.606 196.415 247.935C196.637 250.134 196.706 252.266 196.463 254.467C195.32 256.032 194.093 257.358 192.085 257.658C190.095 257.955 188.142 256.964 186.616 255.775C186.014 255.306 185.458 254.748 184.907 254.221C185.348 250.943 185.141 247.35 185.046 244.043C187.862 241.939 188.986 240.498 189.516 236.941L189.566 236.595Z" fill="#FEFEFE"/>
<path d="M153.809 284.592C158.602 285.946 163.621 287.948 168.109 290.097C167.593 292.875 167.038 295.696 166.169 298.387C165.259 301.211 164.042 303.887 163.388 306.795C164.452 309.559 165.046 312.555 165.976 315.379C166.982 318.419 168.126 321.407 169.406 324.342C170.687 327.277 172.099 330.147 173.644 332.952C181.517 334.767 188.187 335.28 193.61 341.957L188.657 341.372C186.41 341.264 184.108 341.083 181.863 341.239C176.766 341.594 170.051 343.558 165.105 341.544C159.102 339.1 155.689 328.413 153.191 322.913C156.583 318.85 159.995 314.755 161.148 309.451C162.858 301.585 157.206 293.421 153.102 287.157L153.809 284.592Z" fill="#FEFEFE"/>
<path d="M266.884 280.289C266.907 280.319 266.937 280.344 266.951 280.379C267.584 281.922 263.611 285.179 263.022 286.898C262.883 287.3 262.938 287.199 263.138 287.618C267.634 287.465 275.213 285.502 279.966 284.602C279.342 286.444 278.545 288.261 277.695 290.009C276.393 292.686 274.647 295.887 272.326 297.822C268.33 301.152 255.928 305.666 250.724 307.88C244.763 310.417 238.707 313.331 232.574 315.397C228.088 316.907 223.564 316.089 219.428 314.011C218.841 313.618 218.297 313.2 217.76 312.74C210.662 306.665 211.676 297.345 211.035 288.808C214.563 286.787 218.358 285.265 222.101 283.699C223.458 288.621 224.353 293.642 225.651 298.578C235.443 296.595 245.383 294.158 255.045 291.6C255.195 290.119 255.266 288.516 255.999 287.187C257.976 283.605 263.127 281.403 266.884 280.289Z" fill="#FEFEFE"/>
<path d="M153.924 282.985C156.668 275.106 160.127 267.751 166.342 261.949C171.551 257.087 177.088 255.339 184.114 255.604C184.583 256.104 185.064 256.581 185.603 257.007C187.526 258.527 189.913 259.671 192.423 259.316C194.841 258.974 196.248 257.515 197.646 255.677C200.605 255.588 203.374 256.227 205.979 257.625C214.234 262.056 219.054 273.67 221.663 282.107C217.785 283.877 213.289 285.509 209.8 287.952C209.518 292.876 210.079 303.173 211.83 307.662C210.721 309.902 216.258 338.983 217.499 342.894C217.54 343.025 217.587 343.154 217.631 343.285L195.939 343.317C195.544 342.434 195.136 341.582 194.578 340.788C190.15 334.477 181.899 332.951 174.822 331.723C171.7 326.795 165.156 311.784 165.364 306.021C165.501 302.221 170.745 292.534 169.548 289.429C168.904 287.76 156.12 283.738 153.924 282.985Z" fill="#5378B3"/>
<path d="M231.867 72.3141C231.112 71.71 230.315 71.1042 229.686 70.3658C225.924 65.9507 235.992 61.0426 236.345 55.9045C236.599 52.1969 232.123 48.7314 229.904 46.0623L230.076 46.0192L229.707 45.75L230.055 46.201L230.239 46.1336C232.536 48.3793 236.904 51.7392 237.192 55.0384C237.521 58.7974 233.239 62.2143 230.965 64.785C230.092 65.7722 229.149 66.9633 229.32 68.3644C229.502 69.8661 231.633 71.4126 232.707 72.3583C241.15 72.8055 249.793 72.4302 258.257 72.4158L308.112 72.1583C307.893 93.1361 307.979 114.112 308.372 135.087L399.535 135.196L399.544 168.1L399.402 169.102C399.729 172.836 399.512 176.721 399.469 180.471C399.406 183.515 399.35 186.544 399.467 189.588C399.502 195.864 399.45 202.138 399.311 208.412C389.594 208.552 379.851 208.403 370.131 208.405L308.979 208.36L308.801 147.896C288.073 147.613 267.343 147.601 246.614 147.86C236.402 147.898 226.182 147.69 215.972 147.905C215.636 154.529 215.915 161.271 215.955 167.904C216.106 181.672 216.114 195.44 215.978 209.208C186.992 209.483 158.006 209.504 129.02 209.27L128.985 135.035C146.704 134.987 164.419 135.248 182.14 135.086C181.108 131.402 180.822 127.636 180.454 123.843C178.502 123.012 176.596 121.988 174.687 121.06C173.293 122.321 171.912 123.333 170.237 124.183L170.154 124.058C171.589 122.721 173.116 121.561 174.689 120.392C176.822 121.426 178.871 122.592 181.033 123.583C181.432 127.471 181.839 131.287 182.812 135.083L202.83 135.059C204.276 131.225 204.317 127.473 204.52 123.435C206.494 122.58 208.509 121.834 210.593 121.301C211.911 122.025 213.192 122.851 214.482 123.626C214.917 106.578 214.488 89.4279 214.414 72.3738C220.229 72.4009 226.054 72.4949 231.867 72.3141Z" fill="#4924DF"/>
<path d="M209.63 122.209C211.387 122.022 213.048 123.374 214.471 124.268C214.568 127.907 214.605 131.547 214.583 135.188L209.365 135.176C207.422 135.166 205.48 135.127 203.539 135.059C205.022 131.396 204.919 127.519 205.08 123.637C206.578 123.104 208.109 122.668 209.63 122.209Z" fill="#FEFEFE"/>
<path d="M142.362 182.186C154.943 181.704 167.69 182.076 180.286 182.073C184.951 182.072 195.662 181.551 199.695 182.315C200.115 183.039 199.988 183.529 199.969 184.355C186.572 184.536 173.154 184.376 159.754 184.358C156.3 184.353 145.062 184.812 142.712 184.099C142.213 183.393 142.346 183.034 142.362 182.186Z" fill="#FEFEFE"/>
<path d="M142.306 158.946C149.416 158.613 197.981 158.537 199.606 159.041C200.185 159.785 200.02 160.088 199.979 161.008C190.45 161.34 180.836 161.136 171.299 161.147C161.704 161.158 152.05 161.391 142.461 161.069C142.039 160.529 142.274 159.628 142.306 158.946Z" fill="#FEFEFE"/>
<path d="M320.09 181.624L362.168 181.581C365.305 181.58 378.829 181.064 381.004 181.811C381.42 182.57 381.272 182.98 381.206 183.829C368.715 184.28 356.122 183.95 343.622 183.932C336.541 183.922 327.329 184.427 320.464 183.735C319.965 183.047 320.107 182.461 320.09 181.624Z" fill="#FEFEFE"/>
<path d="M231.902 96.3263C238.826 96.0085 291.606 95.9117 293.135 96.4783C293.551 97.2383 293.416 97.7832 293.391 98.6389L249.881 98.6543C246.212 98.6488 235.15 99.1744 232.374 98.3376C231.83 97.5859 231.93 97.2366 231.902 96.3263Z" fill="#FEFEFE"/>
<path d="M321.01 158.794C333.917 158.418 346.918 158.717 359.835 158.75C364.043 158.76 377.743 158.084 380.977 159.167C381.511 159.853 381.347 160.048 381.263 160.888L380.795 161.186L337.6 161.249C333.554 161.241 323.755 161.727 320.515 160.921C320.17 160.169 320.292 159.963 320.435 159.169L321.01 158.794Z" fill="#FEFEFE"/>
<path d="M268.969 119.565L284.06 119.491C286.721 119.465 289.519 119.193 292.159 119.533C292.94 119.633 293.464 119.798 294.089 120.269C294.126 121.228 294.085 121.176 293.455 121.914C291.033 122.637 261.349 122.14 256.287 122.139C253.321 122.139 233.169 122.27 232.505 121.884C232.346 121.792 232.226 121.643 232.086 121.523C231.98 120.84 231.881 120.475 232.181 119.823C234.528 119.231 239.744 119.677 242.306 119.667L268.969 119.565Z" fill="#FEFEFE"/>
<path d="M68.2621 406.512C38.7404 388.411 12.0993 360.987 3.824 326.444C-5.01013 289.568 1.67216 234.798 21.6943 202.387C22.4753 201.114 23.2945 199.867 24.1521 198.645C25.0097 197.422 25.904 196.228 26.8349 195.06C27.7659 193.893 28.7318 192.755 29.7327 191.647C30.7335 190.539 31.7674 189.463 32.8344 188.418C33.9014 187.374 34.9994 186.363 36.1284 185.386C37.2573 184.409 38.4152 183.467 39.6021 182.562C40.789 181.656 42.0025 180.787 43.2428 179.956C44.4831 179.124 45.7478 178.331 47.0367 177.578C68.5656 165.187 93.7109 163.944 108.201 140.762C128.707 107.955 95.6327 59.465 120.489 22.2522C127.531 11.7108 139.063 5.11885 151.245 2.27098C175.721 -3.45136 206.885 2.09532 228.949 13.8094C240.941 20.1767 252.778 28.2613 266.562 29.9549C280.258 31.6379 298.489 30.5728 311.633 26.3954C318.763 24.1298 325.565 20.8676 332.694 18.5495C364.762 8.12132 391.267 15.8302 418.987 33.1883C430.833 40.6068 441.686 49.3829 451.901 58.8935C487.492 92.03 514.066 135.253 524.856 182.877C537.653 239.369 529.676 282.414 508.196 335.187C500.925 353.053 492.549 371.334 482.243 387.668C479.47 392.062 476.445 396.335 473.848 400.834C474.031 413.093 474.864 425.366 475.469 437.614C475.751 443.324 475.599 451.485 476.732 456.88C477.383 461.507 476.942 466.053 477.161 470.688C449.206 470.802 421.218 471.086 393.268 470.763C388.498 470.553 383.651 470.715 378.873 470.703C378.877 466.048 378.752 461.151 379.42 456.545C379.162 456.966 379.24 457.059 378.726 457.175C377.131 457.532 358.837 457.517 357.918 457.124C357.044 457.832 352.32 458.447 350.894 458.835C349.381 459.246 347.953 459.892 346.524 460.528L346.496 457.133C339.078 457.179 331.66 457.177 324.243 457.129C323.705 453.201 323.574 449.207 323.264 445.254L321.569 424.562L320.304 408.195C319.96 403.66 319.445 399.083 319.836 394.536C320.259 389.608 321.497 384.812 322.572 379.999L326.279 363.217C325.061 360.587 324.28 357.948 323.591 355.137C323.259 350.933 324.124 347.197 325.52 343.265C320.371 342.781 314.59 343.782 309.753 343.111L309.517 343.367C305.324 344.216 280.973 343.82 276.021 343.184C276.388 342.115 276.872 341.026 277.462 340.061C277.712 339.645 277.99 339.248 278.296 338.871C278.602 338.494 278.933 338.14 279.288 337.809C279.643 337.478 280.02 337.173 280.418 336.895C280.816 336.617 281.232 336.369 281.665 336.149C285.277 334.317 296.393 332.647 300.936 331.549C302.195 328.297 304.472 325.366 306.176 322.32C308.28 318.558 310.057 314.512 311.665 310.515C313.966 304.671 315.988 298.732 317.732 292.698C320.186 284.093 322.926 270.813 326.909 263.193C328.082 260.95 329.478 259.1 331.139 257.194C332.248 247.258 338.089 247.268 341.062 240.082C342.94 235.543 341.512 230.456 343.355 225.917C344.451 223.219 346.816 220.952 349.538 219.914C352.19 218.902 354.476 219.026 357.023 220.248C357.444 220.452 357.85 220.683 358.239 220.942C363.917 224.722 360.301 229.593 361.896 234.801C362.889 238.038 366.241 239.204 368.043 241.822C369.897 244.516 370.279 247.91 372.135 250.554C374.221 253.526 377.48 254.987 378.657 258.716C379.603 261.716 378.542 264.518 377.178 267.192C378.895 271.416 380.609 275.738 381.672 280.178C382.914 285.361 383.437 290.685 384.258 295.943C384.638 294.62 385.085 293.35 385.667 292.102C389.906 283.007 404.27 264.693 412.039 258.794C413.563 257.636 415.249 256.819 417.017 256.108C421.283 254.391 425.978 253.355 430.476 252.411C432.168 252.056 434.251 251.971 435.827 251.348C436.347 251.143 436.464 250.748 436.652 250.247C437.961 246.761 431.977 246.978 430.458 243.146C428.319 237.754 431.222 232.364 433.427 227.542C432.819 226.642 432.267 225.68 432.029 224.608C431.784 223.506 431.907 222.368 432.545 221.419C433.62 219.823 435.423 219.4 437.176 218.991C438.144 218.953 439.094 218.814 440.054 218.686C443.919 218.629 451.16 221.114 454.412 223.169C454.456 223.197 454.501 223.222 454.546 223.248L455.549 224.272C457.308 227.036 458.757 229.505 457.98 232.924C456.84 237.936 452.191 241.786 448.171 244.575C448.262 246.324 448.016 250.304 449.026 251.595C469.962 255.54 471.045 259.845 484.685 275.139C492.197 283.545 499.679 291.34 499.044 303.45C498.446 314.856 489.228 324.483 481.122 331.711C478.46 334.086 475.564 336.285 472.273 337.71C471.872 350.342 472.634 363.095 472.962 375.727C473.157 383.28 472.737 391.25 473.592 398.724C478.041 391.765 482.536 384.854 486.558 377.635C506.366 342.081 526.093 292.064 529.129 251.372C530.858 228.222 528.423 205.076 523.446 182.451C510.435 123.301 469.4 66.8775 418.56 34.4424C402.207 24.0098 382.27 15.2509 362.603 14.8441C356.067 14.7087 349.494 15.5969 343.123 17.0086C332.646 19.3294 323.133 23.7081 313.054 27.1858C300.229 31.6119 280.93 32.7196 267.392 31.2399C249.05 29.2363 234.471 16.7875 217.836 10.0233C206.716 5.50172 194.999 3.04185 183.063 1.95775C159.983 -0.13865 134.143 3.2253 120.605 24.3785C98.5289 58.8741 127.292 101.05 111.645 137.042C110.086 140.629 107.877 143.896 105.437 146.94C91.0788 164.844 67.5386 167.55 48.5749 178.274C39.6292 183.333 31.3351 190.801 25.3485 199.13C14.509 214.211 9.01534 233.039 5.29063 251.009C0.402681 274.591 -0.700597 300.189 4.62262 323.796C11.1482 352.735 29.0494 375.694 52.1245 393.618C57.3963 397.713 62.9627 401.395 68.5075 405.105C68.4644 405.62 68.4528 406.026 68.2621 406.512Z" fill="#737373"/>
<path d="M409.86 298.432C409.897 298.449 409.943 298.454 409.97 298.484C410.568 299.133 410.551 301.631 410.583 302.61C410.614 303.553 410.434 304.274 409.776 304.968C408.982 305.165 408.308 304.757 407.589 304.457C407.277 304.162 406.873 303.825 406.642 303.465C406.269 302.884 406.097 302.206 406.307 301.531C406.79 299.976 408.531 299.142 409.86 298.432Z" fill="#FEFEFE"/>
<path d="M472.354 297.223C472.798 297.428 473.255 297.641 473.658 297.92C474.813 298.721 475.698 299.935 475.96 301.324C476.28 303.018 475.62 304.358 474.672 305.706C473.904 306.412 473.089 307.077 472.298 307.759C472.143 304.276 472.087 300.701 472.354 297.223Z" fill="#FEFEFE"/>
<path d="M409.497 324.457C410.324 325.735 409.745 334.473 409.706 336.617C408.517 335.723 407.443 334.652 406.346 333.647L403.057 330.696C405.305 328.764 407.361 326.519 409.497 324.457Z" fill="#FEFEFE"/>
<path d="M472.531 323.623C475.339 325.22 477.913 328.237 480.519 330.237C479.588 331.095 478.587 331.886 477.615 332.695C475.963 333.887 474.338 335.006 472.549 335.982L472.531 323.623Z" fill="#FEFEFE"/>
<path d="M309.753 343.111C311.189 341.505 314.352 340.681 316.222 339.379C322.515 334.998 327.118 328.182 331.284 321.873C329.468 329.032 327.546 336.162 325.521 343.265C320.371 342.781 314.591 343.782 309.753 343.111Z" fill="#FEFEFE"/>
<path d="M301.606 332.496L302.112 332.513C304.839 334.854 307.142 338.013 309.514 340.727C308.763 341.415 307.924 341.975 307.091 342.558C300.793 342.788 294.789 342.3 288.55 341.645C285.183 341.343 281.838 341.46 278.465 341.564C279.148 340.427 279.933 339.163 281.018 338.373C284.983 335.484 296.137 334.71 301.606 332.496Z" fill="#FEFEFE"/>
<path d="M434.848 228.018C435.872 228.124 437.409 228.143 438.302 228.67C440.664 230.064 439.148 234.697 439.95 237.141L440.178 237.249C441.213 236.402 441.377 234.389 442.583 233.88C442.737 234.068 442.873 234.21 442.965 234.449C443.691 236.342 441.544 237.998 441.213 239.755C441.008 240.839 441.449 241.915 442.081 242.787C442.694 243.633 443.243 243.835 444.247 243.992C444.942 244.1 445.324 244.17 445.903 244.612C447.229 246.546 446.951 249.083 446.977 251.332C445.529 251.346 444.071 251.294 442.621 251.274L437.733 251.195C438.019 249.814 438.506 248.509 438.979 247.183C440.048 246.675 441.382 246.194 441.985 245.125L441.831 244.64C440.168 244.02 437.142 246.711 434.453 245.451C433.1 244.818 432.026 243.733 431.516 242.319C429.87 237.757 432.981 232.084 434.848 228.018Z" fill="#FEFEFE"/>
<path d="M443.128 356.17C443.224 356.218 443.325 356.258 443.416 356.315C445.306 357.497 444.553 360.137 444.36 362.021C443.727 368.211 443.511 374.495 443.053 380.705C442.66 386.015 441.883 391.594 442.143 396.916C442.384 401.844 443.419 406.807 444.208 411.676C445.122 417.326 445.9 423.007 446.944 428.634C444.69 430.902 442.459 433.192 440.251 435.504L436.645 439.047C437.597 423.111 439.224 407.184 440.42 391.259L442.009 369.671C442.333 365.183 442.532 360.629 443.128 356.17Z" fill="#FEFEFE"/>
<path d="M436.375 440.878C440.318 437.815 443.744 433.778 447.19 430.162C449.084 439.328 450.197 448.649 452.074 457.824C448.555 458.7 444.726 459.29 441.494 460.997C437.311 463.206 435.998 466.589 434.703 470.851C434.511 465.748 435.144 460.544 435.229 455.421C435.423 450.566 436.233 445.727 436.375 440.878Z" fill="#FEFEFE"/>
<path d="M346.496 457.134L346.528 419.12C346.538 414.354 346.028 407.046 346.762 402.489C347.267 399.35 348.693 396.418 349.803 393.461C350.687 391.104 351.436 388.693 352.18 386.289C352.843 384.146 354.088 378.143 355.472 376.631C355.713 376.368 356.317 376.257 356.65 376.238C356.9 376.224 357.219 376.308 357.466 376.362C357.453 382.416 354.461 388.402 354.399 394.556C354.333 401.243 355 408.046 355.397 414.725C356.237 428.849 357.305 442.991 357.918 457.125C357.044 457.833 352.32 458.447 350.894 458.835C349.381 459.247 347.953 459.893 346.524 460.528L346.496 457.134Z" fill="#FEFEFE"/>
<path d="M435.229 455.42C435.144 460.544 434.511 465.747 434.703 470.851C435.998 466.588 437.311 463.205 441.494 460.996C444.726 459.289 448.555 458.699 452.074 457.824C460.234 456.379 468.533 457.71 476.732 456.881C477.384 461.508 476.942 466.053 477.161 470.688C449.207 470.803 421.218 471.087 393.268 470.763C393.497 469.738 393.813 468.74 394.216 467.77C396.237 462.859 400.618 460.633 405.362 459.065C406.591 458.658 407.957 458.38 409.129 457.841C409.212 457.803 409.292 457.758 409.373 457.716C414.332 456.432 428.402 457.555 434.488 457.221C435.074 456.805 435.061 456.103 435.229 455.42Z" fill="#153970"/>
<path d="M392.237 323.633C395.534 326.668 399.104 329.288 402.498 332.194C405.012 334.347 407.218 337.006 410.036 338.758L410.043 412.9L410.079 439.376C410.083 443.931 410.29 448.576 409.993 453.116C409.891 454.675 409.53 456.172 409.373 457.716C409.292 457.757 409.212 457.803 409.129 457.841C407.957 458.379 406.591 458.657 405.362 459.064C400.618 460.633 396.237 462.858 394.216 467.769C393.813 468.74 393.497 469.738 393.268 470.763C388.498 470.553 383.651 470.715 378.873 470.703C378.877 466.048 378.752 461.151 379.42 456.545C379.255 451.244 379.891 445.82 380.16 440.52C380.657 429.639 381.239 418.762 381.907 407.89C382.564 396.075 382.931 384.255 383.74 372.445C384.137 366.648 384.45 360.861 385.393 355.122C386.285 351.023 386.081 347.177 385.671 343.023C385.257 340.781 384.92 338.49 384.39 336.274C388.216 332.742 390.413 328.451 392.237 323.633Z" fill="#FEFEFE"/>
<path d="M385.671 343.024C392.118 342.982 398.622 342.714 405.061 342.833C405.127 347.038 405.116 351.242 405.028 355.447C398.536 355.03 391.899 355.042 385.393 355.123C386.285 351.024 386.081 347.178 385.671 343.024Z" fill="#F16F6E"/>
<path d="M331.216 259.484C332.583 260.913 332.415 264.878 336.889 268.731C337.073 268.892 337.261 269.048 337.453 269.199C337.645 269.351 337.84 269.497 338.039 269.639C338.238 269.78 338.441 269.917 338.647 270.048C338.853 270.179 339.063 270.305 339.275 270.426C339.488 270.546 339.703 270.662 339.922 270.771C340.14 270.881 340.361 270.985 340.584 271.084C340.808 271.183 341.034 271.275 341.262 271.363C341.491 271.45 341.721 271.531 341.953 271.607C342.186 271.682 342.42 271.752 342.656 271.815C342.892 271.879 343.129 271.937 343.368 271.988C343.607 272.04 343.847 272.086 344.088 272.125C344.329 272.164 344.571 272.198 344.814 272.225C345.057 272.252 345.3 272.273 345.544 272.289C345.788 272.304 346.032 272.313 346.277 272.315C346.521 272.318 346.765 272.314 347.01 272.304C347.254 272.294 347.497 272.279 347.741 272.257C352.688 271.767 355.678 268.621 358.682 265.049C361.544 266.729 364.514 269.04 367.717 269.968C370.962 270.908 373.379 269.843 376.142 268.258C378.427 274.646 380.443 280.829 381.546 287.556C383.964 302.295 381.326 309.389 391.152 322.425C389.675 327.03 387.296 330.976 383.979 334.481C382.338 328.062 380.545 321.589 379.356 315.07C378.81 312.072 378.78 308.986 378.19 306.029L377.72 305.755L377.226 305.971C375.025 309.788 383.177 336.924 384.069 343.118C385.141 350.564 384.527 358.736 379.831 364.922C375.669 370.406 369.848 373.249 363.113 374.174C358.627 374.89 353.937 374.905 349.421 374.504C341.584 373.809 334.332 370.634 329.244 364.489C321.412 355.033 326.754 344.412 329.696 334.197C331.441 328.14 332.912 322.035 334.528 315.946C335.133 313.665 336.71 310.223 336.625 307.895C336.599 307.195 336.334 307.083 335.846 306.657C335.029 306.945 334.679 308.424 334.403 309.205C329.854 322.067 323.778 334.109 310.937 340.468C308.644 337.069 305.755 334.036 303.052 330.964C304.374 328.099 306.245 325.385 307.736 322.588C310.259 317.857 312.475 312.846 314.4 307.844C317.847 298.889 320.25 289.528 322.848 280.301C324.236 275.367 325.46 270.25 327.522 265.549C328.516 263.283 329.663 261.407 331.216 259.484Z" fill="#94C1A8"/>
<path d="M437.153 253.011C437.499 252.961 437.832 252.939 438.182 252.925C441.314 252.796 444.504 252.662 447.626 252.991C453.896 253.652 464.916 257.02 469.529 261.311C472.615 264.182 475.389 267.468 478.26 270.553C483.632 276.329 490.797 282.931 494.443 289.863C496.287 293.369 497.281 297.658 497.377 301.606C497.663 313.326 489.051 321.37 481.611 329.226C478.683 326.598 475.697 323.909 472.527 321.579L472.356 309.398C473.921 308.301 475.458 307.237 476.59 305.662C477.561 304.309 478.03 302.742 477.668 301.089C477.29 299.36 476.082 297.47 474.515 296.586C473.629 296.086 472.294 295.713 471.311 295.992C470.844 296.627 470.801 297.003 470.733 297.797C470.344 302.315 470.722 307.158 470.767 311.706C470.876 320.495 470.893 329.284 470.819 338.073C467.582 338.506 464.156 338.304 460.888 338.303L444.763 338.286L411.365 338.261C411.044 328.632 411.338 318.718 411.71 309.088C411.843 305.65 412.204 302.222 412.272 298.782C412.288 297.938 412.329 297.068 411.712 296.423C410.834 296.131 410.109 296.32 409.275 296.669C407.412 297.448 405.413 298.966 404.704 300.928C404.33 301.967 404.339 303.047 404.817 304.049C405.796 306.098 407.892 306.846 409.859 307.619C409.756 312.457 409.812 317.308 409.797 322.147C407.065 324.455 404.307 326.999 402.107 329.825L401.847 329.632C394.038 323.77 386.326 315.635 384.986 305.538C383.549 294.714 390.768 285.602 397.017 277.498C400.774 272.626 408.794 262.561 413.835 259.396C419.471 255.857 430.459 253.868 437.153 253.011Z" fill="#5378B3"/>
</svg>
