<svg width="50" height="50" viewBox="0 0 50 50" fill="none" xmlns="http://www.w3.org/2000/svg">
<path d="M25.2156 0.00108105C26.0343 0.00108105 26.8406 0.0542061 27.5906 0.179206C28.3295 0.274391 29.0585 0.435448 29.7687 0.660456C30.477 0.872956 31.1791 1.14691 31.875 1.48233C32.5531 1.80421 33.25 2.19796 33.9468 2.62608C35.125 3.37608 36.2843 3.98233 37.4656 4.46671C39.7904 5.39933 42.2498 5.95324 44.75 6.10733C46.0145 6.20108 47.3239 6.249 48.6781 6.25108V18.7511C48.6781 21.124 48.375 23.3802 47.7687 25.5198C47.1863 27.633 46.3588 29.6707 45.3031 31.5917C44.252 33.5101 43.008 35.3163 41.5906 36.9823C40.1523 38.6871 38.5942 40.287 36.9281 41.7698C35.2385 43.2552 33.4614 44.6379 31.6062 45.9105C29.7479 47.2021 27.8791 48.3927 26 49.4823L25.25 49.9292L24.5 49.4823C22.5723 48.3667 20.6896 47.1751 18.8562 45.9105C16.9911 44.6516 15.2131 43.2682 13.5343 41.7698C11.8693 40.2868 10.3123 38.6869 8.87497 36.9823C7.46232 35.3084 6.21288 33.5034 5.14372 31.5917C4.10703 29.6618 3.28043 27.6262 2.67809 25.5198C2.07204 23.3151 1.77132 21.0376 1.78434 18.7511V6.25108C3.13851 6.249 4.44892 6.20108 5.71559 6.10733C6.96473 6.02242 8.20572 5.84379 9.42809 5.57296C10.625 5.30421 11.8218 4.94796 13 4.46671C14.2222 3.97266 15.3942 3.36258 16.5 2.64483C17.875 1.75108 19.2687 1.09171 20.6437 0.657331C22.1247 0.203861 23.6669 -0.0175131 25.2156 0.00108105ZM45.5343 9.32296C43.1689 9.20718 40.8255 8.81172 38.5531 8.14483C36.2935 7.46905 34.1409 6.47692 32.1593 5.19796C31.1312 4.52485 30.0156 3.99597 28.8437 3.62608C27.6724 3.27283 26.4546 3.09795 25.2312 3.10733C23.9987 3.09982 22.7719 3.27463 21.5906 3.62608C20.4173 3.98494 19.3033 4.51458 18.2843 5.19796C16.2986 6.48262 14.1407 7.47901 11.875 8.15733C9.66038 8.80108 7.33851 9.19483 4.90934 9.33858V18.7667C4.90934 20.8355 5.17809 22.823 5.71559 24.7292C6.26365 26.6218 7.01819 28.4484 7.96559 30.1761C8.92474 31.9216 10.0553 33.5672 11.3406 35.0886C12.6437 36.623 14.0343 38.0511 15.5343 39.4073C17.0343 40.7636 18.6062 42.0198 20.25 43.1761C21.9104 44.3344 23.5708 45.3938 25.2312 46.3542C26.9311 45.3663 28.5878 44.306 30.1968 43.1761C31.8534 42.023 33.4338 40.7641 34.9281 39.4073C36.4281 38.0511 37.8218 36.623 39.125 35.0886C40.4102 33.5672 41.5408 31.9216 42.5 30.1761C43.4426 28.4503 44.1859 26.6229 44.7156 24.7292C45.27 22.7906 45.5457 20.783 45.5343 18.7667V9.32296Z" fill="#4924DF"/>
<path fill-rule="evenodd" clip-rule="evenodd" d="M36.8656 14.7164L35.4906 13.5352L34.2218 13.6445L20.5968 29.732L15.9562 23.107L14.7062 22.8945L13.2593 23.9289L13.0437 25.1789L19.0093 33.6977L19.6875 34.0727L21.1156 34.1602L21.8468 33.8414L36.9562 15.982L36.8656 14.7164Z" fill="#4924DF"/>
</svg>
