<svg width="50" height="50" viewBox="0 0 50 50" fill="none" xmlns="http://www.w3.org/2000/svg">
<path d="M18.3334 22.8125L22.8125 18.2813L19.8959 15.3125L17.6042 17.6042L14.6875 14.6875L16.9271 12.3959L14.5834 10.0521L10.0521 14.5834L18.3334 22.8125ZM35.4167 39.9479L39.9479 35.4167L37.6042 33.0729L35.3125 35.3125L32.3959 32.3959L34.6354 30.1042L31.6667 27.1875L27.1875 31.6667L35.4167 39.9479ZM33.8021 13.3854L36.7188 16.3021L39.6354 13.3854L36.6667 10.4167L33.8021 13.3854ZM15.1042 43.75H6.25002V34.8959L15.3646 25.7813L4.16669 14.5834L14.5834 4.16669L25.8334 15.4167L33.6979 7.50002C34.1146 7.08335 34.5834 6.77085 35.1042 6.56252C35.625 6.35419 36.1632 6.25002 36.7188 6.25002C37.2743 6.25002 37.8125 6.35419 38.3334 6.56252C38.8542 6.77085 39.3229 7.08335 39.7396 7.50002L42.5 10.3125C42.9167 10.7292 43.2292 11.1979 43.4375 11.7188C43.6459 12.2396 43.75 12.7778 43.75 13.3334C43.75 13.8889 43.6459 14.4188 43.4375 14.9229C43.2292 15.4271 42.9167 15.8868 42.5 16.3021L34.6354 24.2188L45.8334 35.4167L35.4167 45.8334L24.2188 34.6354L15.1042 43.75Z" fill="#4924DF"/>
</svg>
