<svg width="50" height="50" viewBox="0 0 50 50" fill="none" xmlns="http://www.w3.org/2000/svg">
<path d="M2.08337 35.8333C2.08337 34.6528 2.38754 33.568 2.99587 32.5791C3.60421 31.5902 4.41115 30.8347 5.41671 30.3125C7.56948 29.2361 9.75698 28.4291 11.9792 27.8916C14.2014 27.3541 16.4584 27.0847 18.75 27.0833C21.0417 27.0819 23.2987 27.3514 25.5209 27.8916C27.7431 28.4319 29.9306 29.2389 32.0834 30.3125C33.0903 30.8333 33.898 31.5889 34.5063 32.5791C35.1146 33.5694 35.4181 34.6541 35.4167 35.8333V37.5C35.4167 38.6458 35.0091 39.6271 34.1938 40.4437C33.3785 41.2604 32.3973 41.668 31.25 41.6666H6.25004C5.10421 41.6666 4.12365 41.259 3.30837 40.4437C2.4931 39.6284 2.08476 38.6472 2.08337 37.5V35.8333ZM43.75 41.6666H38.4375C38.8195 41.0416 39.1063 40.3736 39.298 39.6625C39.4896 38.9514 39.5848 38.2305 39.5834 37.5V35.4166C39.5834 33.8889 39.1584 32.4215 38.3084 31.0146C37.4584 29.6076 36.2514 28.4014 34.6875 27.3958C36.4584 27.6041 38.125 27.9604 39.6875 28.4646C41.25 28.9687 42.7084 29.5847 44.0625 30.3125C45.3125 31.0069 46.2674 31.7791 46.9271 32.6291C47.5868 33.4791 47.9167 34.4083 47.9167 35.4166V37.5C47.9167 38.6458 47.5091 39.6271 46.6938 40.4437C45.8785 41.2604 44.8973 41.668 43.75 41.6666ZM18.75 25C16.4584 25 14.4966 24.184 12.8646 22.5521C11.2327 20.9201 10.4167 18.9583 10.4167 16.6666C10.4167 14.375 11.2327 12.4132 12.8646 10.7812C14.4966 9.14928 16.4584 8.33331 18.75 8.33331C21.0417 8.33331 23.0035 9.14928 24.6355 10.7812C26.2674 12.4132 27.0834 14.375 27.0834 16.6666C27.0834 18.9583 26.2674 20.9201 24.6355 22.5521C23.0035 24.184 21.0417 25 18.75 25ZM39.5834 16.6666C39.5834 18.9583 38.7674 20.9201 37.1355 22.5521C35.5035 24.184 33.5417 25 31.25 25C30.8681 25 30.382 24.9569 29.7917 24.8708C29.2014 24.7847 28.7153 24.6889 28.3334 24.5833C29.2709 23.4722 29.9917 22.2396 30.4959 20.8854C31 19.5312 31.2514 18.125 31.25 16.6666C31.2487 15.2083 30.9973 13.8021 30.4959 12.4479C29.9945 11.0937 29.2737 9.86108 28.3334 8.74997C28.8195 8.57636 29.3056 8.46317 29.7917 8.41039C30.2778 8.35761 30.7639 8.33192 31.25 8.33331C33.5417 8.33331 35.5035 9.14928 37.1355 10.7812C38.7674 12.4132 39.5834 14.375 39.5834 16.6666ZM6.25004 37.5H31.25V35.8333C31.25 35.4514 31.1549 35.1041 30.9646 34.7916C30.7743 34.4791 30.5223 34.2361 30.2084 34.0625C28.3334 33.125 26.441 32.4222 24.5313 31.9541C22.6216 31.4861 20.6945 31.2514 18.75 31.25C16.8056 31.2486 14.8785 31.4833 12.9688 31.9541C11.0591 32.425 9.16671 33.1278 7.29171 34.0625C6.97921 34.2361 6.72712 34.4791 6.53546 34.7916C6.34379 35.1041 6.24865 35.4514 6.25004 35.8333V37.5ZM18.75 20.8333C19.8959 20.8333 20.8771 20.4257 21.6938 19.6104C22.5105 18.7951 22.9181 17.8139 22.9167 16.6666C22.9153 15.5194 22.5077 14.5389 21.6938 13.725C20.8799 12.9111 19.8987 12.5027 18.75 12.5C17.6014 12.4972 16.6209 12.9055 15.8084 13.725C14.9959 14.5444 14.5875 15.525 14.5834 16.6666C14.5792 17.8083 14.9875 18.7896 15.8084 19.6104C16.6292 20.4312 17.6098 20.8389 18.75 20.8333Z" fill="#4924DF"/>
</svg>
