<svg width="599" height="600" viewBox="0 0 599 600" fill="none" xmlns="http://www.w3.org/2000/svg">
<mask id="mask0_1701_6181" style="mask-type:luminance" maskUnits="userSpaceOnUse" x="0" y="1" width="599" height="599">
<path d="M599 599.999H0V1.23389H599V599.999ZM145.749 518.987C103.764 520.203 77.4446 521.949 77.4446 523.889C77.4446 527.564 171.878 530.544 288.367 530.544C404.856 530.544 499.288 527.564 499.288 523.889C499.288 522.721 489.753 521.624 473.012 520.67C477.399 516.034 481.682 511.286 485.856 506.436C504.638 484.606 497.715 457.098 488.05 428.102H507.109V413.291H504.354V399.403H480.785L489.82 370.927H488.91H482.415V364.659H484.837C485.204 364.659 485.503 364.361 485.503 363.993C485.503 363.627 485.204 363.328 484.837 363.328H482.415V356.02H484.837C485.204 356.02 485.503 355.722 485.503 355.355C485.503 354.988 485.204 354.689 484.837 354.689H482.415V353.815C482.415 351.497 481.836 349.314 480.812 347.404L482.883 344.874C483.116 344.589 483.074 344.17 482.789 343.938C482.666 343.836 482.517 343.787 482.369 343.787C482.176 343.787 481.984 343.871 481.854 344.031L480.082 346.195C478.537 343.918 476.321 342.133 473.717 341.127C478.596 323.369 491.46 304.283 502.319 284.897H521.893V271.536H509.345C520.041 249.417 525.191 227.211 510.141 206.436C500.541 193.191 487.604 189.274 473.75 189.274C467.794 189.274 461.671 189.997 455.568 191.015V141.42H342.737C331.876 124.028 319.841 108.245 298.423 101.197C289.787 98.3539 280.725 97.0365 271.611 97.0365C251.201 97.0365 230.52 103.645 213.726 114.553C199.444 123.829 187.674 137.626 183.028 154.004C178.055 171.537 180.349 190.322 179.224 208.447H123.975V218.693H124.623V221.121H177.72C176.893 225.521 175.7 229.853 173.976 234.085C167.002 251.208 153.115 263.485 137.623 272.969L121.58 266.205L120.766 277.142C120.766 277.142 119.621 279.386 118.046 283.417C103.433 290.472 88.1143 297.416 75.5938 306.786L64.4229 307.651L66.6402 314.449C56.6729 324.32 49.8027 336.773 48.7225 353.764C46.5887 387.348 66.2251 417.877 86.1998 443.116C96.1095 455.638 107.31 466.999 117.494 479.265C121.38 483.945 137.627 510.765 145.749 518.987Z" fill="white"/>
</mask>
<g mask="url(#mask0_1701_6181)">
<path d="M600 602H0V0.999939H600V602ZM145.992 520.686C103.937 521.906 77.5739 523.658 77.5739 525.606C77.5739 529.295 172.165 532.285 288.848 532.285C405.532 532.285 500.122 529.295 500.122 525.606C500.122 524.434 490.571 523.333 473.802 522.375C478.196 517.722 482.486 512.956 486.667 508.088C505.481 486.176 498.546 458.565 488.864 429.461H507.955V414.595H505.196V400.655H481.588L490.638 372.073H489.726H483.221V365.781H485.646C486.014 365.781 486.313 365.482 486.313 365.113C486.313 364.745 486.014 364.446 485.646 364.446H483.221V357.11H485.646C486.014 357.11 486.313 356.811 486.313 356.443C486.313 356.074 486.014 355.775 485.646 355.775H483.221V354.897C483.221 352.57 482.64 350.379 481.615 348.462L483.689 345.923C483.923 345.637 483.881 345.216 483.595 344.983C483.472 344.881 483.323 344.832 483.174 344.832C482.981 344.832 482.789 344.916 482.658 345.077L480.883 347.249C479.336 344.963 477.116 343.172 474.508 342.162C479.395 324.338 492.281 305.18 503.158 285.722H522.764V272.311H510.196C520.909 250.109 526.068 227.82 510.992 206.968C501.377 193.674 488.418 189.742 474.541 189.742C468.575 189.742 462.442 190.468 456.329 191.49V141.709H343.309C332.43 124.252 320.375 108.411 298.921 101.336C290.27 98.4824 281.194 97.1602 272.064 97.1602C251.621 97.1602 230.905 103.793 214.082 114.742C199.777 124.053 187.987 137.901 183.334 154.341C178.352 171.939 180.65 190.794 179.524 208.986H124.182V219.27H124.831V221.708H178.016C177.188 226.124 175.993 230.472 174.266 234.72C167.281 251.907 153.371 264.23 137.852 273.749L121.783 266.96L120.967 277.938C120.967 277.938 119.82 280.19 118.243 284.236C103.605 291.317 88.2614 298.288 75.72 307.692L64.5305 308.561L66.7514 315.384C56.7676 325.292 49.8858 337.792 48.8039 354.846C46.6664 388.556 66.3356 419.198 86.3437 444.532C96.27 457.1 107.49 468.503 117.69 480.815C121.583 485.513 137.857 512.433 145.992 520.686Z" fill="url(#paint0_linear_1701_6181)"/>
</g>
<path d="M149.278 521.383H472.337C476.958 516.521 481.468 511.535 485.856 506.436C522.723 463.587 460.547 398.843 473.005 343.959C482.674 301.359 542.181 250.664 510.141 206.435C492.168 181.638 462.5 189.538 437.008 194.621C403.714 201.258 378.76 196.882 358.632 167.026C341.34 141.376 330.22 111.661 298.423 101.196C270.45 91.9896 238.021 98.7724 213.726 114.552C199.444 123.828 187.674 137.625 183.028 154.004C175.648 180.023 184.271 208.802 173.976 234.084C164.618 257.064 142.811 271.313 121.379 281.797C88.8228 297.725 51.3708 312.108 48.7225 353.763C46.5886 387.348 66.225 417.877 86.1997 443.116C96.1095 455.637 107.31 466.998 117.494 479.265C122.095 484.806 144.026 521.383 149.278 521.383Z" fill="#AD43FB" fill-opacity="0.05"/>
<path d="M124.623 218.044H206.964V209.096H124.623V218.044Z" fill="#F1F3F6"/>
<path d="M206.964 218.043V217.395H125.273V209.743H206.315V218.043H206.964H207.613V208.446H123.975V218.692H207.613V218.043H206.964Z" fill="#B5CAEC"/>
<mask id="mask1_1701_6181" style="mask-type:luminance" maskUnits="userSpaceOnUse" x="77" y="518" width="423" height="13">
<path d="M288.367 530.543C171.878 530.543 77.4446 527.564 77.4446 523.888C77.4446 521.948 103.764 520.202 145.749 518.987C147.243 520.499 148.462 521.383 149.278 521.383H472.337C472.562 521.146 472.787 520.908 473.012 520.669C489.753 521.624 499.288 522.721 499.288 523.888C499.288 527.564 404.856 530.543 288.367 530.543Z" fill="white"/>
</mask>
<g mask="url(#mask1_1701_6181)">
<path d="M288.367 530.543C171.878 530.543 77.4446 527.564 77.4446 523.888C77.4446 521.948 103.764 520.202 145.749 518.987C147.243 520.499 148.462 521.383 149.278 521.383H472.337C472.562 521.146 472.787 520.908 473.012 520.669C489.753 521.624 499.288 522.721 499.288 523.888C499.288 527.564 404.856 530.543 288.367 530.543Z" fill="url(#paint1_linear_1701_6181)"/>
</g>
<path d="M472.337 521.383H149.278C148.462 521.383 147.243 520.499 145.749 518.987C183.296 517.899 233.372 517.235 288.367 517.235C367.85 517.235 437.058 518.621 473.012 520.669C472.787 520.908 472.562 521.146 472.337 521.383Z" fill="#CBDAF0"/>
<path d="M333.028 526.975H318.213V415.142H333.028V526.975Z" fill="#F5AB14"/>
<path d="M493.528 526.975H478.712V415.142H493.528V526.975Z" fill="#F5AB14"/>
<path d="M333.028 439.35H318.213V415.141H333.028V439.35Z" fill="#D49723"/>
<path d="M493.528 439.35H478.712V415.141H493.528V439.35Z" fill="#D49723"/>
<path d="M304.632 428.102H507.109V413.29H304.632V428.102Z" fill="#F6C863"/>
<path d="M255.511 1.23349V116.521C255.511 117.204 256.064 117.756 256.746 117.756C257.428 117.756 257.981 117.204 257.981 116.521V1.23349C257.981 0.550896 257.428 -0.0011673 256.746 -0.0011673C256.064 -0.0011673 255.511 0.550896 255.511 1.23349Z" fill="#B5CAEC"/>
<path d="M265.224 131.051C265.224 135.732 261.429 139.527 256.746 139.527C252.063 139.527 248.266 135.732 248.266 131.051C248.266 126.371 252.063 122.576 256.746 122.576C261.429 122.576 265.224 126.371 265.224 131.051Z" fill="#F1F3F6"/>
<path d="M265.224 131.051H264.559C264.558 133.211 263.684 135.159 262.27 136.574C260.854 137.989 258.906 138.862 256.746 138.862C254.586 138.862 252.637 137.989 251.22 136.574C249.806 135.159 248.932 133.211 248.932 131.051C248.932 128.893 249.806 126.945 251.22 125.53C252.637 124.114 254.586 123.242 256.746 123.241C258.906 123.242 260.854 124.114 262.27 125.53C263.684 126.945 264.558 128.893 264.559 131.051H265.224H265.89C265.889 126.004 261.796 121.911 256.746 121.911C251.695 121.911 247.601 126.004 247.601 131.051C247.601 136.1 251.695 140.192 256.746 140.193C261.796 140.192 265.889 136.1 265.89 131.051H265.224Z" fill="#B5CAEC"/>
<path d="M289.208 116.521H283.816C283.834 116.359 283.878 116.201 283.878 116.037C283.878 110.153 271.73 105.383 256.746 105.383C241.761 105.383 229.614 110.153 229.614 116.037C229.614 116.201 229.657 116.359 229.676 116.521H225.738L214.593 131.051H298.897L289.208 116.521Z" fill="#F1F3F6"/>
<path d="M289.208 116.521V115.857H283.816V116.521L284.477 116.598C284.483 116.505 284.539 116.321 284.544 116.037C284.543 114.326 283.656 112.751 282.198 111.403C280.005 109.373 276.483 107.73 272.086 106.559C267.691 105.394 262.418 104.717 256.746 104.717C249.182 104.72 242.333 105.916 237.316 107.885C234.809 108.87 232.755 110.047 231.293 111.403C229.835 112.751 228.948 114.326 228.947 116.037C228.952 116.319 229.007 116.502 229.014 116.598L229.676 116.521V115.857H225.41L213.244 131.717H300.141L289.564 115.857H289.208V116.521L288.653 116.891L297.654 130.386H215.943L226.066 117.187H230.422L230.337 116.446C230.306 116.217 230.275 116.083 230.279 116.037C230.278 114.806 230.91 113.578 232.199 112.378C234.124 110.583 237.482 108.973 241.747 107.845C246.012 106.713 251.18 106.048 256.746 106.048C264.166 106.046 270.883 107.234 275.687 109.123C278.089 110.064 280.008 111.184 281.293 112.378C282.582 113.578 283.212 114.806 283.212 116.037C283.217 116.081 283.186 116.216 283.154 116.446L283.068 117.187H289.208V116.521Z" fill="#B5CAEC"/>
<path d="M225.738 117.188H289.208V115.857H225.738V117.188Z" fill="#B5CAEC"/>
<path d="M297.654 130.387H258.749L261.739 117.188H288.851L297.654 130.387Z" fill="#D7E1F0"/>
<path d="M298.897 131.051H258.598L258.749 130.386H297.654L288.851 117.187H289.208V116.521L298.897 131.051Z" fill="#9FBCE6"/>
<path d="M283.208 115.856H265.224V106.584C269.228 107.107 272.802 107.989 275.687 109.123C278.089 110.064 280.008 111.184 281.293 112.378C282.518 113.519 283.148 114.686 283.208 115.856Z" fill="#D7E1F0"/>
<path d="M283.753 115.856H283.208C283.148 114.686 282.518 113.519 281.293 112.378C280.008 111.184 278.089 110.064 275.687 109.123C272.802 107.989 269.228 107.107 265.224 106.584V105.916C281.004 107.506 283.395 113.787 283.753 115.856Z" fill="#9FBCE6"/>
<path d="M289.208 117.188H261.739L261.89 116.522H265.224V115.857H283.208H283.753C283.827 116.276 283.816 116.522 283.816 116.522H289.208V117.188Z" fill="#9FBCE6"/>
<path d="M264.008 133.938H249.484C249.206 133.242 249.026 132.495 248.96 131.717H264.53C264.465 132.495 264.285 133.242 264.008 133.938Z" fill="#D7E1F0"/>
<path d="M264.715 133.938H264.008C264.285 133.242 264.465 132.495 264.53 131.717H265.107L264.715 133.938ZM249.484 133.938H248.773L248.384 131.717H248.96C249.026 132.495 249.206 133.242 249.484 133.938Z" fill="#9FBCE6"/>
<path d="M265.107 131.717H248.384L248.266 131.051H265.224L265.107 131.717Z" fill="#9FBCE6"/>
<path d="M323.974 335.244H454.853V332.095H323.974V335.244Z" fill="#CBDAF0"/>
<path d="M323.974 331.379H454.853V142.134H323.974V331.379Z" fill="#F1F3F6"/>
<path d="M323.974 331.38V332.095H455.568V141.42H323.258V332.095H323.974V331.38H324.689V142.85H454.138V330.665H323.974V331.38Z" fill="#B5CAEC"/>
<path d="M332.616 321.4H446.21V152.112H332.616V321.4Z" fill="#F1F3F6"/>
<path d="M440.04 152.112H401.249L401.253 152.108H440.043L440.04 152.112Z" fill="#F9F9FA"/>
<path d="M332.621 282.765V235.596L401.249 152.113H440.04L332.621 282.765Z" fill="#F9F9FA"/>
<path d="M372.598 321.405H333.831L333.835 321.4H372.602L372.598 321.405Z" fill="#F9F9FA"/>
<path d="M372.602 321.4H333.835L446.205 184.713V231.881L372.602 321.4Z" fill="#F9F9FA"/>
<path d="M446.211 232.761H392.872V152.112H385.954V232.761H332.617V240.751H385.954V321.4H392.872V240.751H446.211V232.761Z" fill="#F1F3F6"/>
<path d="M446.211 232.761V232.046H393.589V151.397H385.238V232.046H331.901V241.466H385.238V322.115H393.589V241.466H446.926V232.046H446.211V232.761H445.495V240.036H392.157V320.685H386.669V240.036H333.333V233.477H386.669V152.827H392.157V233.477H446.211V232.761Z" fill="#B5CAEC"/>
<path d="M332.618 321.4H333.333V152.827H445.495V320.685H332.618V321.4V322.115H446.926V151.397H331.901V322.115H332.618V321.4Z" fill="#B5CAEC"/>
<mask id="mask2_1701_6181" style="mask-type:luminance" maskUnits="userSpaceOnUse" x="124" y="218" width="55" height="4">
<path d="M177.72 221.121H124.623V218.692H178.139C178.011 219.503 177.872 220.315 177.72 221.121Z" fill="white"/>
</mask>
<g mask="url(#mask2_1701_6181)">
<path d="M177.72 221.121H124.623V218.692H178.139C178.011 219.503 177.872 220.315 177.72 221.121Z" fill="url(#paint2_linear_1701_6181)"/>
</g>
<path d="M206.964 221.121H177.72C177.872 220.315 178.011 219.503 178.139 218.692H206.964V221.121Z" fill="#CBDAF0"/>
<path d="M125.272 217.396H206.315V212.172H125.272V217.396Z" fill="#D7E1F0"/>
<path d="M206.964 218.692H124.623V212.172H125.272V217.395H206.315V212.172H206.964V218.692Z" fill="#9FBCE6"/>
<path d="M137.299 209.096H128.506V174.452H137.299V209.096Z" fill="#F1F3F6"/>
<path d="M137.299 209.096V208.381H129.221V175.167H136.584V209.096H137.299H138.014V173.736H127.79V209.811H138.014V209.096H137.299Z" fill="#B5CAEC"/>
<path d="M148.526 209.096H139.732V163.075H148.526V209.096Z" fill="#F1F3F6"/>
<path d="M148.526 209.096V208.271H140.557V163.899H147.702V209.096H148.526H149.35V162.251H138.907V209.92H149.35V209.096H148.526Z" fill="#B5CAEC"/>
<path d="M159.752 209.096H150.959V163.075H159.752V209.096Z" fill="#F1F3F6"/>
<path d="M159.752 209.096V208.271H151.784V163.899H158.928V209.096H159.752H160.576V162.251H150.135V209.92H160.576V209.096H159.752Z" fill="#B5CAEC"/>
<path d="M250.988 205.133H299.695V191.773H250.988V205.133Z" fill="#CBDAF0"/>
<mask id="mask3_1701_6181" style="mask-type:luminance" maskUnits="userSpaceOnUse" x="502" y="271" width="20" height="14">
<path d="M521.893 284.897H502.319C504.806 280.456 507.189 275.997 509.345 271.537H521.893V284.897Z" fill="white"/>
</mask>
<g mask="url(#mask3_1701_6181)">
<path d="M521.893 284.897H502.319C504.806 280.456 507.189 275.997 509.345 271.537H521.893V284.897Z" fill="url(#paint3_linear_1701_6181)"/>
</g>
<path d="M502.319 284.897H473.187V271.537H509.345C507.189 275.997 504.806 280.456 502.319 284.897Z" fill="#CBDAF0"/>
<path d="M240.871 459.32H289.577V445.961H240.871V459.32Z" fill="#CBDAF0"/>
<path d="M193.151 182.529H241.857V169.17H193.151V182.529Z" fill="#CBDAF0"/>
<path d="M262.012 261.299H196.646C194.871 261.299 193.433 262.737 193.433 264.51V300.952C193.433 302.726 194.871 304.163 196.646 304.163H248.266L254.836 319.771V304.163H262.012C263.786 304.163 265.224 302.726 265.224 300.952V264.51C265.224 262.737 263.786 261.299 262.012 261.299Z" fill="white"/>
<path d="M262.012 261.299V260.633H196.646C194.503 260.634 192.768 262.369 192.767 264.51V300.953C192.768 303.094 194.504 304.829 196.646 304.829H247.824L255.502 323.067V304.829H262.012C264.154 304.829 265.89 303.094 265.89 300.953V264.51C265.889 262.369 264.154 260.634 262.012 260.633V261.299V261.964C263.419 261.967 264.556 263.105 264.559 264.51V300.953C264.556 302.358 263.419 303.496 262.012 303.499H254.171V316.474L248.708 303.499H196.646C195.239 303.496 194.101 302.358 194.099 300.953V264.51C194.101 263.105 195.239 261.967 196.646 261.964H262.012V261.299Z" fill="#3961B6"/>
<path d="M222.428 296.115H199.691V268.111H222.428V296.115Z" fill="#F1F3F6"/>
<path d="M222.428 296.115V295.451H200.356V268.777H221.762V296.115H222.428H223.094V267.445H199.025V296.781H223.094V296.115H222.428Z" fill="#B5CAEC"/>
<path d="M202.053 283.564L206.964 276.636L211.059 283.592L215.432 280.114L220.064 283.592V293.205H202.053V283.564Z" fill="#B5CAEC"/>
<path d="M217.504 275.373C217.504 276.943 216.231 278.216 214.66 278.216C213.089 278.216 211.816 276.943 211.816 275.373C211.816 273.804 213.089 272.531 214.66 272.531C216.231 272.531 217.504 273.804 217.504 275.373Z" fill="#F8E623"/>
<path d="M259.211 272.531H229.328V268.717H259.211V272.531Z" fill="#B5CAEC"/>
<path d="M259.211 280.124H229.328V276.31H259.211V280.124Z" fill="#84A9DE"/>
<path d="M259.211 287.716H229.328V283.902H259.211V287.716Z" fill="#B5CAEC"/>
<path d="M259.211 295.309H229.328V291.494H259.211V295.309Z" fill="#84A9DE"/>
<path d="M64.4229 307.651L83.4546 306.177C88.8948 306.177 91.7302 307.47 95.1408 310.732L133.983 346.94H196.39C197.767 347.039 199.1 347.328 200.365 347.778C208.203 350.568 212.048 359.451 209.281 367.294L204.134 381.878H88.6342L64.4229 307.651Z" fill="#C22942"/>
<path d="M211.453 526.973C209.921 526.973 208.488 526.016 207.955 524.488L185.336 459.62C182.653 451.924 175.373 446.754 167.22 446.754H135.905C127.752 446.754 120.472 451.924 117.789 459.62L95.1707 524.488C94.4963 526.419 92.3834 527.442 90.4535 526.766C88.5223 526.093 87.5025 523.982 88.1751 522.053L110.794 457.183C114.513 446.516 124.605 439.35 135.905 439.35H167.22C178.521 439.35 188.612 446.516 192.332 457.183L214.951 522.053C215.624 523.982 214.604 526.093 212.671 526.766C212.269 526.906 211.858 526.973 211.453 526.973Z" fill="#7145A0"/>
<path d="M213.214 439.852H165.132V422.819H213.214C217.919 422.819 221.733 426.632 221.733 431.336C221.733 436.04 217.919 439.852 213.214 439.852Z" fill="#C22942"/>
<path d="M131.375 397.104C131.375 397.104 138.068 421.262 154.402 423.882C170.737 426.504 260.573 378.691 273.965 375.367C287.355 372.044 369.448 405.778 369.448 405.778L376.172 396.701C376.172 396.701 292.579 332.792 271.359 336.061C250.139 339.332 128.62 386.082 128.62 386.082L131.375 397.104Z" fill="#2E4E89"/>
<path d="M369.448 405.778L378.889 413.347L383.171 408.965L380.563 406.029L386.996 407.03L411.687 376.664C411.687 376.664 408.371 375.23 402.802 380.462C397.234 385.694 383.228 397.635 376.172 396.701L369.448 405.778Z" fill="#242954"/>
<path d="M222.428 348.511C222.428 348.511 235.466 335.29 238.186 334.915C240.906 334.54 250.988 339.579 250.988 339.579L221.753 354.501L222.428 348.511Z" fill="#EDA08D"/>
<path d="M170.986 355.862C170.986 355.862 211.624 350.875 222.428 348.408L221.913 353.396L172.22 375.301L170.986 355.862Z" fill="#EDA08D"/>
<path d="M211.04 361.004L275.619 331.207L277.913 337.304L213.065 364.811L211.04 361.004Z" fill="#CCCFD5"/>
<path d="M275.619 331.207L282.363 329.439L285.382 335.264L277.913 337.305L275.619 331.207Z" fill="#BBBFC5"/>
<path d="M275.619 331.207C275.727 329.022 277.913 249.501 277.913 249.501L288.973 263.613L282.363 329.439L275.619 331.207Z" fill="#BBBFC5"/>
<path d="M277.913 249.5L273.561 249.111L272.301 333.071L275.619 331.207L277.913 249.5Z" fill="#CCCFD5"/>
<mask id="mask4_1701_6181" style="mask-type:luminance" maskUnits="userSpaceOnUse" x="129" y="341" width="255" height="96">
<path d="M164.689 436.222C164.406 436.222 164.138 436.21 163.886 436.185C147.426 434.539 129.844 412.901 129.844 412.901C129.845 412.902 129.848 412.903 129.849 412.903V412.905C129.849 412.905 147.429 434.539 163.886 436.181C164.14 436.206 164.406 436.218 164.693 436.218C167.659 436.218 172.361 434.866 178.212 432.581C172.64 434.757 168.113 436.088 165.132 436.212C164.98 436.218 164.834 436.222 164.689 436.222ZM377.474 405.331C377.474 405.331 375.19 404.548 371.314 403.257C367.261 401.908 361.465 400.002 354.728 397.861L354.729 397.859C367.907 402.046 377.474 405.328 377.474 405.328L377.475 405.329L377.474 405.331ZM378.393 403.924C378.391 403.923 378.389 403.922 378.388 403.921C371.846 399.82 364.13 395.512 355.946 391.233L357.295 383.895H359.008V380.147H358.501H353.628L352.713 378.146H337.745L336.83 380.147H333.693C306.203 367.008 280.348 356.382 280.348 356.382C239.604 380.237 203.811 386.2 178.193 386.2C176.13 386.2 174.129 386.16 172.202 386.089C174.767 384.395 177.284 382.51 179.647 380.424C215.713 364.513 262.899 344.267 275.413 341.569C276.19 341.401 277.059 341.32 278.01 341.32C286.441 341.32 301.395 347.657 317.447 356.01C345.467 370.592 376.832 391.32 382.682 395.223C383.313 395.644 383.647 395.871 383.647 395.871L378.393 403.924ZM334.592 391.666C332.214 390.962 329.811 390.26 327.415 389.575C309.826 384.54 292.347 380.247 283.883 380.247C282.421 380.247 281.229 380.375 280.351 380.649C277.608 381.505 271.666 384.488 263.832 388.657C271.666 384.487 277.605 381.504 280.348 380.645C281.226 380.371 282.415 380.243 283.876 380.243C293.496 380.243 314.759 385.788 334.592 391.664V391.666Z" fill="white"/>
</mask>
<g mask="url(#mask4_1701_6181)">
<path d="M164.689 436.222C164.406 436.222 164.138 436.21 163.886 436.185C147.426 434.539 129.844 412.901 129.844 412.901C129.845 412.902 129.848 412.903 129.849 412.903V412.905C129.849 412.905 147.429 434.539 163.886 436.181C164.14 436.206 164.406 436.218 164.693 436.218C167.659 436.218 172.361 434.866 178.212 432.581C172.64 434.757 168.113 436.088 165.132 436.212C164.98 436.218 164.834 436.222 164.689 436.222ZM377.474 405.331C377.474 405.331 375.19 404.548 371.314 403.257C367.261 401.908 361.465 400.002 354.728 397.861L354.729 397.859C367.907 402.046 377.474 405.328 377.474 405.328L377.475 405.329L377.474 405.331ZM378.393 403.924C378.391 403.923 378.389 403.922 378.388 403.921C371.846 399.82 364.13 395.512 355.946 391.233L357.295 383.895H359.008V380.147H358.501H353.628L352.713 378.146H337.745L336.83 380.147H333.693C306.203 367.008 280.348 356.382 280.348 356.382C239.604 380.237 203.811 386.2 178.193 386.2C176.13 386.2 174.129 386.16 172.202 386.089C174.767 384.395 177.284 382.51 179.647 380.424C215.713 364.513 262.899 344.267 275.413 341.569C276.19 341.401 277.059 341.32 278.01 341.32C286.441 341.32 301.395 347.657 317.447 356.01C345.467 370.592 376.832 391.32 382.682 395.223C383.313 395.644 383.647 395.871 383.647 395.871L378.393 403.924ZM334.592 391.666C332.214 390.962 329.811 390.26 327.415 389.575C309.826 384.54 292.347 380.247 283.883 380.247C282.421 380.247 281.229 380.375 280.351 380.649C277.608 381.505 271.666 384.488 263.832 388.657C271.666 384.487 277.605 381.504 280.348 380.645C281.226 380.371 282.415 380.243 283.876 380.243C293.496 380.243 314.759 385.788 334.592 391.664V391.666Z" fill="url(#paint4_linear_1701_6181)"/>
</g>
<path d="M377.474 405.332L387.35 412.325L391.364 407.697L388.586 404.92L395.067 405.538L417.908 373.759C417.908 373.759 414.513 372.524 409.265 378.078C404.018 383.632 390.747 396.384 383.647 395.871L377.474 405.332Z" fill="#242954"/>
<path d="M199.716 422.819H199.711C221.182 412.184 246.921 397.654 263.832 388.657C246.925 397.656 221.186 412.185 199.716 422.819Z" fill="#ECF0F5"/>
<path d="M178.212 432.582C184.341 430.188 191.732 426.773 199.711 422.82H199.716C191.733 426.775 184.342 430.188 178.212 432.582Z" fill="#CC2B58"/>
<mask id="mask5_1701_6181" style="mask-type:luminance" maskUnits="userSpaceOnUse" x="129" y="356" width="250" height="81">
<path d="M164.693 436.219C164.406 436.219 164.14 436.207 163.886 436.182C147.43 434.54 129.849 412.905 129.849 412.905V412.904C130.467 413.169 131.065 413.29 131.641 413.29C137.852 413.291 141.527 399.216 141.527 399.216C141.527 399.216 157.689 395.674 172.202 386.09C174.129 386.161 176.13 386.2 178.193 386.2C203.811 386.2 239.604 380.238 280.348 356.383C280.348 356.383 306.203 367.009 333.693 380.148H331.451V383.896H333.164L334.592 391.665C314.759 385.788 293.496 380.244 283.876 380.244C282.415 380.244 281.226 380.372 280.348 380.646C277.605 381.505 271.666 384.488 263.832 388.658C246.921 397.655 221.182 412.184 199.711 422.82C191.732 426.773 184.341 430.188 178.212 432.582C172.361 434.867 167.659 436.219 164.693 436.219ZM377.475 405.33L377.474 405.328C377.474 405.328 367.907 402.047 354.729 397.859L355.946 391.233C364.13 395.512 371.846 399.821 378.388 403.921C378.39 403.922 378.391 403.924 378.393 403.925L377.475 405.33Z" fill="white"/>
</mask>
<g mask="url(#mask5_1701_6181)">
<path d="M164.693 436.219C164.406 436.219 164.14 436.207 163.886 436.182C147.43 434.54 129.849 412.905 129.849 412.905V412.904C130.467 413.169 131.065 413.29 131.641 413.29C137.852 413.291 141.527 399.216 141.527 399.216C141.527 399.216 157.689 395.674 172.202 386.09C174.129 386.161 176.13 386.2 178.193 386.2C203.811 386.2 239.604 380.238 280.348 356.383C280.348 356.383 306.203 367.009 333.693 380.148H331.451V383.896H333.164L334.592 391.665C314.759 385.788 293.496 380.244 283.876 380.244C282.415 380.244 281.226 380.372 280.348 380.646C277.605 381.505 271.666 384.488 263.832 388.658C246.921 397.655 221.182 412.184 199.711 422.82C191.732 426.773 184.341 430.188 178.212 432.582C172.361 434.867 167.659 436.219 164.693 436.219ZM377.475 405.33L377.474 405.328C377.474 405.328 367.907 402.047 354.729 397.859L355.946 391.233C364.13 395.512 371.846 399.821 378.388 403.921C378.39 403.922 378.391 403.924 378.393 403.925L377.475 405.33Z" fill="url(#paint5_linear_1701_6181)"/>
</g>
<path d="M387.35 412.325L377.475 405.329L378.393 403.925C382.243 406.341 385.685 408.686 388.574 410.905L387.35 412.325Z" fill="#2F3681"/>
<path d="M147.948 267.105L147.256 275.373L146.578 283.593L121.959 274.239L131.034 257.034L137.442 260.848L147.948 267.105Z" fill="#F6BBAE"/>
<path d="M147.948 267.105L147.256 275.373C137.021 271.092 136.972 263.835 137.442 260.848L147.948 267.105Z" fill="#A74E77"/>
<path d="M176.374 227.173C176.374 227.173 182.713 282.626 161.629 276.102C140.545 269.578 128.506 257.04 128.506 257.04C128.506 257.04 138.654 191.763 176.374 227.173Z" fill="#F6BBAE"/>
<mask id="mask6_1701_6181" style="mask-type:luminance" maskUnits="userSpaceOnUse" x="109" y="266" width="72" height="148">
<path d="M131.641 413.289C131.065 413.289 130.467 413.168 129.849 412.903C129.848 412.903 129.845 412.902 129.844 412.901C122.551 409.776 124.499 388.043 124.499 388.043C97.4559 326.733 120.766 277.142 120.766 277.142C120.766 277.142 109.058 300.091 109.066 330.943C109.065 328.544 109.135 326.195 109.266 323.899C110.284 305.9 114.979 291.27 118.046 283.417C119.621 279.386 120.766 277.142 120.766 277.142L121.58 266.204L137.623 272.968L155.206 280.381L150.317 290.942C164.88 312.048 172.371 331.567 176.181 346.94C178.123 354.779 179.109 361.536 179.589 366.88C180.347 375.349 179.832 380.26 179.832 380.26C179.769 380.315 179.71 380.369 179.647 380.424C177.284 382.51 174.767 384.395 172.202 386.089C157.689 395.673 141.527 399.216 141.527 399.216C141.527 399.216 137.851 413.29 131.641 413.289ZM164.723 388.931L174.665 362.238L143.238 304.408C143.238 304.408 136.788 295.115 128.862 295.115C126.715 295.115 124.46 295.797 122.195 297.531C122.192 297.532 122.19 297.534 122.188 297.536C122.185 297.538 122.182 297.54 122.179 297.543C121.708 297.904 121.236 298.312 120.766 298.768C120.056 299.455 119.41 300.402 118.835 301.577C110.425 318.763 117.352 384.36 164.721 388.931" fill="white"/>
</mask>
<g mask="url(#mask6_1701_6181)">
<path d="M131.641 413.289C131.065 413.289 130.467 413.168 129.849 412.903C129.848 412.903 129.845 412.902 129.844 412.901C122.551 409.776 124.499 388.043 124.499 388.043C97.4559 326.733 120.766 277.142 120.766 277.142C120.766 277.142 109.058 300.091 109.066 330.943C109.065 328.544 109.135 326.195 109.266 323.899C110.284 305.9 114.979 291.27 118.046 283.417C119.621 279.386 120.766 277.142 120.766 277.142L121.58 266.204L137.623 272.968L155.206 280.381L150.317 290.942C164.88 312.048 172.371 331.567 176.181 346.94C178.123 354.779 179.109 361.536 179.589 366.88C180.347 375.349 179.832 380.26 179.832 380.26C179.769 380.315 179.71 380.369 179.647 380.424C177.284 382.51 174.767 384.395 172.202 386.089C157.689 395.673 141.527 399.216 141.527 399.216C141.527 399.216 137.851 413.29 131.641 413.289ZM164.723 388.931L174.665 362.238L143.238 304.408C143.238 304.408 136.788 295.115 128.862 295.115C126.715 295.115 124.46 295.797 122.195 297.531C122.192 297.532 122.19 297.534 122.188 297.536C122.185 297.538 122.182 297.54 122.179 297.543C121.708 297.904 121.236 298.312 120.766 298.768C120.056 299.455 119.41 300.402 118.835 301.577C110.425 318.763 117.352 384.36 164.721 388.931" fill="url(#paint6_linear_1701_6181)"/>
</g>
<path d="M125.955 263.183L129.384 262.564C129.384 262.564 150.489 249.32 160.17 233.806C160.17 233.806 154.268 229.621 158.255 224.917C158.255 224.917 161.417 222.983 167.591 225.918C173.764 228.852 182.091 229.943 191.097 212.943C191.097 212.943 185.8 215.037 180.807 213.6C175.815 212.163 185.383 214.139 191.097 209.565C191.097 209.565 174.587 214.765 167.591 210.084C160.594 205.403 131.506 196.244 128.002 227.563C124.499 258.882 125.955 263.183 125.955 263.183Z" fill="#50311A"/>
<path d="M150.959 249.504C150.959 249.504 146.203 234.24 139.2 239.978C132.198 245.717 135.017 259.725 149.04 257.04L150.959 249.504Z" fill="#F6BBAE"/>
<path d="M177.056 246.138L181.195 257.262C181.758 258.778 180.921 260.455 179.369 260.916L171.717 263.183L177.056 246.138Z" fill="#F6BBAE"/>
<path d="M143.238 304.409C143.238 304.409 131.864 288.023 120.766 298.768C109.667 309.512 114.115 384.048 164.723 388.932L174.665 362.239L143.238 304.409Z" fill="#EF644F"/>
<mask id="mask7_1701_6181" style="mask-type:luminance" maskUnits="userSpaceOnUse" x="115" y="297" width="50" height="92">
<path d="M164.721 388.932C117.352 384.361 110.425 318.763 118.835 301.578C110.425 318.763 117.352 384.361 164.723 388.932H164.721ZM122.188 297.536C122.19 297.535 122.192 297.532 122.195 297.531C122.192 297.534 122.19 297.535 122.188 297.536Z" fill="white"/>
</mask>
<g mask="url(#mask7_1701_6181)">
<path d="M164.721 388.932C117.352 384.361 110.425 318.763 118.835 301.578C110.425 318.763 117.352 384.361 164.723 388.932H164.721ZM122.188 297.536C122.19 297.535 122.192 297.532 122.195 297.531C122.192 297.534 122.19 297.535 122.188 297.536Z" fill="url(#paint7_linear_1701_6181)"/>
</g>
<path d="M164.723 388.932C117.352 384.361 110.425 318.763 118.835 301.578C119.41 300.403 120.056 299.456 120.766 298.768C121.236 298.312 121.708 297.905 122.179 297.543C122.182 297.541 122.185 297.538 122.188 297.536C122.19 297.535 122.192 297.534 122.195 297.531C124.458 295.799 126.71 295.118 128.854 295.118C131.044 295.118 133.122 295.828 134.981 296.855C135.369 314.956 138.955 370.114 168.063 379.963L164.721 388.932" fill="#F17454"/>
<path d="M174.536 362.035C174.536 362.035 159.168 383.531 164.783 388.959C172.933 396.838 228.099 355.804 228.099 355.804L226.647 352.465L174.536 362.035Z" fill="#F6BBAE"/>
<path d="M227.933 355.863C227.933 355.863 235.082 356.996 241.05 348.151L244.96 343.421L255.659 341.775L256.482 340.129L254.63 339.1C254.63 339.1 244.96 333.752 242.491 334.986C240.022 336.221 226.581 352.509 226.581 352.509L227.933 355.863Z" fill="#F6BBAE"/>
<path d="M161.88 261.299C161.88 261.299 167.745 266.082 172.066 267.315C172.066 267.315 162.96 275.029 161.88 261.299Z" fill="#A74E77"/>
<path d="M172.066 267.314C167.745 266.081 161.88 261.298 161.88 261.298C161.938 262.038 162.025 262.704 162.126 263.323C163.95 264.648 167.765 267.282 169.852 268.717C171.144 268.094 172.066 267.314 172.066 267.314Z" fill="white"/>
<path d="M175.718 242.426L176.541 238.519C176.541 238.519 169.443 237.284 164.093 245.203L164.813 246.849C164.813 246.849 169.648 241.603 175.718 242.426Z" fill="#2D3C60"/>
<path d="M172.919 249.526C172.689 250.639 172.052 251.447 171.496 251.332C170.94 251.218 170.674 250.223 170.904 249.11C171.134 247.998 171.77 247.188 172.328 247.303C172.885 247.418 173.149 248.414 172.919 249.526Z" fill="#4F365D"/>
<path d="M142.282 230.291C142.282 230.291 142.575 229.86 143.132 229.192C142.798 229.535 142.511 229.901 142.282 230.291Z" fill="#6E4324"/>
<path d="M191.097 212.942C191.097 212.942 185.8 215.037 180.807 213.6C176.537 212.37 182.919 213.634 188.43 211.166C175.52 213.81 164.916 211.779 164.916 211.779C172.118 217.744 184.258 215.276 184.258 215.276C176.233 218.979 156.067 214.247 156.067 214.247C171.294 225.972 184.052 218.773 184.052 218.773C184.052 218.773 182.2 229.057 166.973 222.68C154.403 217.416 145.766 226.025 143.132 229.191C147.893 224.276 162.446 223.915 162.446 223.915L162.408 224.357C163.797 224.503 165.521 224.932 167.591 225.917C173.764 228.851 182.091 229.942 191.097 212.942Z" fill="#6E4324"/>
<path d="M138.624 207.867C133.37 210.915 129.197 216.882 128.002 227.563C124.499 258.882 125.955 263.183 125.955 263.183L126.623 263.062C128.309 256.099 128.095 245.151 129.935 229.058C131.109 218.789 134.934 212.083 138.624 207.867Z" fill="#6E4324"/>
<path d="M124.585 278.216C128.778 278.52 132.876 279.727 136.722 281.448C138.644 282.316 140.481 283.388 142.204 284.607C143.936 285.819 145.471 287.305 146.808 288.912C145.13 287.646 143.45 286.46 141.675 285.412C139.892 284.388 138.093 283.397 136.208 282.57C134.34 281.709 132.428 280.941 130.491 280.218C128.547 279.517 126.589 278.828 124.585 278.216Z" fill="#EF644F"/>
<path d="M145.678 245.789C145.526 245.413 145.417 244.992 145.149 244.644C144.692 243.897 144.014 243.387 143.38 243.055C142.745 242.704 142.119 242.547 141.605 242.437C140.561 242.246 139.916 242.323 139.916 242.323C139.916 242.323 140.542 242.491 141.46 242.898C142.35 243.32 143.604 243.984 144.336 245.168L144.411 245.314C144.23 245.175 144.021 245.054 143.756 244.995C143.069 244.853 142.363 245.031 141.738 245.387C140.464 246.135 139.967 247.421 139.817 248.246C139.659 249.101 139.723 249.627 139.723 249.627C139.723 249.627 139.907 249.127 140.286 248.41C140.666 247.702 141.289 246.799 142.24 246.25C142.703 245.978 143.223 245.809 143.628 245.824C144.025 245.832 144.372 246.072 144.624 246.366C144.782 246.55 144.898 246.724 144.999 246.886C145.115 247.545 145.113 248.187 145.062 248.707C145.054 249.21 144.934 249.609 144.911 249.898C144.874 250.185 144.854 250.346 144.854 250.346C144.854 250.346 144.926 250.202 145.056 249.945C145.165 249.677 145.403 249.311 145.537 248.8C145.605 248.541 145.679 248.258 145.76 247.954C145.804 247.642 145.815 247.298 145.836 246.934C145.829 246.572 145.755 246.184 145.678 245.789Z" fill="#A74E77"/>
<mask id="mask8_1701_6181" style="mask-type:luminance" maskUnits="userSpaceOnUse" x="109" y="277" width="16" height="112">
<path d="M124.499 388.043C112.81 368.297 109.071 348.36 109.066 330.943C109.058 300.091 120.766 277.142 120.766 277.142C120.766 277.142 97.4559 326.733 124.499 388.043Z" fill="white"/>
</mask>
<g mask="url(#mask8_1701_6181)">
<path d="M124.499 388.043C112.81 368.297 109.071 348.36 109.066 330.943C109.058 300.091 120.766 277.142 120.766 277.142C120.766 277.142 97.4559 326.733 124.499 388.043Z" fill="url(#paint8_linear_1701_6181)"/>
</g>
<path d="M275.619 331.207L277.913 271.022L283.998 313.158L282.363 329.439L285.382 335.264L277.913 337.305L275.619 331.207Z" fill="#A3A9B0"/>
<path d="M105.074 347.073H186.971C200.609 347.073 210.66 359.817 207.478 373.073L191.497 439.633H118.111C111.807 439.633 106.217 435.583 104.256 429.594L65.0317 309.788C64.5576 308.339 66.3682 307.244 67.4314 308.339L105.074 347.073Z" fill="#E92A48"/>
<path d="M481.751 390.195H455.87V353.815C455.87 346.672 461.664 340.882 468.811 340.882C475.957 340.882 481.751 346.672 481.751 353.815V390.195Z" fill="#F1F3F6"/>
<path d="M481.751 390.195V389.53H456.536V353.815C456.536 350.424 457.909 347.361 460.132 345.14C462.355 342.918 465.419 341.546 468.811 341.546C472.203 341.546 475.267 342.918 477.489 345.14C479.712 347.361 481.085 350.424 481.085 353.815V390.195H481.751H482.416V353.815C482.416 346.303 476.325 340.215 468.811 340.215C461.296 340.215 455.205 346.303 455.205 353.815V390.86H482.416V390.195H481.751Z" fill="#B5CAEC"/>
<path d="M462.166 390.195H463.497V342.342H462.166V390.195Z" fill="#B5CAEC"/>
<path d="M474.124 390.195H475.455V342.342H474.124V390.195Z" fill="#B5CAEC"/>
<path d="M468.145 335.814V342.342C468.145 342.71 468.443 343.008 468.811 343.008C469.179 343.008 469.477 342.71 469.477 342.342V335.814C469.477 335.447 469.179 335.15 468.811 335.15C468.443 335.15 468.145 335.447 468.145 335.814Z" fill="#B5CAEC"/>
<path d="M455.87 344.453L459.576 348.978L455.87 344.453Z" fill="#F1F3F6"/>
<path d="M455.355 344.874L459.06 349.398C459.294 349.683 459.713 349.725 459.997 349.492C460.282 349.259 460.323 348.84 460.091 348.555L456.385 344.031C456.153 343.747 455.734 343.705 455.449 343.937C455.165 344.17 455.123 344.589 455.355 344.874Z" fill="#B5CAEC"/>
<path d="M453.403 356.02H459.575C459.943 356.02 460.242 355.721 460.242 355.355C460.242 354.987 459.943 354.689 459.575 354.689H453.403C453.036 354.689 452.737 354.987 452.737 355.355C452.737 355.721 453.036 356.02 453.403 356.02Z" fill="#B5CAEC"/>
<path d="M453.403 364.659H459.575C459.943 364.659 460.242 364.361 460.242 363.993C460.242 363.627 459.943 363.329 459.575 363.329H453.403C453.036 363.329 452.737 363.627 452.737 363.993C452.737 364.361 453.036 364.659 453.403 364.659Z" fill="#B5CAEC"/>
<path d="M481.854 344.031L478.148 348.555C477.915 348.84 477.956 349.259 478.242 349.492C478.526 349.725 478.945 349.683 479.178 349.398L482.883 344.874C483.116 344.589 483.074 344.17 482.789 343.937C482.505 343.705 482.086 343.747 481.854 344.031Z" fill="#B5CAEC"/>
<path d="M484.836 354.689H478.663C478.295 354.689 477.997 354.987 477.997 355.355C477.997 355.721 478.295 356.02 478.663 356.02H484.836C485.204 356.02 485.503 355.721 485.503 355.355C485.503 354.987 485.204 354.689 484.836 354.689Z" fill="#B5CAEC"/>
<path d="M484.836 363.329H478.663C478.295 363.329 477.997 363.627 477.997 363.993C477.997 364.361 478.295 364.659 478.663 364.659H484.836C485.204 364.659 485.503 364.361 485.503 363.993C485.503 363.627 485.204 363.329 484.836 363.329Z" fill="#B5CAEC"/>
<path d="M470.508 354.689H467.112C466.744 354.689 466.447 354.987 466.447 355.355C466.447 355.721 466.744 356.02 467.112 356.02H470.508C470.876 356.02 471.175 355.721 471.175 355.355C471.175 354.987 470.876 354.689 470.508 354.689Z" fill="#B5CAEC"/>
<path d="M470.508 348.183H467.112C466.744 348.183 466.447 348.481 466.447 348.849C466.447 349.216 466.744 349.515 467.112 349.515H470.508C470.876 349.515 471.175 349.216 471.175 348.849C471.175 348.481 470.876 348.183 470.508 348.183Z" fill="#B5CAEC"/>
<path d="M470.508 362.807H467.112C466.744 362.807 466.446 363.105 466.446 363.473C466.446 363.841 466.744 364.138 467.112 364.138H470.508C470.876 364.138 471.175 363.841 471.175 363.473C471.175 363.105 470.876 362.807 470.508 362.807Z" fill="#B5CAEC"/>
<path d="M481.084 370.927H475.455V345.537C475.512 344.856 475.562 344.21 475.603 343.595C476.283 344.047 476.914 344.565 477.489 345.14C478.135 345.785 478.708 346.501 479.197 347.274L478.148 348.556C477.914 348.841 477.956 349.26 478.241 349.492C478.365 349.594 478.515 349.643 478.662 349.643C478.855 349.643 479.047 349.559 479.178 349.399L479.89 348.529C480.655 350.129 481.084 351.922 481.084 353.815V354.689H478.663C478.295 354.689 477.997 354.988 477.997 355.355C477.997 355.722 478.295 356.02 478.663 356.02H481.084V363.328H478.663C478.295 363.328 477.997 363.627 477.997 363.993C477.997 364.361 478.295 364.659 478.663 364.659H481.084V370.927ZM474.124 370.927H463.496V366.734C465.152 366.155 466.831 365.324 468.374 364.138H470.508C470.876 364.138 471.174 363.841 471.174 363.473C471.174 363.106 470.876 362.807 470.508 362.807H469.89C471.706 360.988 473.224 358.547 474.124 355.275V370.927ZM462.166 370.927H456.536V367.993C458.086 367.938 460.074 367.728 462.166 367.15V370.927Z" fill="#D7E1F0"/>
<path d="M481.751 370.927H481.084V364.659H481.751V370.927ZM456.536 370.927H455.87V368.008C456.082 368.006 456.304 368.001 456.536 367.993V370.927ZM481.751 363.328H481.084V356.02H481.751V363.328ZM481.751 354.689H481.084V353.815C481.084 351.922 480.656 350.129 479.89 348.529L480.35 347.968C481.245 349.723 481.751 351.709 481.751 353.815V354.689ZM479.198 347.274C478.708 346.501 478.135 345.785 477.489 345.14C476.914 344.565 476.283 344.047 475.604 343.595C475.62 343.342 475.637 343.094 475.651 342.851C477.244 343.846 478.605 345.174 479.635 346.74L479.198 347.274Z" fill="#9FBCE6"/>
<path d="M463.496 370.927H462.166V367.15C462.606 367.028 463.051 366.89 463.496 366.734V370.927Z" fill="#9FBCE6"/>
<path d="M475.455 370.927H474.124V355.275C474.413 354.224 474.638 353.087 474.789 351.858C475.081 349.478 475.299 347.383 475.455 345.537V370.927Z" fill="#9FBCE6"/>
<path d="M478.662 349.643C478.515 349.643 478.365 349.593 478.242 349.492C477.956 349.259 477.915 348.84 478.148 348.555L479.198 347.274L479.635 346.74C479.895 347.135 480.133 347.545 480.35 347.967L479.89 348.529L479.178 349.398C479.047 349.559 478.855 349.643 478.662 349.643Z" fill="#9FBCE6"/>
<path d="M481.75 356.02H478.663C478.295 356.02 477.997 355.721 477.997 355.355C477.997 354.987 478.295 354.689 478.663 354.689H481.084H481.75V356.02Z" fill="#9FBCE6"/>
<path d="M481.75 364.659H478.663C478.295 364.659 477.997 364.361 477.997 363.993C477.997 363.627 478.295 363.329 478.663 363.329H481.084H481.75V364.659Z" fill="#9FBCE6"/>
<path d="M470.508 364.138H468.374C468.897 363.737 469.404 363.295 469.89 362.807H470.508C470.876 362.807 471.174 363.105 471.174 363.473C471.174 363.841 470.876 364.138 470.508 364.138Z" fill="#9FBCE6"/>
<path d="M488.91 371.592H448.711L458.215 401.55H479.406L488.91 371.592Z" fill="#F1F3F6"/>
<path d="M488.91 371.593V370.927H447.802L457.728 402.215H479.894L489.82 370.927H488.91V371.593L488.276 371.392L478.918 400.884H458.702L449.62 372.259H488.91V371.593Z" fill="#B5CAEC"/>
<path d="M479.389 399.402H472.477L480.324 372.258H488L479.389 399.402Z" fill="#D7E1F0"/>
<path d="M480.306 399.402H479.389L488 372.258H480.324L480.516 371.592H488.747L480.306 399.402Z" fill="#9FBCE6"/>
<path d="M433.934 413.291H503.689V400.068H433.934V413.291Z" fill="#F1F3F6"/>
<path d="M503.688 413.29V412.626H434.599V400.733H503.023V413.29H503.688H504.355V399.402H433.268V413.956H504.355V413.29H503.688Z" fill="#B5CAEC"/>
<path d="M439.205 409.862H497.54V403.691H439.205V409.862Z" fill="#F1F3F6"/>
<path d="M497.54 409.862V409.197H439.871V404.356H496.874V409.862H497.54H498.205V403.692C498.205 403.516 498.134 403.344 498.01 403.221C497.886 403.096 497.715 403.026 497.54 403.026H439.205C439.03 403.026 438.858 403.096 438.734 403.221C438.61 403.344 438.54 403.516 438.54 403.692V409.862C438.54 410.037 438.61 410.21 438.734 410.333C438.858 410.456 439.03 410.528 439.205 410.528H497.54C497.715 410.528 497.886 410.456 498.01 410.333C498.134 410.21 498.205 410.037 498.205 409.862H497.54Z" fill="#B5CAEC"/>
<path d="M503.023 412.626H434.598V407.805H438.54V409.862C438.54 410.037 438.61 410.209 438.734 410.333C438.858 410.456 439.03 410.528 439.205 410.528H497.54C497.715 410.528 497.886 410.456 498.01 410.333C498.134 410.209 498.205 410.037 498.205 409.862V407.805H503.023V412.626Z" fill="#D7E1F0"/>
<path d="M503.688 413.291H433.934V407.805H434.598V412.626H503.023V407.805H503.688V413.291Z" fill="#9FBCE6"/>
<path d="M439.871 409.196H496.874V407.805H439.871V409.196Z" fill="#D7E1F0"/>
<path d="M497.54 410.528H439.205C439.03 410.528 438.858 410.456 438.734 410.333C438.61 410.21 438.54 410.037 438.54 409.862V407.805H439.871V409.197H496.874V407.805H498.205V409.862C498.205 410.037 498.134 410.21 498.01 410.333C497.886 410.456 497.715 410.528 497.54 410.528Z" fill="#9FBCE6"/>
<path d="M354.409 382.777H336.049L337.992 378.53H352.467L354.409 382.777Z" fill="#F1F3F6"/>
<path d="M354.409 382.777V382.394H336.645L338.237 378.913H352.22L354.06 382.936L354.409 382.777L354.758 382.618L352.713 378.146H337.745L335.452 383.16H355.006L354.758 382.618L354.409 382.777Z" fill="#B5CAEC"/>
<path d="M356.873 383.389H333.585L339.091 413.347H351.367L356.873 383.389Z" fill="#F1F3F6"/>
<path d="M356.873 383.389V382.883H332.978L338.669 413.854H351.789L357.481 382.883H356.873V383.389L356.375 383.297L350.946 412.84H339.513L334.194 383.896H356.873V383.389Z" fill="#B5CAEC"/>
<path d="M331.957 383.39H358.501V380.655H331.957V383.39Z" fill="#F1F3F6"/>
<path d="M358.502 380.654V380.147H331.451V383.896H359.008V380.147H358.502V380.654H357.995V382.882H332.464V381.159H358.502V380.654Z" fill="#B5CAEC"/>
<path d="M352.785 380.147H349.348L348.75 378.913H352.22L352.785 380.147Z" fill="#D7E1F0"/>
<path d="M353.206 380.147H352.785L352.22 378.913H348.75L348.564 378.53H352.467L353.206 380.147Z" fill="#9FBCE6"/>
<path d="M350.946 412.84H348.049V383.895H356.265L350.946 412.84Z" fill="#D7E1F0"/>
<path d="M350.93 413.347L348.049 413.29V412.84H350.946L356.265 383.896H356.773L350.93 413.347Z" fill="#9FBCE6"/>
<path d="M348.049 382.883H357.995V381.16H348.049V382.883Z" fill="#D7E1F0"/>
<path d="M356.773 383.896H348.049V382.882H357.995V381.159H348.049V380.654H349.592L349.347 380.147H352.785H353.206L353.437 380.654H358.501V383.389H356.873L356.773 383.896Z" fill="#9FBCE6"/>
<defs>
<linearGradient id="paint0_linear_1701_6181" x1="300" y1="-26.6461" x2="300" y2="622.105" gradientUnits="userSpaceOnUse">
<stop stop-color="white"/>
<stop offset="0.181573" stop-color="white"/>
<stop offset="0.999659" stop-color="#F8F8F8"/>
<stop offset="1" stop-color="white"/>
</linearGradient>
<linearGradient id="paint1_linear_1701_6181" x1="299.5" y1="-26.31" x2="299.5" y2="620.029" gradientUnits="userSpaceOnUse">
<stop stop-color="#E5EBF3"/>
<stop offset="0.181573" stop-color="#E5EBF3"/>
<stop offset="0.999659" stop-color="#BBC8EA"/>
<stop offset="1" stop-color="#BBC8EA"/>
</linearGradient>
<linearGradient id="paint2_linear_1701_6181" x1="299.5" y1="-26.3099" x2="299.5" y2="620.03" gradientUnits="userSpaceOnUse">
<stop stop-color="#E5EBF3"/>
<stop offset="0.181573" stop-color="#E5EBF3"/>
<stop offset="0.999659" stop-color="#BBC8EA"/>
<stop offset="1" stop-color="#BBC8EA"/>
</linearGradient>
<linearGradient id="paint3_linear_1701_6181" x1="299.5" y1="-26.3093" x2="299.5" y2="620.03" gradientUnits="userSpaceOnUse">
<stop stop-color="#E5EBF3"/>
<stop offset="0.181573" stop-color="#E5EBF3"/>
<stop offset="0.999659" stop-color="#BBC8EA"/>
<stop offset="1" stop-color="#BBC8EA"/>
</linearGradient>
<linearGradient id="paint4_linear_1701_6181" x1="129.844" y1="388.771" x2="383.647" y2="388.771" gradientUnits="userSpaceOnUse">
<stop stop-color="#3961B6"/>
<stop offset="0.998016" stop-color="#2F4E89"/>
<stop offset="1" stop-color="#2F4E89"/>
</linearGradient>
<linearGradient id="paint5_linear_1701_6181" x1="129.844" y1="388.771" x2="383.648" y2="388.771" gradientUnits="userSpaceOnUse">
<stop stop-color="#3866BA"/>
<stop offset="0.998016" stop-color="#3152A4"/>
<stop offset="1" stop-color="#3152A4"/>
</linearGradient>
<linearGradient id="paint6_linear_1701_6181" x1="109.066" y1="339.746" x2="180.003" y2="339.746" gradientUnits="userSpaceOnUse">
<stop stop-color="#EF644F"/>
<stop offset="1" stop-color="#CA3F2A"/>
</linearGradient>
<linearGradient id="paint7_linear_1701_6181" x1="109.066" y1="339.747" x2="180.003" y2="339.747" gradientUnits="userSpaceOnUse">
<stop stop-color="#F17354"/>
<stop offset="1" stop-color="#D94628"/>
</linearGradient>
<linearGradient id="paint8_linear_1701_6181" x1="109.066" y1="339.746" x2="180.003" y2="339.746" gradientUnits="userSpaceOnUse">
<stop stop-color="#F17354"/>
<stop offset="1" stop-color="#D94628"/>
</linearGradient>
</defs>
</svg>
