<svg width="457" height="457" viewBox="0 0 457 457" fill="none" xmlns="http://www.w3.org/2000/svg">
<path d="M365.537 104.269C341.051 84.033 309.938 74.107 274.137 85.3674C238.756 96.4634 217.761 129.239 186.347 146.679C152.922 165.242 112.094 163.341 76.5755 176.713C51.468 186.163 33.06 206.564 26.8265 232.741C14.6246 283.952 37.6848 339.478 83.8327 365.39C112.605 381.549 147.52 384.474 178.889 374.457C202.945 366.761 224.534 352.639 248.536 344.532C290.223 330.447 336.709 336.169 377.044 316.92C419.737 296.556 428.813 253.251 423.1 211.81C417.863 174.163 397.271 130.51 365.537 104.269Z" fill="#AD43FB"/>
<path opacity="0.7" d="M365.537 104.269C341.051 84.033 309.938 74.107 274.137 85.3674C238.756 96.4634 217.761 129.239 186.347 146.679C152.922 165.242 112.094 163.341 76.5755 176.713C51.468 186.163 33.06 206.564 26.8265 232.741C14.6246 283.952 37.6848 339.478 83.8327 365.39C112.605 381.549 147.52 384.474 178.889 374.457C202.945 366.761 224.534 352.639 248.536 344.532C290.223 330.447 336.709 336.169 377.044 316.92C419.737 296.556 428.813 253.251 423.1 211.81C417.863 174.163 397.271 130.51 365.537 104.269Z" fill="white"/>
<path d="M398.515 230.277L398.566 131.492L264.154 131.422L264.102 230.207L398.515 230.277Z" fill="white"/>
<path d="M379.565 215.457C379.565 215.457 373.405 208.145 356.094 206.317C338.783 204.489 345.437 211.582 357.008 217.724C368.579 223.866 379.565 215.457 379.565 215.457Z" fill="white" stroke="#263238" stroke-linecap="round" stroke-linejoin="round"/>
<path d="M378.085 191.939C374.978 176.803 380.663 169.592 380.663 169.592C380.663 169.592 390.433 177.087 391.804 188.283C392.547 195.261 391.358 202.308 388.368 208.656C388.368 208.656 381.193 207.075 378.085 191.939Z" fill="white" stroke="#263238" stroke-linecap="round" stroke-linejoin="round"/>
<path d="M369.548 188.603C369.548 188.603 358.727 182.745 355.711 170.506C352.694 158.268 357.493 154.401 357.493 154.401C357.493 154.401 365.17 165.177 367.986 171.603C370.801 178.028 369.548 188.603 369.548 188.603Z" fill="white" stroke="#263238" stroke-linecap="round" stroke-linejoin="round"/>
<path d="M360.279 190.312C360.279 190.312 350.755 187.415 342.136 190.614C337.39 192.324 332.763 194.351 328.289 196.683C328.289 196.683 332.996 199.342 342.913 199.114C352.83 198.885 360.279 190.312 360.279 190.312Z" fill="white" stroke="#263238" stroke-linecap="round" stroke-linejoin="round"/>
<path d="M386.458 217.733C386.458 217.733 373.515 196.299 348.298 173.76C323.081 151.221 291.63 142.629 278.395 155.48C265.161 168.331 281.594 173.532 286.905 164.127" stroke="#263238" stroke-linecap="round" stroke-linejoin="round"/>
<path d="M344.824 165.854C344.824 165.854 332.485 156.531 328.582 147.629C324.68 138.726 328.756 134.586 334.752 140.207C340.748 145.828 344.824 165.854 344.824 165.854Z" stroke="#263238" stroke-linecap="round" stroke-linejoin="round"/>
<path d="M340.664 176.52C340.664 176.52 333.297 169.135 325.016 170.415C316.735 171.694 311.946 175.56 320.446 178.887C328.946 182.214 340.664 176.52 340.664 176.52Z" stroke="#263238" stroke-linecap="round" stroke-linejoin="round"/>
<path d="M278.547 187.096L313.9 187.361" stroke="#263238" stroke-linecap="round" stroke-linejoin="round"/>
<path d="M278.008 197.854L318.105 198.137" stroke="#263238" stroke-linecap="round" stroke-linejoin="round"/>
<path d="M282.543 210.594L330.866 210.43" stroke="#263238" stroke-linecap="round" stroke-linejoin="round"/>
<path d="M317.95 158.231C312.862 157.107 307.613 156.918 302.457 157.673C297.834 158.412 293.637 160.806 290.648 164.41C290.648 164.41 313.023 166.183 317.95 158.231Z" stroke="#263238" stroke-linecap="round" stroke-linejoin="round"/>
<path d="M323.554 150.535C323.554 150.535 319.487 141.267 311.672 137.858C303.857 134.449 305.164 138.608 305.164 138.608C305.164 138.608 312.458 151.724 323.554 150.535Z" stroke="#263238" stroke-linecap="round" stroke-linejoin="round"/>
<path d="M358.698 147.812C358.698 147.812 348.16 149.95 349.001 157.564C349.842 165.178 357.912 167.618 362.281 166.21C366.65 164.803 367.976 158.716 365.937 154.109C363.899 149.502 356.797 149.155 353.041 154.283" stroke="#263238" stroke-width="2" stroke-linecap="round" stroke-linejoin="round"/>
<path d="M375.158 142.09L370.168 155.754" stroke="#263238" stroke-width="2" stroke-linecap="round" stroke-linejoin="round"/>
<path d="M367.391 146.002L381.421 151.824" stroke="#263238" stroke-width="2" stroke-linecap="round" stroke-linejoin="round"/>
<path d="M408.256 230.264L407.25 237.694L403.677 231.022L393.586 170.287L398.165 169.528L408.256 230.264Z" fill="white" stroke="#263238" stroke-linecap="round" stroke-linejoin="round"/>
<path d="M397.13 169.692L394.633 170.106L404.72 230.841L407.218 230.427L397.13 169.692Z" fill="#AD43FB" stroke="#263238" stroke-width="0.5" stroke-linecap="round" stroke-linejoin="round"/>
<path d="M408.244 230.273L403.684 231.032L407.248 237.695L408.244 230.273Z" stroke="#263238" stroke-linecap="round" stroke-linejoin="round"/>
<path d="M405.469 234.359L407.251 237.695L407.754 233.984L405.469 234.359Z" fill="#263238" stroke="#263238" stroke-linecap="round" stroke-linejoin="round"/>
<path d="M394.746 163.104C394.139 163.205 393.597 163.542 393.238 164.043C392.88 164.543 392.735 165.166 392.836 165.773L393.585 170.288L398.155 169.529L397.406 165.014C397.305 164.409 396.969 163.868 396.47 163.51C395.972 163.152 395.352 163.006 394.746 163.104Z" fill="white" stroke="#263238" stroke-linecap="round" stroke-linejoin="round"/>
<path d="M394.746 163.103C394.139 163.204 393.597 163.542 393.238 164.042C392.88 164.543 392.735 165.165 392.836 165.772L393.201 167.929L397.771 167.171L397.415 165.014C397.314 164.406 396.976 163.864 396.476 163.506C395.975 163.148 395.353 163.003 394.746 163.103Z" fill="#263238" stroke="#263238" stroke-linecap="round" stroke-linejoin="round"/>
<path d="M80.1938 239.998H223.226C225.812 239.998 228.293 241.026 230.122 242.854C231.951 244.683 232.978 247.164 232.978 249.75V340.31C232.978 341.711 232.702 343.099 232.165 344.394C231.629 345.688 230.842 346.864 229.851 347.855C228.859 348.846 227.682 349.631 226.387 350.167C225.092 350.702 223.704 350.977 222.302 350.976H81.1078C78.2789 350.976 75.5659 349.852 73.5655 347.852C71.5652 345.851 70.4414 343.138 70.4414 340.31V249.741C70.4438 247.156 71.4724 244.678 73.301 242.851C75.1297 241.024 77.6089 239.998 80.1938 239.998Z" fill="white" stroke="#263238" stroke-linecap="round" stroke-linejoin="round"/>
<path d="M131.798 250.921H122.648V256.935H131.798V250.921Z" fill="#263238"/>
<path d="M102.155 287.992H93.6641V296.419H102.155V287.992Z" fill="#263238"/>
<path d="M139.676 258.369H131.121V266.796H139.676V258.369Z" fill="#263238"/>
<path d="M121.204 250.921H112.055V256.935H121.204V250.921Z" fill="#263238"/>
<path d="M149.684 258.369H141.129V266.796H149.684V258.369Z" fill="#263238"/>
<path d="M142.391 250.921H133.242V256.935H142.391V250.921Z" fill="#263238"/>
<path d="M97.0291 278.112H80.9336V286.539H97.0291V278.112Z" fill="#263238"/>
<path d="M119.668 258.369H111.113V266.796H119.668V258.369Z" fill="#263238"/>
<path d="M92.2215 287.992H80.9336V296.419H92.2215V287.992Z" fill="#263238"/>
<path d="M152.993 250.921H143.844V256.935H152.993V250.921Z" fill="#263238"/>
<path d="M99.6605 258.369H91.1055V266.796H99.6605V258.369Z" fill="#263238"/>
<path d="M100.02 250.921H90.8711V256.935H100.02V250.921Z" fill="#263238"/>
<path d="M110.61 250.921H101.461V256.935H110.61V250.921Z" fill="#263238"/>
<path d="M109.668 258.369H101.113V266.796H109.668V258.369Z" fill="#263238"/>
<path d="M129.676 258.369H121.121V266.796H129.676V258.369Z" fill="#263238"/>
<path d="M195.368 250.921H186.219V256.935H195.368V250.921Z" fill="#263238"/>
<path d="M205.962 250.921H196.812V256.935H205.962V250.921Z" fill="#263238"/>
<path d="M199.707 258.369H191.152V266.796H199.707V258.369Z" fill="#263238"/>
<path d="M209.707 258.369H201.152V266.796H209.707V258.369Z" fill="#263238"/>
<path d="M225.545 287.992H212.941V296.419H225.545V287.992Z" fill="#263238"/>
<path d="M216.551 250.921H207.402V256.935H216.551V250.921Z" fill="#263238"/>
<path d="M89.6714 258.369H80.9336V266.796H89.6714V258.369Z" fill="#263238"/>
<path d="M163.587 250.921H154.438V256.935H163.587V250.921Z" fill="#263238"/>
<path d="M174.18 250.921H165.031V256.935H174.18V250.921Z" fill="#263238"/>
<path d="M169.692 258.369H161.137V266.796H169.692V258.369Z" fill="#263238"/>
<path d="M189.7 258.369H181.145V266.796H189.7V258.369Z" fill="#263238"/>
<path d="M159.692 258.369H151.137V266.796H159.692V258.369Z" fill="#263238"/>
<path d="M179.7 258.369H171.145V266.796H179.7V258.369Z" fill="#263238"/>
<path d="M184.774 250.921H175.625V256.935H184.774V250.921Z" fill="#263238"/>
<path d="M171.729 287.992H163.238V296.419H171.729V287.992Z" fill="#263238"/>
<path d="M216.296 278.112H207.805V286.539H216.296V278.112Z" fill="#263238"/>
<path d="M206.362 278.112H197.871V286.539H206.362V278.112Z" fill="#263238"/>
<path d="M211.491 287.992H203V296.419H211.491V287.992Z" fill="#263238"/>
<path d="M201.554 287.992H193.062V296.419H201.554V287.992Z" fill="#263238"/>
<path d="M181.675 287.992H173.184V296.419H181.675V287.992Z" fill="#263238"/>
<path d="M191.612 287.992H183.121V296.419H191.612V287.992Z" fill="#263238"/>
<path d="M196.417 278.112H187.926V286.539H196.417V278.112Z" fill="#263238"/>
<path d="M186.483 278.112H177.992V286.539H186.483V278.112Z" fill="#263238"/>
<path d="M225.548 250.921H218.008V256.935H225.548V250.921Z" fill="#263238"/>
<path d="M89.4246 250.921H80.9336V256.935H89.4246V250.921Z" fill="#263238"/>
<path d="M225.547 297.863H80.9336V306.629H225.547V297.863Z" fill="#263238"/>
<path d="M225.547 258.369H211.16V266.796H225.547V258.369Z" fill="#263238"/>
<path d="M225.539 278.112H217.742V286.539H225.539V278.112Z" fill="#263238"/>
<path d="M215.346 276.613H213.902V268.241H205.402V276.613H203.958V268.241H195.467V276.613H194.023V268.241H185.523V276.613H184.078V268.241H175.587V276.613H174.143V268.241H165.643V276.613H164.199V268.241H155.708V276.613H154.264V268.241H145.764V276.613H144.319V268.241H135.828V276.613H134.384V268.241H125.884V276.613H124.44V268.241H115.949V276.613H114.505V268.241H106.005V276.613H104.56V268.241H96.0694V276.613H94.6253V268.241H80.9336V276.668H225.538V268.241H215.346V276.613Z" fill="#263238"/>
<path d="M146.725 278.112H138.234V286.539H146.725V278.112Z" fill="#263238"/>
<path d="M176.538 278.112H168.047V286.539H176.538V278.112Z" fill="#263238"/>
<path d="M126.843 278.112H118.352V286.539H126.843V278.112Z" fill="#263238"/>
<path d="M131.979 287.992H123.488V296.419H131.979V287.992Z" fill="#263238"/>
<path d="M136.78 278.112H128.289V286.539H136.78V278.112Z" fill="#263238"/>
<path d="M116.901 278.112H108.41V286.539H116.901V278.112Z" fill="#263238"/>
<path d="M112.1 287.992H103.609V296.419H112.1V287.992Z" fill="#263238"/>
<path d="M122.038 287.992H113.547V296.419H122.038V287.992Z" fill="#263238"/>
<path d="M156.659 278.112H148.168V286.539H156.659V278.112Z" fill="#263238"/>
<path d="M161.796 287.992H153.305V296.419H161.796V287.992Z" fill="#263238"/>
<path d="M166.604 278.112H158.113V286.539H166.604V278.112Z" fill="#263238"/>
<path d="M141.917 287.992H133.426V296.419H141.917V287.992Z" fill="#263238"/>
<path d="M151.85 287.992H143.359V296.419H151.85V287.992Z" fill="#263238"/>
<path d="M106.964 278.112H98.4727V286.539H106.964V278.112Z" fill="#263238"/>
<path d="M242.255 155.654H60.3233C56.5028 155.654 53.7151 160.626 54.7113 165.708L68.01 233.701C68.6955 237.183 70.9988 239.605 73.6311 239.605H92.2036V244.285H211.252V239.605H228.947C231.579 239.605 233.883 237.183 234.568 233.701L247.867 165.708C248.863 160.626 246.075 155.654 242.255 155.654Z" fill="#263238" stroke="#263238" stroke-linecap="round" stroke-linejoin="round"/>
<path d="M221.672 233.6H80.8699L66.7852 164.045H235.756L221.672 233.6Z" fill="#AD43FB" stroke="#263238" stroke-linecap="round" stroke-linejoin="round"/>
<path d="M73.5859 169.154L84.9287 228.537H218.263L229.597 169.154H73.5859Z" fill="white"/>
<path d="M162.82 204.133C157.4 203.091 146.926 206.573 146.926 206.573C146.926 206.573 149.092 209.699 155.6 210.741C162.107 211.783 170.763 207.615 170.763 207.615C170.763 207.615 168.231 205.184 162.82 204.133Z" fill="#263238"/>
<path d="M193.511 221.526C191.11 219.625 188.673 217.763 186.199 215.941L186.4 215.786C186.4 215.786 186.244 215.695 185.934 215.548C186.821 212.957 187.026 210.181 186.528 207.487C185.723 202.222 178.795 193.896 178.795 193.896C178.795 193.896 176.465 196.912 177.635 203.164C178.549 208.09 183.119 213.135 184.947 215.046C183.119 213.73 181.345 212.441 179.517 211.161C178.338 210.33 177.123 209.516 175.916 208.712C174.71 207.907 173.412 207.213 172.169 206.454L170.889 205.714C171.624 203.238 171.774 200.626 171.328 198.082C170.524 192.826 163.596 184.5 163.596 184.5C163.596 184.5 161.265 187.516 162.435 193.759C163.193 197.835 166.429 201.985 168.595 204.389C167.252 203.63 165.908 202.89 164.537 202.167C160.007 199.754 155.355 197.579 150.598 195.651C150.582 193.8 150.125 191.979 149.264 190.34C147.39 186.684 139.484 183.312 139.484 183.312C139.484 183.312 138.122 186.556 140.526 190.779C140.897 191.408 141.352 191.983 141.879 192.488L140.225 191.967C137.391 191.145 134.521 190.468 131.633 189.883C129.439 189.454 127.227 189.07 125.016 188.759C124.292 187.391 123.293 186.186 122.082 185.222C119.34 182.955 112.028 182.087 112.028 182.087C112.028 182.087 112.183 184.728 115.565 187.315C115.857 187.531 116.162 187.73 116.479 187.909C115.665 187.909 114.843 187.827 114.02 187.799C111.049 187.704 108.074 187.814 105.118 188.128C102.132 188.429 99.1974 189.117 96.3891 190.176C93.5113 191.223 91.0018 193.088 89.1685 195.541C88.2749 196.791 87.6523 198.214 87.3405 199.718C87.0225 201.269 87.245 202.881 87.9712 204.288C88.3782 205.049 88.989 205.682 89.7352 206.116C90.4938 206.51 91.3391 206.708 92.1938 206.692C93.7635 206.612 95.2838 206.117 96.5993 205.257C97.2537 204.881 97.8665 204.437 98.4273 203.932C99.0042 203.437 99.4526 202.809 99.7343 202.104C100.004 201.403 100.004 200.628 99.7343 199.928C99.4635 199.249 99.0304 198.647 98.473 198.173C98.9744 198.684 99.339 199.313 99.5333 200.001C99.7183 200.656 99.6532 201.357 99.3505 201.966C98.6251 203.157 97.5307 204.078 96.2337 204.59C95.0149 205.214 93.6532 205.508 92.2852 205.44C91.6716 205.389 91.0805 205.185 90.5669 204.846C90.0689 204.536 89.6546 204.109 89.3604 203.602C88.7879 202.474 88.6233 201.182 88.8943 199.946C89.1724 198.661 89.7139 197.447 90.4847 196.382C92.141 194.171 94.4103 192.497 97.0106 191.565C99.6858 190.555 102.482 189.9 105.328 189.618C108.208 189.31 111.107 189.204 114.002 189.298C119.819 189.503 125.61 190.191 131.313 191.355H131.523C130.336 191.218 129.137 191.218 127.95 191.355C123.681 191.858 116.982 197.223 116.982 197.223C116.982 197.223 119.477 199.188 124.54 198.411C129.604 197.634 134.75 192.168 134.75 192.168C134.509 192.056 134.262 191.958 134.009 191.876C135.938 192.305 137.857 192.79 139.74 193.338C142.482 194.17 145.224 195.166 147.966 196.163C148.88 196.51 149.794 196.885 150.708 197.25C149.684 197.153 148.652 197.153 147.628 197.25C143.341 197.625 136.495 202.78 136.495 202.78C136.495 202.78 138.927 204.818 144.018 204.197C148.249 203.685 152.637 199.928 153.989 198.713C157.316 200.187 160.585 201.774 163.797 203.475C166.356 204.818 168.869 206.262 171.365 207.725L175.066 209.982C176.3 210.732 177.571 211.435 178.804 212.194C180.038 212.953 181.336 213.72 182.588 214.506C181.015 214.199 179.411 214.07 177.808 214.123C172.324 214.296 162.91 219.972 162.91 219.972C162.91 219.972 165.753 222.55 172.333 222.138C177.625 221.818 183.475 217.907 185.559 216.38C188.228 218.074 190.878 219.789 193.511 221.526Z" fill="#263238"/>
<path d="M125.264 211.737H88.0646C87.965 211.736 87.8661 211.755 87.7736 211.792C87.6811 211.829 87.5968 211.883 87.5255 211.953C87.4542 212.023 87.3973 212.106 87.3581 212.197C87.3189 212.289 87.2981 212.387 87.2969 212.487C87.3017 212.686 87.385 212.876 87.5287 213.015C87.6724 213.153 87.865 213.23 88.0646 213.227H125.264C125.364 213.23 125.462 213.212 125.555 213.176C125.647 213.14 125.732 213.086 125.803 213.017C125.874 212.949 125.931 212.866 125.971 212.775C126.01 212.684 126.031 212.586 126.032 212.487C126.031 212.387 126.01 212.289 125.971 212.197C125.932 212.106 125.875 212.023 125.804 211.953C125.732 211.883 125.648 211.829 125.555 211.792C125.463 211.755 125.364 211.736 125.264 211.737Z" fill="#263238"/>
<path d="M125.262 215.778H89.0764C88.8767 215.775 88.6841 215.851 88.5404 215.99C88.3967 216.129 88.3134 216.318 88.3086 216.518C88.3098 216.618 88.3306 216.716 88.3698 216.808C88.409 216.899 88.4659 216.982 88.5372 217.052C88.6085 217.121 88.6928 217.176 88.7853 217.213C88.8778 217.25 88.9767 217.269 89.0764 217.267H125.262C125.361 217.269 125.46 217.25 125.553 217.213C125.645 217.176 125.729 217.121 125.801 217.052C125.872 216.982 125.929 216.899 125.968 216.808C126.007 216.716 126.028 216.618 126.029 216.518C126.028 216.419 126.007 216.321 125.968 216.23C125.929 216.139 125.872 216.056 125.8 215.987C125.729 215.918 125.644 215.864 125.552 215.828C125.459 215.792 125.361 215.775 125.262 215.778Z" fill="#263238"/>
<path d="M125.263 219.597H90.047C89.9422 219.586 89.8362 219.596 89.7358 219.628C89.6354 219.661 89.543 219.714 89.4644 219.784C89.3859 219.854 89.3231 219.94 89.2801 220.036C89.2371 220.133 89.2148 220.237 89.2148 220.342C89.2148 220.448 89.2371 220.552 89.2801 220.648C89.3231 220.744 89.3859 220.83 89.4644 220.901C89.543 220.971 89.6354 221.024 89.7358 221.056C89.8362 221.088 89.9422 221.099 90.047 221.087H125.263C125.363 221.088 125.462 221.07 125.554 221.033C125.647 220.996 125.731 220.941 125.803 220.871C125.874 220.802 125.931 220.719 125.97 220.627C126.009 220.536 126.03 220.437 126.031 220.338C126.03 220.238 126.009 220.14 125.97 220.049C125.93 219.958 125.873 219.876 125.802 219.807C125.731 219.738 125.646 219.684 125.554 219.648C125.461 219.612 125.363 219.595 125.263 219.597Z" fill="#263238"/>
<path d="M125.263 223.217H90.9514C90.7517 223.215 90.5591 223.291 90.4154 223.429C90.2717 223.568 90.1884 223.758 90.1836 223.957C90.1848 224.057 90.2056 224.155 90.2448 224.247C90.2841 224.339 90.3409 224.422 90.4122 224.491C90.4835 224.561 90.5678 224.616 90.6603 224.653C90.7528 224.69 90.8517 224.708 90.9514 224.707H125.263C125.363 224.708 125.461 224.69 125.554 224.653C125.646 224.616 125.731 224.561 125.802 224.491C125.873 224.422 125.93 224.339 125.969 224.247C126.009 224.155 126.029 224.057 126.031 223.957C126.029 223.858 126.009 223.76 125.969 223.669C125.93 223.578 125.873 223.496 125.801 223.427C125.73 223.358 125.646 223.304 125.553 223.268C125.461 223.232 125.362 223.215 125.263 223.217Z" fill="#263238"/>
<path d="M199.919 184.372L194.234 226.05H211.372L219.287 184.372H199.919ZM201.592 224.268H196.72L197.406 219.534H202.342L201.592 224.268ZM203.118 214.662H198.101L198.823 209.644H203.914L203.118 214.662ZM204.736 204.471H199.563L200.331 199.142H205.577L204.736 204.471ZM206.445 193.64H201.08L201.894 187.964H207.314L206.445 193.64ZM209.462 224.268H204.59L205.385 219.534H210.33L209.462 224.268ZM211.216 214.662H206.208L207.049 209.644H212.14L211.216 214.662ZM213.044 204.471H207.88L208.794 199.142H214.041L213.044 204.471ZM215.028 193.64H209.699L210.613 187.964H216.033L215.028 193.64Z" fill="#AD43FB"/>
<path d="M111.078 180.259H196.226L197.287 171.731H110.164L111.078 180.259Z" fill="#AD43FB"/>
<path d="M312.34 345.062L372.216 380.05L419.068 289.135L363.259 257.419L312.34 345.062Z" fill="#263238" stroke="#263238" stroke-linecap="round" stroke-linejoin="round"/>
<path d="M314.671 339.204L312.34 345.063L372.207 378.927C372.788 376.702 373.967 374.679 375.616 373.077L314.671 339.204Z" fill="white" stroke="#263238" stroke-linecap="round" stroke-linejoin="round"/>
<path d="M363.032 253.727L314.672 339.204L376.522 373.936L422.46 287.298L363.032 253.727Z" fill="#263238" stroke="#263238" stroke-linecap="round" stroke-linejoin="round"/>
<path d="M314.367 342.274L331.139 350.619" stroke="#263238" stroke-linecap="round" stroke-linejoin="round"/>
<path d="M313.262 343.838L332.876 353.864" stroke="#263238" stroke-linecap="round" stroke-linejoin="round"/>
<path d="M373.751 375.042L361.211 367.41" stroke="#263238" stroke-linecap="round" stroke-linejoin="round"/>
<path d="M372.976 376.988L352.648 365.161" stroke="#263238" stroke-linecap="round" stroke-linejoin="round"/>
<path d="M349.249 313.813C350.179 310.871 350.807 307.842 351.123 304.773C351.387 302.29 351.515 299.794 351.506 297.297C349.058 299.257 347.149 301.808 345.958 304.709C343.6 309.938 349.249 313.813 349.249 313.813Z" fill="#AD43FB"/>
<path d="M350.48 324.699C348.215 322.766 346.055 320.712 344.009 318.548C344.009 318.548 342.666 325.86 346.395 329.397C350.124 332.934 357.226 333.711 357.226 333.711C357.226 333.711 354.008 327.67 350.48 324.699Z" fill="#AD43FB"/>
<path d="M331.782 326.71C336.922 322.818 342.284 319.229 347.841 315.961C348.015 316.719 348.892 319.69 352.768 322.724C357.265 326.243 365.326 327.194 365.326 327.194C365.326 327.194 361.012 323.09 357.301 320.312C354.446 318.384 351.328 316.878 348.042 315.842C351.36 313.904 353.929 312.552 355.354 311.839C357.687 313.118 360.308 313.781 362.968 313.767C367.84 313.621 375.152 309.426 375.152 309.426C375.152 309.426 366.606 307.205 362.127 308.384C359.833 308.996 357.786 309.691 356.323 310.212C356.242 310.209 356.16 310.224 356.086 310.258L355.647 310.468L354.376 310.97C357.362 308.962 359.965 306.436 362.063 303.512C364.24 300.438 365.167 296.651 364.659 292.919C362.128 295.372 359.765 297.992 357.585 300.761C354.843 304.417 352.503 311.299 352.183 312.259C350.263 313.301 347.723 314.727 344.789 316.528C344.792 314.676 344.549 312.831 344.067 311.044C343.216 307.616 343.61 300.523 343.61 300.523C343.61 300.523 340.465 305.011 339.414 308.859C338.418 312.515 344.185 316.171 344.725 316.546C342.604 317.844 340.264 319.343 337.796 321.024C338.236 319.907 338.408 318.702 338.299 317.506C337.97 312.351 337.486 308.146 337.486 308.146C337.486 308.146 333.784 313.219 333.117 317.067C332.952 318.135 333.018 319.227 333.311 320.268C333.605 321.309 334.118 322.274 334.817 323.099C330.639 326.089 326.618 329.292 322.77 332.696C322.666 332.792 322.603 332.925 322.595 333.066C322.586 333.208 322.633 333.347 322.725 333.455C322.825 333.545 322.955 333.594 323.09 333.594C323.225 333.594 323.355 333.545 323.456 333.455C325.988 331.206 328.547 329.122 331.06 327.194C332.767 329.006 334.576 330.718 336.48 332.321C339.021 334.36 345.721 334.378 345.721 334.378C345.721 334.378 339.451 328.803 336.736 327.34C335.196 326.602 333.458 326.38 331.782 326.71ZM354.139 311.172L354.221 311.235L353.435 311.638L354.139 311.172Z" fill="#AD43FB"/>
<path d="M371.328 274.364L402.669 291.529" stroke="#AD43FB" stroke-miterlimit="10"/>
<path d="M361.469 278.103L405.715 302.333" stroke="#AD43FB" stroke-miterlimit="10"/>
<path d="M418.693 294.399L422.458 287.298L414.488 282.801L418.693 294.399Z" fill="#AD43FB" stroke="#AD43FB" stroke-miterlimit="10"/>
<path d="M376.519 373.936L379.197 368.891L368.613 369.494L376.519 373.936Z" fill="#AD43FB" stroke="#AD43FB" stroke-miterlimit="10"/>
<path d="M258.341 276.623C257.602 276.017 256.714 275.622 255.77 275.479C254.826 275.336 253.86 275.45 252.975 275.809C247.766 277.911 237.437 282.445 236.88 285.507C236.149 289.602 243.388 313.95 245.106 322.149C246.824 330.348 250.891 335.859 261.019 338.062C271.146 340.265 284.408 334.689 289.471 325.531C294.535 316.373 287.643 308.028 282.36 299.783C278.156 293.258 264.035 281.312 258.341 276.623Z" fill="#263238"/>
<path d="M304.853 387.746C304.853 387.746 295.22 353.581 295.22 333.473C295.22 313.365 291.865 298.668 287.743 292.224C283.621 285.781 279.755 283.194 277.945 283.194C276.136 283.194 277.433 285.516 280.011 288.87C282.588 292.224 284.91 294.025 285.943 298.156C286.976 302.287 286.966 307.433 285.678 306.921C284.389 306.41 282.332 296.091 280.523 292.224C278.713 288.358 274.335 283.459 271.757 281.138C269.18 278.816 263.531 271.851 260.936 273.661C258.34 275.471 259.903 278.039 261.448 279.072C262.992 280.105 269.18 286.292 272.013 290.159C274.847 294.025 276.657 303.869 275.112 304.079C273.567 304.289 268.924 289.903 266.347 286.804C263.769 283.706 253.459 275.206 251.138 274.922C248.816 274.639 248.56 278.277 250.617 280.077C252.673 281.878 259.574 289.647 261.932 294.308C264.29 298.97 265.286 307.461 263.221 305.395C261.155 303.329 257.81 294.829 254.995 291.996C252.18 289.162 243.652 280.114 241.586 281.165C239.521 282.216 240.042 284.821 241.842 286.576C243.643 288.331 250.608 298.184 252.417 303.339C254.227 308.494 256.283 322.926 255.251 320.869C254.218 318.813 250.863 308.238 249.063 303.85C247.262 299.463 243.652 297.407 243.131 299.472C242.61 301.538 243.652 302.562 244.959 307.205C246.266 311.848 246.248 324.214 250.114 331.179C253.98 338.144 268.933 356.963 270.999 362.118C273.065 367.273 278.686 390.818 278.686 390.818" fill="white"/>
<path d="M304.853 387.746C304.853 387.746 295.22 353.581 295.22 333.473C295.22 313.365 291.865 298.668 287.743 292.224C283.621 285.781 279.755 283.194 277.945 283.194C276.136 283.194 277.433 285.516 280.011 288.87C282.588 292.224 284.91 294.025 285.943 298.156C286.976 302.287 286.966 307.433 285.678 306.921C284.389 306.41 282.332 296.091 280.523 292.224C278.713 288.358 274.335 283.459 271.757 281.138C269.18 278.816 263.531 271.851 260.936 273.661C258.34 275.471 259.903 278.039 261.448 279.072C262.992 280.105 269.18 286.292 272.013 290.159C274.847 294.025 276.657 303.869 275.112 304.079C273.567 304.289 268.924 289.903 266.347 286.804C263.769 283.706 253.459 275.206 251.138 274.922C248.816 274.639 248.56 278.277 250.617 280.077C252.673 281.878 259.574 289.647 261.932 294.308C264.29 298.97 265.286 307.461 263.221 305.395C261.155 303.329 257.81 294.829 254.995 291.996C252.18 289.162 243.652 280.114 241.586 281.165C239.521 282.216 240.042 284.821 241.842 286.576C243.643 288.331 250.608 298.184 252.417 303.339C254.227 308.494 256.283 322.926 255.251 320.869C254.218 318.813 250.863 308.238 249.063 303.85C247.262 299.463 243.652 297.407 243.131 299.472C242.61 301.538 243.652 302.562 244.959 307.205C246.266 311.848 246.248 324.214 250.114 331.179C253.98 338.144 268.933 356.963 270.999 362.118C273.065 367.273 278.686 390.818 278.686 390.818" stroke="#263238" stroke-linecap="round" stroke-linejoin="round"/>
<path d="M91.0803 283.285C90.6599 283.879 90.2394 284.492 89.8281 285.113" stroke="white" stroke-linecap="round" stroke-linejoin="round"/>
<path d="M97.9333 275.397C96.1055 277.088 94.4153 278.922 92.8789 280.881" stroke="white" stroke-linecap="round" stroke-linejoin="round"/>
<path d="M90.4875 278.871C88.6975 281.395 87.0733 284.033 85.625 286.768" stroke="white" stroke-linecap="round" stroke-linejoin="round"/>
<path d="M136.716 293.284C136.304 293.878 135.884 294.491 135.473 295.112" stroke="white" stroke-linecap="round" stroke-linejoin="round"/>
<path d="M143.573 285.396C141.749 287.089 140.062 288.923 138.527 290.88" stroke="white" stroke-linecap="round" stroke-linejoin="round"/>
<path d="M136.187 288.87C134.393 291.392 132.769 294.03 131.324 296.767" stroke="white" stroke-linecap="round" stroke-linejoin="round"/>
<path d="M72.6992 383.478C72.6992 383.478 83.0457 353.581 83.0457 333.473C83.0457 313.365 86.4001 298.668 90.5222 292.224C94.6444 285.781 98.5197 283.194 100.32 283.194C102.121 283.194 100.841 285.516 98.2638 288.87C95.6863 292.224 93.3648 294.025 92.3319 298.156C91.2991 302.287 91.2991 307.433 92.5879 306.921C93.8766 306.41 95.9697 296.136 97.7428 292.224C99.516 288.312 103.931 283.459 106.508 281.138C109.086 278.816 114.734 271.851 117.339 273.661C119.944 275.471 118.372 278.039 116.827 279.072C115.282 280.105 109.086 286.292 106.252 290.159C103.419 294.025 101.609 303.869 103.163 304.079C104.717 304.289 109.351 289.903 111.928 286.804C114.506 283.706 124.816 275.206 127.137 274.922C129.459 274.639 129.715 278.277 127.649 280.077C125.583 281.878 118.628 289.647 116.306 294.308C113.985 298.97 112.961 307.461 115.017 305.395C117.074 303.329 120.437 294.829 123.243 291.996C126.049 289.162 134.586 280.114 136.652 281.165C138.717 282.216 138.196 284.821 136.387 286.576C134.577 288.331 127.621 298.184 125.821 303.339C124.02 308.494 121.955 322.926 122.987 320.869C124.02 318.813 127.366 308.238 129.175 303.85C130.985 299.463 134.586 297.407 135.098 299.472C135.61 301.538 134.586 302.562 133.27 307.205C131.954 311.848 131.981 324.214 128.115 331.179C124.249 338.144 109.296 356.963 107.23 362.118C105.164 367.273 98.8488 386.558 98.8488 386.558" fill="white"/>
<path d="M72.6992 383.478C72.6992 383.478 83.0457 353.581 83.0457 333.473C83.0457 313.365 86.4001 298.668 90.5222 292.224C94.6444 285.781 98.5197 283.194 100.32 283.194C102.121 283.194 100.841 285.516 98.2638 288.87C95.6863 292.224 93.3648 294.025 92.3319 298.156C91.2991 302.287 91.2991 307.433 92.5879 306.921C93.8766 306.41 95.9697 296.136 97.7428 292.224C99.516 288.312 103.931 283.459 106.508 281.138C109.086 278.816 114.734 271.851 117.339 273.661C119.944 275.471 118.372 278.039 116.827 279.072C115.282 280.105 109.086 286.292 106.252 290.159C103.419 294.025 101.609 303.869 103.163 304.079C104.717 304.289 109.351 289.903 111.928 286.804C114.506 283.706 124.816 275.206 127.137 274.922C129.459 274.639 129.715 278.277 127.649 280.077C125.583 281.878 118.628 289.647 116.306 294.308C113.985 298.97 112.961 307.461 115.017 305.395C117.074 303.329 120.437 294.829 123.243 291.996C126.049 289.162 134.586 280.114 136.652 281.165C138.717 282.216 138.196 284.821 136.387 286.576C134.577 288.331 127.621 298.184 125.821 303.339C124.02 308.494 121.955 322.926 122.987 320.869C124.02 318.813 127.366 308.238 129.175 303.85C130.985 299.463 134.586 297.407 135.098 299.472C135.61 301.538 134.586 302.562 133.27 307.205C131.954 311.848 131.981 324.214 128.115 331.179C124.249 338.144 109.296 356.963 107.23 362.118C105.164 367.273 98.8488 386.558 98.8488 386.558" stroke="#263238" stroke-linecap="round" stroke-linejoin="round"/>
<path d="M146.512 142.082L147.069 141.351" stroke="#263238" stroke-linecap="round" stroke-linejoin="round"/>
<path d="M148.195 139.924C158.187 127.367 170.674 117.019 184.867 109.531C199.061 102.044 214.652 97.5811 230.658 96.4241C246.663 95.2672 262.735 97.4415 277.857 102.81C292.98 108.178 306.825 116.623 318.519 127.613" stroke="#263238" stroke-linecap="round" stroke-linejoin="round" stroke-dasharray="1.99 1.99"/>
<path d="M319.176 128.243L319.834 128.874" stroke="#263238" stroke-linecap="round" stroke-linejoin="round"/>
<path d="M153.341 144.467L140.91 150.161L142.19 136.552L153.341 144.467Z" fill="#263238"/>
<path d="M341.223 245.199V280.151" stroke="#263238" stroke-linecap="round" stroke-linejoin="round" stroke-dasharray="2 2"/>
<path d="M334.387 247.192L341.223 235.355L348.06 247.192H334.387Z" fill="#263238"/>
</svg>
